  0
SECTION
  2
HEADER
  9
$ACADVER
  1
AC1024
  9
$ACADMAINTVER
 70
    63
  9
$DWGCODEPAGE
  3
ANSI_1252
  9
$LASTSAVEDBY
  1
xisco
  9
$INSBASE
 10
0.0
 20
0.0
 30
0.0
  9
$EXTMIN
 10
19.40260181213747
 20
41.49717086994002
 30
0.0
  9
$EXTMAX
 10
263.6553261118171
 20
549.1270831329678
 30
0.0
  9
$LIMMIN
 10
0.0
 20
0.0
  9
$LIMMAX
 10
863.5999999999999
 20
558.8
  9
$ORTHOMODE
 70
     0
  9
$REGENMODE
 70
     1
  9
$FILLMODE
 70
     1
  9
$QTEXTMODE
 70
     0
  9
$MIRRTEXT
 70
     1
  9
$LTSCALE
 40
1.0
  9
$ATTMODE
 70
     1
  9
$TEXTSIZE
 40
3.5
  9
$TRACEWID
 40
1.0
  9
$TEXTSTYLE
  7
Standard
  9
$CLAYER
  8
0
  9
$CELTYPE
  6
ByLayer
  9
$CECOLOR
 62
   256
  9
$CELTSCALE
 40
1.0
  9
$DISPSILH
 70
     0
  9
$DIMSCALE
 40
1.0
  9
$DIMASZ
 40
3.301999999999999
  9
$DIMEXO
 40
1.0
  9
$DIMDLI
 40
3.75
  9
$DIMRND
 40
0.0
  9
$DIMDLE
 40
0.0
  9
$DIMEXE
 40
1.0
  9
$DIMTP
 40
0.0
  9
$DIMTM
 40
0.0
  9
$DIMTXT
 40
3.5
  9
$DIMCEN
 40
2.5
  9
$DIMTSZ
 40
0.0
  9
$DIMTOL
 70
     0
  9
$DIMLIM
 70
     0
  9
$DIMTIH
 70
     1
  9
$DIMTOH
 70
     1
  9
$DIMSE1
 70
     0
  9
$DIMSE2
 70
     0
  9
$DIMTAD
 70
     1
  9
$DIMZIN
 70
     0
  9
$DIMBLK
  1

  9
$DIMASO
 70
     1
  9
$DIMSHO
 70
     1
  9
$DIMPOST
  1

  9
$DIMAPOST
  1

  9
$DIMALT
 70
     0
  9
$DIMALTD
 70
     3
  9
$DIMALTF
 40
0.0393700787401575
  9
$DIMLFAC
 40
1.0
  9
$DIMTOFL
 70
     1
  9
$DIMTVP
 40
0.0
  9
$DIMTIX
 70
     0
  9
$DIMSOXD
 70
     0
  9
$DIMSAH
 70
     0
  9
$DIMBLK1
  1

  9
$DIMBLK2
  1

  9
$DIMSTYLE
  2
ISO-25
  9
$DIMCLRD
 70
     0
  9
$DIMCLRE
 70
     0
  9
$DIMCLRT
 70
     0
  9
$DIMTFAC
 40
1.0
  9
$DIMGAP
 40
1.524
  9
$DIMJUST
 70
     0
  9
$DIMSD1
 70
     0
  9
$DIMSD2
 70
     0
  9
$DIMTOLJ
 70
     0
  9
$DIMTZIN
 70
     0
  9
$DIMALTZ
 70
     0
  9
$DIMALTTZ
 70
     0
  9
$DIMUPT
 70
     0
  9
$DIMDEC
 70
     3
  9
$DIMTDEC
 70
     3
  9
$DIMALTU
 70
     2
  9
$DIMALTTD
 70
     3
  9
$DIMTXSTY
  7
Standard
  9
$DIMAUNIT
 70
     0
  9
$DIMADEC
 70
     2
  9
$DIMALTRND
 40
0.0
  9
$DIMAZIN
 70
     0
  9
$DIMDSEP
 70
    44
  9
$DIMATFIT
 70
     3
  9
$DIMFRAC
 70
     0
  9
$DIMLDRBLK
  1

  9
$DIMLUNIT
 70
     2
  9
$DIMLWD
 70
    -2
  9
$DIMLWE
 70
    -2
  9
$DIMTMOVE
 70
     0
  9
$DIMFXL
 40
1.0
  9
$DIMFXLON
 70
     0
  9
$DIMJOGANG
 40
0.7853981633974483
  9
$DIMTFILL
 70
     0
  9
$DIMTFILLCLR
 70
     0
  9
$DIMARCSYM
 70
     0
  9
$DIMLTYPE
  6

  9
$DIMLTEX1
  6

  9
$DIMLTEX2
  6

  9
$DIMTXTDIRECTION
 70
     0
  9
$LUNITS
 70
     2
  9
$LUPREC
 70
     2
  9
$SKETCHINC
 40
1.0
  9
$FILLETRAD
 40
10.0
  9
$AUNITS
 70
     0
  9
$AUPREC
 70
     2
  9
$MENU
  1
.
  9
$ELEVATION
 40
0.0
  9
$PELEVATION
 40
0.0
  9
$THICKNESS
 40
0.0
  9
$LIMCHECK
 70
     0
  9
$CHAMFERA
 40
10.0
  9
$CHAMFERB
 40
10.0
  9
$CHAMFERC
 40
20.0
  9
$CHAMFERD
 40
0.0
  9
$SKPOLY
 70
     0
  9
$TDCREATE
 40
2457025.584570451
  9
$TDUCREATE
 40
2457025.917903785
  9
$TDUPDATE
 40
2457028.606156077
  9
$TDUUPDATE
 40
2457028.939489410
  9
$TDINDWG
 40
0.0077389583
  9
$TDUSRTIMER
 40
0.0077389583
  9
$USRTIMER
 70
     1
  9
$ANGBASE
 50
0.0
  9
$ANGDIR
 70
     0
  9
$PDMODE
 70
     0
  9
$PDSIZE
 40
-1.0
  9
$PLINEWID
 40
0.0
  9
$SPLFRAME
 70
     0
  9
$SPLINETYPE
 70
     6
  9
$SPLINESEGS
 70
     8
  9
$HANDSEED
  5
282
  9
$SURFTAB1
 70
     6
  9
$SURFTAB2
 70
     6
  9
$SURFTYPE
 70
     6
  9
$SURFU
 70
     6
  9
$SURFV
 70
     6
  9
$UCSBASE
  2

  9
$UCSNAME
  2

  9
$UCSORG
 10
0.0
 20
0.0
 30
0.0
  9
$UCSXDIR
 10
1.0
 20
0.0
 30
0.0
  9
$UCSYDIR
 10
0.0
 20
1.0
 30
0.0
  9
$UCSORTHOREF
  2

  9
$UCSORTHOVIEW
 70
     0
  9
$UCSORGTOP
 10
0.0
 20
0.0
 30
0.0
  9
$UCSORGBOTTOM
 10
0.0
 20
0.0
 30
0.0
  9
$UCSORGLEFT
 10
0.0
 20
0.0
 30
0.0
  9
$UCSORGRIGHT
 10
0.0
 20
0.0
 30
0.0
  9
$UCSORGFRONT
 10
0.0
 20
0.0
 30
0.0
  9
$UCSORGBACK
 10
0.0
 20
0.0
 30
0.0
  9
$PUCSBASE
  2

  9
$PUCSNAME
  2

  9
$PUCSORG
 10
0.0
 20
0.0
 30
0.0
  9
$PUCSXDIR
 10
1.0
 20
0.0
 30
0.0
  9
$PUCSYDIR
 10
0.0
 20
1.0
 30
0.0
  9
$PUCSORTHOREF
  2

  9
$PUCSORTHOVIEW
 70
     0
  9
$PUCSORGTOP
 10
0.0
 20
0.0
 30
0.0
  9
$PUCSORGBOTTOM
 10
0.0
 20
0.0
 30
0.0
  9
$PUCSORGLEFT
 10
0.0
 20
0.0
 30
0.0
  9
$PUCSORGRIGHT
 10
0.0
 20
0.0
 30
0.0
  9
$PUCSORGFRONT
 10
0.0
 20
0.0
 30
0.0
  9
$PUCSORGBACK
 10
0.0
 20
0.0
 30
0.0
  9
$USERI1
 70
     0
  9
$USERI2
 70
     0
  9
$USERI3
 70
     0
  9
$USERI4
 70
     0
  9
$USERI5
 70
     0
  9
$USERR1
 40
0.0
  9
$USERR2
 40
0.0
  9
$USERR3
 40
0.0
  9
$USERR4
 40
0.0
  9
$USERR5
 40
0.0
  9
$WORLDVIEW
 70
     1
  9
$SHADEDGE
 70
     3
  9
$SHADEDIF
 70
    70
  9
$TILEMODE
 70
     1
  9
$MAXACTVP
 70
    64
  9
$PINSBASE
 10
0.0
 20
0.0
 30
0.0
  9
$PLIMCHECK
 70
     0
  9
$PEXTMIN
 10
1.000000000000000E+20
 20
1.000000000000000E+20
 30
1.000000000000000E+20
  9
$PEXTMAX
 10
-1.000000000000000E+20
 20
-1.000000000000000E+20
 30
-1.000000000000000E+20
  9
$PLIMMIN
 10
0.0
 20
0.0
  9
$PLIMMAX
 10
420.0
 20
297.0
  9
$UNITMODE
 70
     0
  9
$VISRETAIN
 70
     1
  9
$PLINEGEN
 70
     0
  9
$PSLTSCALE
 70
     1
  9
$TREEDEPTH
 70
  3020
  9
$CMLSTYLE
  2
Standard
  9
$CMLJUST
 70
     0
  9
$CMLSCALE
 40
20.0
  9
$PROXYGRAPHICS
 70
     1
  9
$MEASUREMENT
 70
     1
  9
$CELWEIGHT
370
    -1
  9
$ENDCAPS
280
     0
  9
$JOINSTYLE
280
     0
  9
$LWDISPLAY
290
     1
  9
$INSUNITS
 70
     4
  9
$HYPERLINKBASE
  1

  9
$STYLESHEET
  1

  9
$XEDIT
290
     1
  9
$CEPSNTYPE
380
     0
  9
$PSTYLEMODE
290
     1
  9
$FINGERPRINTGUID
  2
{67B33A13-0B3F-439B-9881-512C305CECFE}
  9
$VERSIONGUID
  2
{0530E7AF-82B6-42F6-9F39-9A7002E260A9}
  9
$EXTNAMES
290
     1
  9
$PSVPSCALE
 40
0.0
  9
$OLESTARTUP
290
     0
  9
$SORTENTS
280
   127
  9
$INDEXCTL
280
     0
  9
$HIDETEXT
280
     0
  9
$XCLIPFRAME
280
     2
  9
$HALOGAP
280
     0
  9
$OBSCOLOR
 70
   257
  9
$OBSLTYPE
280
     0
  9
$INTERSECTIONDISPLAY
280
     0
  9
$INTERSECTIONCOLOR
 70
   257
  9
$DIMASSOC
280
     1
  9
$PROJECTNAME
  1

  9
$CAMERADISPLAY
290
     0
  9
$LENSLENGTH
 40
50.0
  9
$CAMERAHEIGHT
 40
0.0
  9
$STEPSPERSEC
 40
2.0
  9
$STEPSIZE
 40
6.0
  9
$3DDWFPREC
 40
2.0
  9
$PSOLWIDTH
 40
0.25
  9
$PSOLHEIGHT
 40
4.0
  9
$LOFTANG1
 40
1.570796326794896
  9
$LOFTANG2
 40
1.570796326794896
  9
$LOFTMAG1
 40
0.0
  9
$LOFTMAG2
 40
0.0
  9
$LOFTPARAM
 70
     7
  9
$LOFTNORMALS
280
     1
  9
$LATITUDE
 40
37.795
  9
$LONGITUDE
 40
-122.394
  9
$NORTHDIRECTION
 40
0.0
  9
$TIMEZONE
 70
 -8000
  9
$LIGHTGLYPHDISPLAY
280
     1
  9
$TILEMODELIGHTSYNCH
280
     1
  9
$CMATERIAL
347
219
  9
$SOLIDHIST
280
     0
  9
$SHOWHIST
280
     1
  9
$DWFFRAME
280
     2
  9
$DGNFRAME
280
     0
  9
$REALWORLDSCALE
290
     1
  9
$INTERFERECOLOR
 62
     1
  9
$INTERFEREOBJVS
345
23B
  9
$INTERFEREVPVS
346
238
  9
$CSHADOW
280
     0
  9
$SHADOWPLANELOCATION
 40
0.0
  0
ENDSEC
  0
SECTION
  2
CLASSES
  0
CLASS
  1
ACDBDICTIONARYWDFLT
  2
AcDbDictionaryWithDefault
  3
ObjectDBX Classes
 90
        0
 91
        1
280
     0
281
     0
  0
CLASS
  1
VISUALSTYLE
  2
AcDbVisualStyle
  3
ObjectDBX Classes
 90
     4095
 91
       24
280
     0
281
     0
  0
CLASS
  1
MATERIAL
  2
AcDbMaterial
  3
ObjectDBX Classes
 90
     1153
 91
        3
280
     0
281
     0
  0
CLASS
  1
TABLESTYLE
  2
AcDbTableStyle
  3
ObjectDBX Classes
 90
     4095
 91
        1
280
     0
281
     0
  0
CLASS
  1
SCALE
  2
AcDbScale
  3
ObjectDBX Classes
 90
     1153
 91
       17
280
     0
281
     0
  0
CLASS
  1
MLEADERSTYLE
  2
AcDbMLeaderStyle
  3
ACDB_MLEADERSTYLE_CLASS
 90
     4095
 91
        1
280
     0
281
     0
  0
CLASS
  1
DICTIONARYVAR
  2
AcDbDictionaryVar
  3
ObjectDBX Classes
 90
        0
 91
        7
280
     0
281
     0
  0
CLASS
  1
CELLSTYLEMAP
  2
AcDbCellStyleMap
  3
ObjectDBX Classes
 90
     1152
 91
        1
280
     0
281
     0
  0
ENDSEC
  0
SECTION
  2
TABLES
  0
TABLE
  2
VPORT
  5
8
330
0
100
AcDbSymbolTable
 70
     1
  0
VPORT
  5
29
330
8
100
AcDbSymbolTableRecord
100
AcDbViewportTableRecord
  2
*Active
 70
     0
 10
0.0
 20
0.0
 11
1.0
 21
1.0
 12
769.0434311242725
 22
464.1652277973564
 13
0.0
 23
0.0
 14
10.0
 24
10.0
 15
10.0
 25
10.0
 16
0.0
 26
0.0
 36
1.0
 17
0.0
 27
0.0
 37
0.0
 40
935.5752661435674
 41
2.665079365079364
 42
50.0
 43
0.0
 44
0.0
 50
0.0
 51
0.0
 71
     0
 72
  2000
 73
     1
 74
     3
 75
     0
 76
     0
 77
     0
 78
     0
281
     0
 65
     1
110
0.0
120
0.0
130
0.0
111
1.0
121
0.0
131
0.0
112
0.0
122
1.0
132
0.0
 79
     0
146
0.0
348
237
 60
     3
 61
     5
292
     1
282
     1
141
0.0
142
0.0
 63
   250
421
  3355443
1001
ACAD_NAV_VCDISPLAY
1070
     3
  0
ENDTAB
  0
TABLE
  2
LTYPE
  5
5
330
0
100
AcDbSymbolTable
 70
     6
  0
LTYPE
  5
14
330
5
100
AcDbSymbolTableRecord
100
AcDbLinetypeTableRecord
  2
ByBlock
 70
     0
  3

 72
    65
 73
     0
 40
0.0
  0
LTYPE
  5
15
330
5
100
AcDbSymbolTableRecord
100
AcDbLinetypeTableRecord
  2
ByLayer
 70
     0
  3

 72
    65
 73
     0
 40
0.0
  0
LTYPE
  5
16
330
5
100
AcDbSymbolTableRecord
100
AcDbLinetypeTableRecord
  2
Continuous
 70
     0
  3
Solid line
 72
    65
 73
     0
 40
0.0
  0
LTYPE
  5
3F
330
5
100
AcDbSymbolTableRecord
100
AcDbLinetypeTableRecord
  2
HIDDEN
 70
     0
  3
Hidden __ __ __ __ __ __ __ __ __ __ __ __ __ __
 72
    65
 73
     2
 40
1.905
 49
1.27
 74
     0
 49
-0.635
 74
     0
  0
LTYPE
  5
40
330
5
100
AcDbSymbolTableRecord
100
AcDbLinetypeTableRecord
  2
PHANTOM
 70
     0
  3
Phantom ______  __  __  ______  __  __  ______
 72
    65
 73
     6
 40
12.7
 49
6.349999999999999
 74
     0
 49
-1.27
 74
     0
 49
1.27
 74
     0
 49
-1.27
 74
     0
 49
1.27
 74
     0
 49
-1.27
 74
     0
  0
LTYPE
  5
41
330
5
100
AcDbSymbolTableRecord
100
AcDbLinetypeTableRecord
  2
CENTER
 70
     0
  3
Center ____ _ ____ _ ____ _ ____ _ ____ _ ____
 72
    65
 73
     4
 40
10.16
 49
6.349999999999999
 74
     0
 49
-1.27
 74
     0
 49
1.27
 74
     0
 49
-1.27
 74
     0
  0
LTYPE
  5
42
330
5
100
AcDbSymbolTableRecord
100
AcDbLinetypeTableRecord
  2
CENTERX2
 70
     0
  3
Center (2x) ________  __  ________  __  _____
 72
    65
 73
     4
 40
20.32
 49
12.7
 74
     0
 49
-2.54
 74
     0
 49
2.54
 74
     0
 49
-2.54
 74
     0
  0
LTYPE
  5
43
330
5
100
AcDbSymbolTableRecord
100
AcDbLinetypeTableRecord
  2
DOT2
 70
     0
  3
Dot (.5x) ........................................
 72
    65
 73
     2
 40
0.635
 49
0.0
 74
     0
 49
-0.635
 74
     0
  0
ENDTAB
  0
TABLE
  2
LAYER
  5
2
330
0
100
AcDbSymbolTable
 70
     2
  0
LAYER
  5
10
102
{ACAD_XDICTIONARY
360
264
102
}
330
2
100
AcDbSymbolTableRecord
100
AcDbLayerTableRecord
  2
0
 70
     0
 62
     7
  6
Continuous
370
    -3
390
F
347
229
  0
LAYER
  5
44
102
{ACAD_XDICTIONARY
360
266
102
}
330
2
100
AcDbSymbolTableRecord
100
AcDbLayerTableRecord
  2
FORMAT
 70
     0
 62
     7
  6
Continuous
370
    -3
390
F
347
229
  0
ENDTAB
  0
TABLE
  2
STYLE
  5
3
330
0
100
AcDbSymbolTable
 70
     1
  0
STYLE
  5
11
330
3
100
AcDbSymbolTableRecord
100
AcDbTextStyleTableRecord
  2
Standard
 70
     0
 40
0.0
 41
1.0
 50
0.0
 71
     0
 42
3.5
  3
txt
  4

  0
ENDTAB
  0
TABLE
  2
VIEW
  5
6
330
0
100
AcDbSymbolTable
 70
     0
  0
ENDTAB
  0
TABLE
  2
UCS
  5
7
330
0
100
AcDbSymbolTable
 70
     0
  0
ENDTAB
  0
TABLE
  2
APPID
  5
9
330
0
100
AcDbSymbolTable
 70
     2
  0
APPID
  5
12
330
9
100
AcDbSymbolTableRecord
100
AcDbRegAppTableRecord
  2
ACAD
 70
     0
  0
APPID
  5
268
330
9
100
AcDbSymbolTableRecord
100
AcDbRegAppTableRecord
  2
ACAD_NAV_VCDISPLAY
 70
     0
  0
ENDTAB
  0
TABLE
  2
DIMSTYLE
  5
A
330
0
100
AcDbSymbolTable
 70
     1
100
AcDbDimStyleTable
 71
     0
  0
DIMSTYLE
105
27
330
A
100
AcDbSymbolTableRecord
100
AcDbDimStyleTableRecord
  2
ISO-25
 70
     0
 41
2.5
 42
0.625
 43
3.75
 44
1.25
 73
     0
 74
     0
 77
     1
 78
     8
140
2.5
141
2.5
143
0.03937007874016
147
0.625
171
     3
172
     1
271
     2
272
     2
274
     3
278
    44
283
     0
284
     8
340
11
  0
ENDTAB
  0
TABLE
  2
BLOCK_RECORD
  5
1
330
0
100
AcDbSymbolTable
 70
     1
  0
BLOCK_RECORD
  5
1F
330
1
100
AcDbSymbolTableRecord
100
AcDbBlockTableRecord
  2
*Model_Space
340
22
 70
     0
280
     1
281
     0
  0
BLOCK_RECORD
  5
1B
330
1
100
AcDbSymbolTableRecord
100
AcDbBlockTableRecord
  2
*Paper_Space
340
1E
 70
     0
280
     1
281
     0
  0
BLOCK_RECORD
  5
23
330
1
100
AcDbSymbolTableRecord
100
AcDbBlockTableRecord
  2
*Paper_Space0
340
26
 70
     0
280
     1
281
     0
  0
ENDTAB
  0
ENDSEC
  0
SECTION
  2
BLOCKS
  0
BLOCK
  5
20
330
1F
100
AcDbEntity
  8
0
100
AcDbBlockBegin
  2
*Model_Space
 70
     0
 10
0.0
 20
0.0
 30
0.0
  3
*Model_Space
  1

  0
ENDBLK
  5
21
330
1F
100
AcDbEntity
  8
0
100
AcDbBlockEnd
  0
BLOCK
  5
1C
330
1B
100
AcDbEntity
 67
     1
  8
0
100
AcDbBlockBegin
  2
*Paper_Space
 70
     0
 10
0.0
 20
0.0
 30
0.0
  3
*Paper_Space
  1

  0
ENDBLK
  5
1D
330
1B
100
AcDbEntity
 67
     1
  8
0
100
AcDbBlockEnd
  0
BLOCK
  5
24
330
23
100
AcDbEntity
 67
     1
  8
0
100
AcDbBlockBegin
  2
*Paper_Space0
 70
     0
 10
0.0
 20
0.0
 30
0.0
  3
*Paper_Space0
  1

  0
ENDBLK
  5
25
330
23
100
AcDbEntity
 67
     1
  8
0
100
AcDbBlockEnd
  0
ENDSEC
  0
SECTION
  2
ENTITIES
  0
LINE
  5
45
330
1F
100
AcDbEntity
  8
0
  6
Continuous
 62
     7
370
    15
100
AcDbLine
 10
63.64458768898382
 20
298.6117513441409
 30
0.0
 11
66.77257984215154
 21
298.6117513441409
 31
0.0
  0
LINE
  5
46
330
1F
100
AcDbEntity
  8
0
  6
Continuous
 62
     7
370
    15
100
AcDbLine
 10
48.92927377754583
 20
327.2135616802539
 30
0.0
 11
48.92927377754583
 21
325.0589580797519
 31
0.0
  0
LINE
  5
47
330
1F
100
AcDbEntity
  8
0
  6
Continuous
 62
     7
370
    15
100
AcDbLine
 10
102.2564765744818
 20
299.3289516829814
 30
0.0
 11
84.51247184807195
 21
299.3289516829814
 31
0.0
  0
SPLINE
  5
48
330
1F
100
AcDbEntity
  8
0
  6
Continuous
 62
     7
370
    15
100
AcDbSpline
210
0.0
220
0.0
230
1.0
 70
     8
 71
     3
 72
    11
 73
     7
 74
     0
 42
0.0000000001
 43
0.0000000001
 40
0.0
 40
0.0
 40
0.0
 40
0.0
 40
0.2837108666390949
 40
0.5579285936004005
 40
0.7750464427773155
 40
1.0
 40
1.0
 40
1.0
 40
1.0
 10
116.150289469303
 20
274.3309573792781
 30
0.0
 10
116.1223470337524
 20
274.5466800460935
 30
0.0
 10
116.0673971336898
 20
274.9709071669288
 30
0.0
 10
115.6807446705395
 20
275.4419280016722
 30
0.0
 10
115.2082093504862
 20
275.7273117541027
 30
0.0
 10
114.8730253903882
 20
275.7614052828794
 30
0.0
 10
114.7024628453864
 20
275.7787542008723
 30
0.0
  0
SPLINE
  5
49
330
1F
100
AcDbEntity
  8
0
  6
Continuous
 62
     7
370
    15
100
AcDbSpline
210
0.0
220
0.0
230
1.0
 70
     8
 71
     3
 72
    11
 73
     7
 74
     0
 42
0.0000000001
 43
0.0000000001
 40
0.0
 40
0.0
 40
0.0
 40
0.0
 40
0.2837108666390949
 40
0.5579285936004005
 40
0.7750464427773155
 40
1.0
 40
1.0
 40
1.0
 40
1.0
 10
116.150289469303
 20
333.6696536802615
 30
0.0
 10
116.1223470337524
 20
333.8853763470769
 30
0.0
 10
116.0673971336898
 20
334.3096034679123
 30
0.0
 10
115.6807446705395
 20
334.7806243026557
 30
0.0
 10
115.2082093504862
 20
335.0660080550861
 30
0.0
 10
114.8730253903882
 20
335.1001015838629
 30
0.0
 10
114.7024628453864
 20
335.1174505018557
 30
0.0
  0
SPLINE
  5
4A
330
1F
100
AcDbEntity
  8
0
  6
Continuous
 62
     7
370
    15
100
AcDbSpline
210
0.0
220
0.0
230
1.0
 70
     8
 71
     3
 72
    11
 73
     7
 74
     0
 42
0.0000000001
 43
0.0000000001
 40
0.0
 40
0.0
 40
0.0
 40
0.0
 40
0.2837050948876603
 40
0.5579200592756698
 40
0.7750357211250956
 40
1.0
 40
1.0
 40
1.0
 40
1.0
 10
24.66046779686346
 20
333.6696536802615
 30
0.0
 10
24.6325375954575
 20
333.8853768316425
 30
0.0
 10
24.57761147708723
 20
334.3096070466595
 30
0.0
 10
24.19095128264479
 20
334.7806238649005
 30
0.0
 10
23.71840917662585
 20
335.0660135396883
 30
0.0
 10
23.38321417378034
 20
335.1001031075429
 30
0.0
 10
23.21264117294683
 20
335.1174505018557
 30
0.0
  0
SPLINE
  5
4B
330
1F
100
AcDbEntity
  8
0
  6
Continuous
 62
     7
370
    15
100
AcDbSpline
210
0.0
220
0.0
230
1.0
 70
     8
 71
     3
 72
    11
 73
     7
 74
     0
 42
0.0000000001
 43
0.0000000001
 40
0.0
 40
0.0
 40
0.0
 40
0.0
 40
0.2837050948876603
 40
0.5579200592756698
 40
0.7750357211250956
 40
1.0
 40
1.0
 40
1.0
 40
1.0
 10
24.66046779686346
 20
274.3309573792781
 30
0.0
 10
24.6325375954575
 20
274.5466805306591
 30
0.0
 10
24.57761147708723
 20
274.9709107456761
 30
0.0
 10
24.19095128264479
 20
275.4419275639171
 30
0.0
 10
23.71840917662585
 20
275.7273172387049
 30
0.0
 10
23.38321417378034
 20
275.7614068065594
 30
0.0
 10
23.21264117294683
 20
275.7787542008723
 30
0.0
  0
LINE
  5
4C
330
1F
100
AcDbEntity
  8
0
  6
Continuous
 62
     7
370
    15
100
AcDbLine
 10
42.79258816772832
 20
322.9443491958941
 30
0.0
 11
42.79258816772832
 21
318.8803555034961
 31
0.0
  0
LINE
  5
4D
330
1F
100
AcDbEntity
  8
0
  6
Continuous
 62
     7
370
    15
100
AcDbLine
 10
100.5684730344428
 20
285.7861579918231
 30
0.0
 11
102.6844677262915
 21
285.7861579918231
 31
0.0
  0
LINE
  5
4E
330
1F
100
AcDbEntity
  8
0
  6
Continuous
 62
     7
370
    15
100
AcDbLine
 10
48.92927377754583
 20
325.0589580797519
 30
0.0
 11
79.94046776825323
 21
325.0589580797519
 31
0.0
  0
LINE
  5
4F
330
1F
100
AcDbEntity
  8
0
  6
Continuous
 62
     7
370
    15
100
AcDbLine
 10
79.94046776825323
 20
325.0589580797519
 30
0.0
 11
79.94046776825323
 21
319.3440498375262
 31
0.0
  0
LINE
  5
50
330
1F
100
AcDbEntity
  8
0
  6
Continuous
 62
     7
370
    15
100
AcDbLine
 10
79.94046776825323
 20
319.3440498375262
 30
0.0
 11
104.0344831281317
 21
319.3440498375262
 31
0.0
  0
LINE
  5
51
330
1F
100
AcDbEntity
  8
0
  6
Continuous
 62
     7
370
    15
100
AcDbLine
 10
104.0344831281317
 20
319.059154536661
 30
0.0
 11
104.0344831281317
 21
319.3440498375262
 31
0.0
  0
LINE
  5
52
330
1F
100
AcDbEntity
  8
0
  6
Continuous
 62
     7
370
    15
100
AcDbLine
 10
109.6223887735022
 20
319.059154536661
 30
0.0
 11
104.0344831281317
 21
319.059154536661
 31
0.0
  0
LINE
  5
53
330
1F
100
AcDbEntity
  8
0
  6
Continuous
 62
     7
370
    15
100
AcDbLine
 10
109.6223887735022
 20
325.6939561628665
 30
0.0
 11
109.6223887735022
 21
319.059154536661
 31
0.0
  0
LINE
  5
54
330
1F
100
AcDbEntity
  8
0
  6
Continuous
 62
     7
370
    15
100
AcDbLine
 10
109.6224781804694
 20
332.8689546846713
 30
0.0
 11
109.6223887735022
 21
325.6939561628665
 31
0.0
  0
LINE
  5
55
330
1F
100
AcDbEntity
  8
0
  6
Continuous
 62
     7
370
    15
100
AcDbLine
 10
109.6224781804694
 20
332.8689546846713
 30
0.0
 11
48.92927377754583
 21
332.8689546846713
 31
0.0
  0
LINE
  5
56
330
1F
100
AcDbEntity
  8
0
  6
Continuous
 62
     7
370
    15
100
AcDbLine
 10
48.92927377754583
 20
330.5917592310275
 30
0.0
 11
48.92927377754583
 21
332.8689546846713
 31
0.0
  0
SPLINE
  5
57
330
1F
100
AcDbEntity
  8
0
  6
Continuous
 62
     7
370
    15
100
AcDbSpline
210
0.0
220
0.0
230
1.0
 70
     8
 71
     3
 72
     9
 73
     5
 74
     0
 42
0.0000000001
 43
0.0000000001
 40
0.0
 40
0.0
 40
0.0
 40
0.0
 40
0.5603670747369246
 40
1.0
 40
1.0
 40
1.0
 40
1.0
 10
48.92927377754578
 20
330.5917592310275
 30
0.0
 10
48.75750515558177
 20
330.5819082846959
 30
0.0
 10
48.45097640022153
 20
330.5643288322695
 30
0.0
 10
48.1658775591234
 20
330.4520429621744
 30
0.0
 10
48.04053872162237
 20
330.4026783966388
 30
0.0
  0
SPLINE
  5
58
330
1F
100
AcDbEntity
  8
0
  6
Continuous
 62
     7
370
    15
100
AcDbSpline
210
0.0
220
0.0
230
1.0
 70
     8
 71
     3
 72
     8
 73
     4
 74
     0
 42
0.0000000001
 43
0.0000000001
 40
0.3125005546083433
 40
0.3125005546083433
 40
0.3125005546083433
 40
0.3125005546083433
 40
0.375
 40
0.375
 40
0.375
 40
0.375
 10
48.04054057068044
 20
330.402674267083
 30
0.0
 10
47.61827010185001
 20
330.2135975892829
 30
0.0
 10
47.24017681213751
 20
329.8354460231126
 30
0.0
 10
47.24017681213751
 20
328.9026543005313
 30
0.0
  0
SPLINE
  5
59
330
1F
100
AcDbEntity
  8
0
  6
Continuous
 62
     7
370
    15
100
AcDbSpline
210
0.0
220
0.0
230
1.0
 70
     8
 71
     3
 72
     9
 73
     5
 74
     0
 42
0.0000000001
 43
0.0000000001
 40
0.0
 40
0.0
 40
0.0
 40
0.0
 40
0.5603841199863967
 40
1.0
 40
1.0
 40
1.0
 40
1.0
 10
47.24016755157836
 20
328.9026530050601
 30
0.0
 10
47.25003975175016
 20
328.730885672214
 30
0.0
 10
47.26765659673168
 20
328.4243685409822
 30
0.0
 10
47.37991340956651
 20
328.1392677051394
 30
0.0
 10
47.42926328712835
 20
328.0139328502978
 30
0.0
  0
SPLINE
  5
5A
330
1F
100
AcDbEntity
  8
0
  6
Continuous
 62
     7
370
    15
100
AcDbSpline
210
0.0
220
0.0
230
1.0
 70
     8
 71
     3
 72
    11
 73
     7
 74
     0
 42
0.0000000001
 43
0.0000000001
 40
0.0
 40
0.0
 40
0.0
 40
0.0
 40
0.2202028162377438
 40
0.4649752286584376
 40
0.7002326838508385
 40
1.0
 40
1.0
 40
1.0
 40
1.0
 10
47.42926328712829
 20
328.0139328502979
 30
0.0
 10
47.4923416944614
 20
327.8959213869609
 30
0.0
 10
47.62553661618948
 20
327.6467310810105
 30
0.0
 10
47.97427044516131
 20
327.3859107372912
 30
0.0
 10
48.42474328159727
 20
327.235074238772
 30
0.0
 10
48.74810081849148
 20
327.2212866719339
 30
0.0
 10
48.92927377754578
 20
327.2135616802539
 30
0.0
  0
LINE
  5
5B
330
1F
100
AcDbEntity
  8
0
  6
Continuous
 62
     7
370
    15
100
AcDbLine
 10
102.2564765744818
 20
317.5660581850375
 30
0.0
 11
102.2564765744818
 21
299.3289516829814
 31
0.0
  0
LINE
  5
5C
330
1F
100
AcDbEntity
  8
0
  6
Continuous
 62
     7
370
    15
100
AcDbLine
 10
102.2564765744818
 20
317.5660581850375
 30
0.0
 11
70.28856843048467
 21
317.5660581850375
 31
0.0
  0
LINE
  5
5D
330
1F
100
AcDbEntity
  8
0
  6
Continuous
 62
     7
370
    15
100
AcDbLine
 10
70.28856843048467
 20
317.5660581850375
 30
0.0
 11
70.28856843048467
 21
297.3417551779117
 31
0.0
  0
LINE
  5
5E
330
1F
100
AcDbEntity
  8
0
  6
Continuous
 62
     7
370
    15
100
AcDbLine
 10
84.51247184807195
 20
297.3417551779117
 30
0.0
 11
70.28856843048467
 21
297.3417551779117
 31
0.0
  0
LINE
  5
5F
330
1F
100
AcDbEntity
  8
0
  6
Continuous
 62
     7
370
    15
100
AcDbLine
 10
84.51247184807195
 20
299.3289516829814
 30
0.0
 11
84.51247184807195
 21
297.3417551779117
 31
0.0
  0
LINE
  5
60
330
1F
100
AcDbEntity
  8
0
  6
Continuous
 62
     7
370
    15
100
AcDbLine
 10
114.7024628453864
 20
275.7787542008723
 30
0.0
 11
114.7023734384192
 21
275.7787542008723
 31
0.0
  0
SPLINE
  5
61
330
1F
100
AcDbEntity
  8
0
  6
Continuous
 62
     7
370
    15
100
AcDbSpline
210
0.0
220
0.0
230
1.0
 70
     8
 71
     3
 72
     8
 73
     4
 74
     0
 42
0.0000000001
 43
0.0000000001
 40
0.25
 40
0.25
 40
0.25
 40
0.25
 40
0.3125
 40
0.3125
 40
0.3125
 40
0.3125
 10
114.7023768121375
 20
275.7787543005312
 30
0.0
 10
114.4358434788042
 20
275.7787209671979
 30
0.0
 10
114.1819351454708
 20
275.7246876338646
 30
0.0
 10
113.9406518121375
 20
275.6166543005313
 30
0.0
  0
SPLINE
  5
62
330
1F
100
AcDbEntity
  8
0
  6
Continuous
 62
     7
370
    15
100
AcDbSpline
210
0.0
220
0.0
230
1.0
 70
     8
 71
     3
 72
    11
 73
     7
 74
     0
 42
0.0000000001
 43
0.0000000001
 40
0.0
 40
0.0
 40
0.0
 40
0.0
 40
0.2202031721910927
 40
0.4649577781949754
 40
0.7002191523294497
 40
0.9999999999999998
 40
0.9999999999999998
 40
0.9999999999999998
 40
0.9999999999999998
 10
113.9406558805121
 20
275.616651918825
 30
0.0
 10
113.8395022107037
 20
275.5625882256627
 30
0.0
 10
113.6259167972768
 20
275.4484330370537
 30
0.0
 10
113.4024026715712
 20
275.1494985496715
 30
0.0
 10
113.2731256634695
 20
274.7633892082757
 30
0.0
 10
113.2612947893744
 20
274.4862224162604
 30
0.0
 10
113.2546660237921
 20
274.3309275769557
 30
0.0
  0
LINE
  5
63
330
1F
100
AcDbEntity
  8
0
  6
Continuous
 62
     7
370
    15
100
AcDbLine
 10
113.2546660237921
 20
274.3309275769557
 30
0.0
 11
113.2546660237921
 21
274.3308530711497
 31
0.0
  0
SPLINE
  5
64
330
1F
100
AcDbEntity
  8
0
  6
Continuous
 62
     7
370
    15
100
AcDbSpline
210
0.0
220
0.0
230
1.0
 70
     8
 71
     3
 72
     9
 73
     5
 74
     0
 42
0.0000000001
 43
0.0000000001
 40
0.0
 40
0.0
 40
0.0
 40
0.0
 40
0.560376956133442
 40
1.0
 40
1.0
 40
1.0
 40
1.0
 10
113.2546660237921
 20
274.3308530711497
 30
0.0
 10
113.263099248995
 20
274.1836331664735
 30
0.0
 10
113.2781484495565
 20
273.9209173230312
 30
0.0
 10
113.374349463428
 20
273.6765552576503
 30
0.0
 10
113.4166416459693
 20
273.569128062662
 30
0.0
  0
SPLINE
  5
65
330
1F
100
AcDbEntity
  8
0
  6
Continuous
 62
     7
370
    15
100
AcDbSpline
210
0.0
220
0.0
230
1.0
 70
     8
 71
     3
 72
    11
 73
     7
 74
     0
 42
0.0000000001
 43
0.0000000001
 40
0.0
 40
0.0
 40
0.0
 40
0.0
 40
0.2201908476383337
 40
0.4649609931226764
 40
0.7002297732304442
 40
1.0
 40
1.0
 40
1.0
 40
1.0
 10
113.4166416459693
 20
273.569128062662
 30
0.0
 10
113.4707081476967
 20
273.467984634915
 30
0.0
 10
113.584876445823
 20
273.2544074171627
 30
0.0
 10
113.8837925394213
 20
273.0308598975677
 30
0.0
 10
114.2699205061047
 20
272.9016036215079
 30
0.0
 10
114.5470846510387
 20
272.8897784709159
 30
0.0
 10
114.7023734384192
 20
272.8831531071032
 30
0.0
  0
SPLINE
  5
66
330
1F
100
AcDbEntity
  8
0
  6
Continuous
 62
     7
370
    15
100
AcDbSpline
210
0.0
220
0.0
230
1.0
 70
     8
 71
     3
 72
     8
 73
     4
 74
     0
 42
0.0000000001
 43
0.0000000001
 40
0.75
 40
0.75
 40
0.75
 40
0.75
 40
0.875
 40
0.875
 40
0.875
 40
0.875
 10
114.7023768121375
 20
272.8831543005312
 30
0.0
 10
114.9689101454708
 20
272.8831543005312
 30
0.0
 10
115.2228268121375
 20
272.9371709671979
 30
0.0
 10
115.4641268121375
 20
273.0452043005312
 30
0.0
  0
SPLINE
  5
67
330
1F
100
AcDbEntity
  8
0
  6
Continuous
 62
     7
370
    15
100
AcDbSpline
210
0.0
220
0.0
230
1.0
 70
     8
 71
     3
 72
    11
 73
     7
 74
     0
 42
0.0000000001
 43
0.0000000001
 40
0.0
 40
0.0
 40
0.0
 40
0.0
 40
0.2202080132531235
 40
0.464982109761861
 40
0.7002393795031644
 40
0.9999999999999998
 40
0.9999999999999998
 40
0.9999999999999998
 40
0.9999999999999998
 10
115.4641207986487
 20
273.0452032350863
 30
0.0
 10
115.5652829294726
 20
273.0992701761882
 30
0.0
 10
115.7788926901874
 20
273.213435687109
 30
0.0
 10
116.0024619590505
 20
273.5123710223531
 30
0.0
 10
116.1317655044588
 20
273.8984963711202
 30
0.0
 10
116.1436376986544
 20
274.1756649532285
 30
0.0
 10
116.150289469303
 20
274.3309573792781
 30
0.0
  0
LINE
  5
68
330
1F
100
AcDbEntity
  8
0
  6
Continuous
 62
     7
370
    15
100
AcDbLine
 10
114.7024628453864
 20
335.1174505018557
 30
0.0
 11
114.7023734384192
 21
335.1174505018557
 31
0.0
  0
SPLINE
  5
69
330
1F
100
AcDbEntity
  8
0
  6
Continuous
 62
     7
370
    15
100
AcDbSpline
210
0.0
220
0.0
230
1.0
 70
     8
 71
     3
 72
     8
 73
     4
 74
     0
 42
0.0000000001
 43
0.0000000001
 40
0.25
 40
0.25
 40
0.25
 40
0.25
 40
0.3125
 40
0.3125
 40
0.3125
 40
0.3125
 10
114.7023768121375
 20
335.1174543005312
 30
0.0
 10
114.4358434788042
 20
335.1174209671979
 30
0.0
 10
114.1819351454708
 20
335.0633876338646
 30
0.0
 10
113.9406518121375
 20
334.9553543005313
 30
0.0
  0
SPLINE
  5
6A
330
1F
100
AcDbEntity
  8
0
  6
Continuous
 62
     7
370
    15
100
AcDbSpline
210
0.0
220
0.0
230
1.0
 70
     8
 71
     3
 72
    11
 73
     7
 74
     0
 42
0.0000000001
 43
0.0000000001
 40
0.0
 40
0.0
 40
0.0
 40
0.0
 40
0.2202023371375595
 40
0.4649598071798142
 40
0.7002202891571058
 40
1.0
 40
1.0
 40
1.0
 40
1.0
 10
113.940655880512
 20
334.9553556703891
 30
0.0
 10
113.8395019074381
 20
334.9012921986858
 30
0.0
 10
113.625914111653
 20
334.787136546637
 30
0.0
 10
113.4024047202799
 20
334.4881956476596
 30
0.0
 10
113.27312520052
 20
334.1020858615751
 30
0.0
 10
113.2612946231315
 20
333.8249188437588
 30
0.0
 10
113.2546660237921
 20
333.6696238779391
 30
0.0
  0
LINE
  5
6B
330
1F
100
AcDbEntity
  8
0
  6
Continuous
 62
     7
370
    15
100
AcDbLine
 10
113.2546660237921
 20
333.6696238779391
 30
0.0
 11
113.2546660237921
 21
333.6695493721332
 31
0.0
  0
SPLINE
  5
6C
330
1F
100
AcDbEntity
  8
0
  6
Continuous
 62
     7
370
    15
100
AcDbSpline
210
0.0
220
0.0
230
1.0
 70
     8
 71
     3
 72
     9
 73
     5
 74
     0
 42
0.0000000001
 43
0.0000000001
 40
0.0
 40
0.0
 40
0.0
 40
0.0
 40
0.5603728016523193
 40
1.0
 40
1.0
 40
1.0
 40
1.0
 10
113.2546660237921
 20
333.6695493721332
 30
0.0
 10
113.2630995352011
 20
333.5223320069427
 30
0.0
 10
113.2781493580762
 20
333.2596187475621
 30
0.0
 10
113.3743494632507
 20
333.0152590037758
 30
0.0
 10
113.4166416459693
 20
332.907831814226
 30
0.0
  0
SPLINE
  5
6D
330
1F
100
AcDbEntity
  8
0
  6
Continuous
 62
     7
370
    15
100
AcDbSpline
210
0.0
220
0.0
230
1.0
 70
     8
 71
     3
 72
    11
 73
     7
 74
     0
 42
0.0000000001
 43
0.0000000001
 40
0.0
 40
0.0
 40
0.0
 40
0.0
 40
0.2201943755238787
 40
0.4649639105529668
 40
0.7002305208555671
 40
1.0
 40
1.0
 40
1.0
 40
1.0
 10
113.4166416459693
 20
332.907831814226
 30
0.0
 10
113.4707077515878
 20
332.8066857693452
 30
0.0
 10
113.5848741004648
 20
332.5931051070197
 30
0.0
 10
113.8837912063903
 20
332.3695543430685
 30
0.0
 10
114.2699222663791
 20
332.2403101667687
 30
0.0
 10
114.5470849886589
 20
332.2284832382294
 30
0.0
 10
114.7023734384192
 20
332.2218568586673
 30
0.0
  0
SPLINE
  5
6E
330
1F
100
AcDbEntity
  8
0
  6
Continuous
 62
     7
370
    15
100
AcDbSpline
210
0.0
220
0.0
230
1.0
 70
     8
 71
     3
 72
     8
 73
     4
 74
     0
 42
0.0000000001
 43
0.0000000001
 40
0.75
 40
0.75
 40
0.75
 40
0.75
 40
0.875
 40
0.875
 40
0.875
 40
0.875
 10
114.7023768121375
 20
332.2218543005313
 30
0.0
 10
114.9689101454708
 20
332.2218543005313
 30
0.0
 10
115.2228268121375
 20
332.2758709671979
 30
0.0
 10
115.4641268121375
 20
332.3839043005313
 30
0.0
  0
SPLINE
  5
6F
330
1F
100
AcDbEntity
  8
0
  6
Continuous
 62
     7
370
    15
100
AcDbSpline
210
0.0
220
0.0
230
1.0
 70
     8
 71
     3
 72
    11
 73
     7
 74
     0
 42
0.0000000001
 43
0.0000000001
 40
0.0
 40
0.0
 40
0.0
 40
0.0
 40
0.2202060742513198
 40
0.464980856700575
 40
0.7002433297237572
 40
1.0
 40
1.0
 40
1.0
 40
1.0
 10
115.4641207986487
 20
332.3839069866504
 30
0.0
 10
115.5652830862941
 20
332.4379711134632
 30
0.0
 10
115.7788944834141
 20
332.5521313794216
 30
0.0
 10
116.0024637222277
 20
332.8510695229887
 30
0.0
 10
116.1317634584876
 20
333.2371956465251
 30
0.0
 10
116.1436370301388
 20
333.5143638669741
 30
0.0
 10
116.1502894693029
 20
333.6696536802616
 30
0.0
  0
LINE
  5
70
330
1F
100
AcDbEntity
  8
0
  6
Continuous
 62
     7
370
    15
100
AcDbLine
 10
23.21264117294683
 20
335.1174505018557
 30
0.0
 11
23.21258156830205
 21
335.1174505018557
 31
0.0
  0
SPLINE
  5
71
330
1F
100
AcDbEntity
  8
0
  6
Continuous
 62
     7
370
    15
100
AcDbSpline
210
0.0
220
0.0
230
1.0
 70
     8
 71
     3
 72
     8
 73
     4
 74
     0
 42
0.0000000001
 43
0.0000000001
 40
0.25
 40
0.25
 40
0.25
 40
0.25
 40
0.3124990785265906
 40
0.3124990785265906
 40
0.3124990785265906
 40
0.3124990785265906
 10
23.21257681213748
 20
335.1174543005312
 30
0.0
 10
22.94604740845826
 20
335.1174209676894
 30
0.0
 10
22.69214263250649
 20
335.0633892271418
 30
0.0
 10
22.45086248428222
 20
334.9553590788886
 30
0.0
  0
SPLINE
  5
72
330
1F
100
AcDbEntity
  8
0
  6
Continuous
 62
     7
370
    15
100
AcDbSpline
210
0.0
220
0.0
230
1.0
 70
     8
 71
     3
 72
    11
 73
     7
 74
     0
 42
0.0000000001
 43
0.0000000001
 40
0.0
 40
0.0
 40
0.0
 40
0.0
 40
0.220201121913635
 40
0.4649690921034361
 40
0.7002219435422566
 40
1.0
 40
1.0
 40
1.0
 40
1.0
 10
22.45086401039495
 20
334.9553556703891
 30
0.0
 10
22.34971269891548
 20
334.9012903807552
 30
0.0
 10
22.13612507931154
 20
334.7871279804147
 30
0.0
 10
21.91257127700005
 20
334.4882123269319
 30
0.0
 10
21.78334656420347
 20
334.1020770338769
 30
0.0
 10
21.77150755552224
 20
333.8249168516991
 30
0.0
 10
21.76487415367498
 20
333.6696238779391
 30
0.0
  0
LINE
  5
73
330
1F
100
AcDbEntity
  8
0
  6
Continuous
 62
     7
370
    15
100
AcDbLine
 10
21.76487415367498
 20
333.6696238779391
 30
0.0
 11
21.76487415367498
 21
333.6695493721332
 31
0.0
  0
SPLINE
  5
74
330
1F
100
AcDbEntity
  8
0
  6
Continuous
 62
     7
370
    15
100
AcDbSpline
210
0.0
220
0.0
230
1.0
 70
     8
 71
     3
 72
     8
 73
     4
 74
     0
 42
0.0000000001
 43
0.0000000001
 40
0.5
 40
0.5
 40
0.5
 40
0.5
 40
0.5625
 40
0.5625
 40
0.5625
 40
0.5625
 10
21.76487681213754
 20
333.6695543005312
 30
0.0
 10
21.76484347880428
 20
333.4030209671979
 30
0.0
 10
21.81883514547092
 20
333.1491126338646
 30
0.0
 10
21.92685181213752
 20
332.9078293005313
 30
0.0
  0
SPLINE
  5
75
330
1F
100
AcDbEntity
  8
0
  6
Continuous
 62
     7
370
    15
100
AcDbSpline
210
0.0
220
0.0
230
1.0
 70
     8
 71
     3
 72
     8
 73
     4
 74
     0
 42
0.0000000001
 43
0.0000000001
 40
0.5625
 40
0.5625
 40
0.5625
 40
0.5625
 40
0.625
 40
0.625
 40
0.625
 40
0.625
 10
21.92685181213752
 20
332.9078293005313
 30
0.0
 10
22.08887681213753
 20
332.5459043005313
 30
0.0
 10
22.41297681213753
 20
332.2218543005313
 30
0.0
 10
23.21257681213748
 20
332.2218543005313
 30
0.0
  0
SPLINE
  5
76
330
1F
100
AcDbEntity
  8
0
  6
Continuous
 62
     7
370
    15
100
AcDbSpline
210
0.0
220
0.0
230
1.0
 70
     8
 71
     3
 72
     8
 73
     4
 74
     0
 42
0.0000000001
 43
0.0000000001
 40
0.75
 40
0.75
 40
0.75
 40
0.75
 40
0.875
 40
0.875
 40
0.875
 40
0.875
 10
23.21257681213748
 20
332.2218543005313
 30
0.0
 10
23.47911014547086
 20
332.2218543005313
 30
0.0
 10
23.73302681213754
 20
332.2758709671979
 30
0.0
 10
23.97432681213754
 20
332.3839043005313
 30
0.0
  0
SPLINE
  5
77
330
1F
100
AcDbEntity
  8
0
  6
Continuous
 62
     7
370
    15
100
AcDbSpline
210
0.0
220
0.0
230
1.0
 70
     8
 71
     3
 72
     8
 73
     4
 74
     0
 42
0.0000000001
 43
0.0000000001
 40
0.875
 40
0.875
 40
0.875
 40
0.875
 40
1.0
 40
1.0
 40
1.0
 40
1.0
 10
23.97432681213754
 20
332.3839043005313
 30
0.0
 10
24.33627681213749
 20
332.5459543005313
 30
0.0
 10
24.66037681213754
 20
332.8700543005313
 30
0.0
 10
24.66047681213748
 20
333.6696543005313
 30
0.0
  0
LINE
  5
78
330
1F
100
AcDbEntity
  8
0
  6
Continuous
 62
     7
370
    15
100
AcDbLine
 10
23.21264117294683
 20
275.7787542008723
 30
0.0
 11
23.21258156830205
 21
275.7787542008723
 31
0.0
  0
SPLINE
  5
79
330
1F
100
AcDbEntity
  8
0
  6
Continuous
 62
     7
370
    15
100
AcDbSpline
210
0.0
220
0.0
230
1.0
 70
     8
 71
     3
 72
     8
 73
     4
 74
     0
 42
0.0000000001
 43
0.0000000001
 40
0.25
 40
0.25
 40
0.25
 40
0.25
 40
0.3124991993418062
 40
0.3124991993418062
 40
0.3124991993418062
 40
0.3124991993418062
 10
23.21257681213748
 20
275.7787543005312
 30
0.0
 10
22.94604689323773
 20
275.778720967625
 30
0.0
 10
22.6921416508741
 20
275.7246890182471
 30
0.0
 10
22.45086108504671
 20
275.6166584523978
 30
0.0
  0
SPLINE
  5
7A
330
1F
100
AcDbEntity
  8
0
  6
Continuous
 62
     7
370
    15
100
AcDbSpline
210
0.0
220
0.0
230
1.0
 70
     8
 71
     3
 72
    11
 73
     7
 74
     0
 42
0.0000000001
 43
0.0000000001
 40
0.0
 40
0.0
 40
0.0
 40
0.0
 40
0.2202019569175205
 40
0.4649670632632416
 40
0.7002208067821901
 40
1.0
 40
1.0
 40
1.0
 40
1.0
 10
22.45086401039495
 20
275.616651918825
 30
0.0
 10
22.34971300218539
 20
275.5625864076924
 30
0.0
 10
22.13612776483456
 20
275.4484244706822
 30
0.0
 10
21.91256922856547
 20
275.1495152290423
 30
0.0
 10
21.78334702716159
 20
274.7633803805391
 30
0.0
 10
21.77150772176958
 20
274.4862204241859
 30
0.0
 10
21.76487415367498
 20
274.3309275769557
 30
0.0
  0
LINE
  5
7B
330
1F
100
AcDbEntity
  8
0
  6
Continuous
 62
     7
370
    15
100
AcDbLine
 10
21.76487415367498
 20
274.3309275769557
 30
0.0
 11
21.76487415367498
 21
274.3308530711497
 31
0.0
  0
SPLINE
  5
7C
330
1F
100
AcDbEntity
  8
0
  6
Continuous
 62
     7
370
    15
100
AcDbSpline
210
0.0
220
0.0
230
1.0
 70
     8
 71
     3
 72
     8
 73
     4
 74
     0
 42
0.0000000001
 43
0.0000000001
 40
0.5
 40
0.5
 40
0.5
 40
0.5
 40
0.5625
 40
0.5625
 40
0.5625
 40
0.5625
 10
21.76487681213754
 20
274.3308543005313
 30
0.0
 10
21.76484347880428
 20
274.0643209671979
 30
0.0
 10
21.81883514547092
 20
273.8104126338646
 30
0.0
 10
21.92685181213752
 20
273.5691293005312
 30
0.0
  0
SPLINE
  5
7D
330
1F
100
AcDbEntity
  8
0
  6
Continuous
 62
     7
370
    15
100
AcDbSpline
210
0.0
220
0.0
230
1.0
 70
     8
 71
     3
 72
     8
 73
     4
 74
     0
 42
0.0000000001
 43
0.0000000001
 40
0.5625
 40
0.5625
 40
0.5625
 40
0.5625
 40
0.625
 40
0.625
 40
0.625
 40
0.625
 10
21.92685181213752
 20
273.5691293005312
 30
0.0
 10
22.08887681213753
 20
273.2072043005313
 30
0.0
 10
22.41297681213753
 20
272.8831543005312
 30
0.0
 10
23.21257681213748
 20
272.8831543005312
 30
0.0
  0
SPLINE
  5
7E
330
1F
100
AcDbEntity
  8
0
  6
Continuous
 62
     7
370
    15
100
AcDbSpline
210
0.0
220
0.0
230
1.0
 70
     8
 71
     3
 72
     8
 73
     4
 74
     0
 42
0.0000000001
 43
0.0000000001
 40
0.75
 40
0.75
 40
0.75
 40
0.75
 40
0.875
 40
0.875
 40
0.875
 40
0.875
 10
23.21257681213748
 20
272.8831543005312
 30
0.0
 10
23.47911014547086
 20
272.8831543005312
 30
0.0
 10
23.73302681213754
 20
272.9371709671979
 30
0.0
 10
23.97432681213754
 20
273.0452043005312
 30
0.0
  0
SPLINE
  5
7F
330
1F
100
AcDbEntity
  8
0
  6
Continuous
 62
     7
370
    15
100
AcDbSpline
210
0.0
220
0.0
230
1.0
 70
     8
 71
     3
 72
     8
 73
     4
 74
     0
 42
0.0000000001
 43
0.0000000001
 40
0.875
 40
0.875
 40
0.875
 40
0.875
 40
1.0
 40
1.0
 40
1.0
 40
1.0
 10
23.97432681213754
 20
273.0452043005312
 30
0.0
 10
24.33627681213749
 20
273.2072543005313
 30
0.0
 10
24.66037681213754
 20
273.5313543005313
 30
0.0
 10
24.66047681213748
 20
274.3309543005312
 30
0.0
  0
LINE
  5
80
330
1F
100
AcDbEntity
  8
0
  6
Continuous
 62
     7
370
    15
100
AcDbLine
 10
47.74558513695135
 20
318.8803555034961
 30
0.0
 11
42.79258816772832
 21
318.8803555034961
 31
0.0
  0
LINE
  5
81
330
1F
100
AcDbEntity
  8
0
  6
Continuous
 62
     7
370
    15
100
AcDbLine
 10
47.74558513695135
 20
318.8803555034961
 30
0.0
 11
47.74558513695135
 21
301.5404553675021
 31
0.0
  0
LINE
  5
82
330
1F
100
AcDbEntity
  8
0
  6
Continuous
 62
     7
370
    15
100
AcDbLine
 10
68.25658648544683
 20
301.5404553675021
 30
0.0
 11
47.74558513695135
 21
301.5404553675021
 31
0.0
  0
LINE
  5
83
330
1F
100
AcDbEntity
  8
0
  6
Continuous
 62
     7
370
    15
100
AcDbLine
 10
68.25658648544683
 20
306.8743558191623
 30
0.0
 11
68.25658648544683
 21
301.5404553675021
 31
0.0
  0
LINE
  5
84
330
1F
100
AcDbEntity
  8
0
  6
Continuous
 62
     7
370
    15
100
AcDbLine
 10
68.25658648544683
 20
306.8743558191623
 30
0.0
 11
63.17657201820745
 21
306.8743558191623
 31
0.0
  0
LINE
  5
85
330
1F
100
AcDbEntity
  8
0
  6
Continuous
 62
     7
370
    15
100
AcDbLine
 10
63.17657201820745
 20
322.9443491958941
 30
0.0
 11
63.17657201820745
 21
306.8743558191623
 31
0.0
  0
LINE
  5
86
330
1F
100
AcDbEntity
  8
0
  6
Continuous
 62
     7
370
    15
100
AcDbLine
 10
63.17657201820745
 20
322.9443491958941
 30
0.0
 11
42.79258816772832
 21
322.9443491958941
 31
0.0
  0
LINE
  5
87
330
1F
100
AcDbEntity
  8
0
  6
Continuous
 62
     7
370
    15
100
AcDbLine
 10
102.6844677262915
 20
285.7861579918231
 30
0.0
 11
102.6844677262915
 21
283.2730548047389
 31
0.0
  0
LINE
  5
88
330
1F
100
AcDbEntity
  8
0
  6
Continuous
 62
     7
370
    15
100
AcDbLine
 10
109.6224781804694
 20
283.2730548047389
 30
0.0
 11
102.6844677262915
 21
283.2730548047389
 31
0.0
  0
LINE
  5
89
330
1F
100
AcDbEntity
  8
0
  6
Continuous
 62
     7
370
    15
100
AcDbLine
 10
109.6224781804694
 20
316.7731524967517
 30
0.0
 11
109.6224781804694
 21
283.2730548047389
 31
0.0
  0
LINE
  5
8A
330
1F
100
AcDbEntity
  8
0
  6
Continuous
 62
     7
370
    15
100
AcDbLine
 10
104.0344831281317
 20
316.7731524967517
 30
0.0
 11
109.6224781804694
 21
316.7731524967517
 31
0.0
  0
LINE
  5
8B
330
1F
100
AcDbEntity
  8
0
  6
Continuous
 62
     7
370
    15
100
AcDbLine
 10
104.0344831281317
 20
316.7731524967517
 30
0.0
 11
104.0344831281317
 21
296.1793528460826
 31
0.0
  0
LINE
  5
8C
330
1F
100
AcDbEntity
  8
0
  6
Continuous
 62
     7
370
    15
100
AcDbLine
 10
104.0344831281317
 20
296.1793528460826
 30
0.0
 11
97.86227315002813
 21
296.1793528460826
 31
0.0
  0
LINE
  5
8D
330
1F
100
AcDbEntity
  8
0
  6
Continuous
 62
     7
370
    15
100
AcDbLine
 10
97.86227315002813
 20
296.1793528460826
 30
0.0
 11
97.86227315002813
 21
288.0513580107058
 31
0.0
  0
LINE
  5
8E
330
1F
100
AcDbEntity
  8
0
  6
Continuous
 62
     7
370
    15
100
AcDbLine
 10
97.86227315002813
 20
288.0513580107058
 30
0.0
 11
100.5684730344428
 21
288.0513580107058
 31
0.0
  0
LINE
  5
8F
330
1F
100
AcDbEntity
  8
0
  6
Continuous
 62
     7
370
    15
100
AcDbLine
 10
100.5684730344428
 20
288.0513580107058
 30
0.0
 11
100.5684730344428
 21
285.7861579918231
 31
0.0
  0
LINE
  5
90
330
1F
100
AcDbEntity
  8
0
  6
Continuous
 62
     7
370
    15
100
AcDbLine
 10
63.64458768898382
 20
298.6117513441409
 30
0.0
 11
63.64458768898382
 21
296.4604558014239
 31
0.0
  0
LINE
  5
91
330
1F
100
AcDbEntity
  8
0
  6
Continuous
 62
     7
370
    15
100
AcDbLine
 10
49.85728829437627
 20
296.4604558014239
 30
0.0
 11
63.64458768898382
 21
296.4604558014239
 31
0.0
  0
LINE
  5
92
330
1F
100
AcDbEntity
  8
0
  6
Continuous
 62
     7
370
    15
100
AcDbLine
 10
49.85728829437627
 20
285.7101546191539
 30
0.0
 11
49.85728829437627
 21
296.4604558014239
 31
0.0
  0
LINE
  5
93
330
1F
100
AcDbEntity
  8
0
  6
Continuous
 62
     7
370
    15
100
AcDbLine
 10
48.58726232582464
 20
285.7101546191539
 30
0.0
 11
49.85728829437627
 21
285.7101546191539
 31
0.0
  0
LINE
  5
94
330
1F
100
AcDbEntity
  8
0
  6
Continuous
 62
     7
370
    15
100
AcDbLine
 10
48.58726232582464
 20
285.7101546191539
 30
0.0
 11
48.58726232582464
 21
282.408154156145
 31
0.0
  0
LINE
  5
95
330
1F
100
AcDbEntity
  8
0
  6
Continuous
 62
     7
370
    15
100
AcDbLine
 10
48.58726232582464
 20
282.408154156145
 30
0.0
 11
52.14327543312444
 21
282.408154156145
 31
0.0
  0
LINE
  5
96
330
1F
100
AcDbEntity
  8
0
  6
Continuous
 62
     7
370
    15
100
AcDbLine
 10
52.14327543312444
 20
282.408154156145
 30
0.0
 11
52.14327543312444
 21
273.8875509762134
 31
0.0
  0
LINE
  5
97
330
1F
100
AcDbEntity
  8
0
  6
Continuous
 62
     7
370
    15
100
AcDbLine
 10
52.14327543312444
 20
273.8875509762134
 30
0.0
 11
41.9032868676795
 21
270.5209539794291
 31
0.0
  0
LINE
  5
98
330
1F
100
AcDbEntity
  8
0
  6
Continuous
 62
     7
370
    15
100
AcDbLine
 10
41.9032868676795
 20
270.5209539794291
 30
0.0
 11
23.21258156830205
 21
270.5209539794291
 31
0.0
  0
SPLINE
  5
99
330
1F
100
AcDbEntity
  8
0
  6
Continuous
 62
     7
370
    15
100
AcDbSpline
210
0.0
220
0.0
230
1.0
 70
     8
 71
     3
 72
     8
 73
     4
 74
     0
 42
0.0000000001
 43
0.0000000001
 40
0.3333333333333333
 40
0.3333333333333333
 40
0.3333333333333333
 40
0.3333333333333333
 40
0.4166666666666666
 40
0.4166666666666666
 40
0.4166666666666666
 40
0.4166666666666666
 10
23.21257681213748
 20
270.5209543005312
 30
0.0
 10
22.87594347880409
 20
270.5207543005312
 30
0.0
 10
22.54275181213753
 20
270.5539793005312
 30
0.0
 10
22.2130018121375
 20
270.6206293005313
 30
0.0
  0
SPLINE
  5
9A
330
1F
100
AcDbEntity
  8
0
  6
Continuous
 62
     7
370
    15
100
AcDbSpline
210
0.0
220
0.0
230
1.0
 70
     8
 71
     3
 72
     8
 73
     4
 74
     0
 42
0.0000000001
 43
0.0000000001
 40
0.4166666666666666
 40
0.4166666666666666
 40
0.4166666666666666
 40
0.4166666666666666
 40
0.5
 40
0.5
 40
0.5
 40
0.5
 10
22.2130018121375
 20
270.6206293005313
 30
0.0
 10
21.71837681213753
 20
270.7206043005312
 30
0.0
 10
21.23407681213754
 20
270.9208543005312
 30
0.0
 10
20.51955181213752
 20
271.6344543005312
 30
0.0
  0
LINE
  5
9B
330
1F
100
AcDbEntity
  8
0
  6
Continuous
 62
     7
370
    15
100
AcDbLine
 10
20.51955431038274
 20
271.63445070022
 30
0.0
 11
20.51946490341558
 21
271.63445070022
 31
0.0
  0
SPLINE
  5
9C
330
1F
100
AcDbEntity
  8
0
  6
Continuous
 62
     7
370
    15
100
AcDbSpline
210
0.0
220
0.0
230
1.0
 70
     8
 71
     3
 72
     9
 73
     5
 74
     0
 42
0.0000000001
 43
0.0000000001
 40
0.0
 40
0.0
 40
0.0
 40
0.0
 40
0.5596781928987343
 40
1.0
 40
1.0
 40
1.0
 40
1.0
 10
20.51946490341558
 20
271.63445070022
 30
0.0
 10
20.39013716495561
 20
271.7711068880176
 30
0.0
 10
20.15906198621739
 20
272.0152761079935
 30
0.0
 10
19.96752377273
 20
272.2913643783481
 30
0.0
 10
19.88318532043828
 20
272.4129320644702
 30
0.0
  0
SPLINE
  5
9D
330
1F
100
AcDbEntity
  8
0
  6
Continuous
 62
     7
370
    15
100
AcDbSpline
210
0.0
220
0.0
230
1.0
 70
     8
 71
     3
 72
     8
 73
     4
 74
     0
 42
0.0000000001
 43
0.0000000001
 40
0.8333333333333332
 40
0.8333333333333332
 40
0.8333333333333332
 40
0.8333333333333332
 40
1.0
 40
1.0
 40
1.0
 40
1.0
 10
19.8831768121375
 20
272.4129293005313
 30
0.0
 10
19.60412681213755
 20
272.8346043005312
 30
0.0
 10
19.40327681213752
 20
273.3211543005313
 30
0.0
 10
19.4026768121375
 20
274.3309543005312
 30
0.0
  0
LINE
  5
9E
330
1F
100
AcDbEntity
  8
0
  6
Continuous
 62
     7
370
    15
100
AcDbLine
 10
19.40268247658147
 20
278.3441530131663
 30
0.0
 11
19.40268247658147
 21
274.3309573792781
 31
0.0
  0
LINE
  5
9F
330
1F
100
AcDbEntity
  8
0
  6
Continuous
 62
     7
370
    15
100
AcDbLine
 10
19.40268247658147
 20
278.3441530131663
 30
0.0
 11
45.04257410103216
 21
278.3441530131663
 31
0.0
  0
LINE
  5
A0
330
1F
100
AcDbEntity
  8
0
  6
Continuous
 62
     7
370
    15
100
AcDbLine
 10
45.04257410103216
 20
278.3441530131663
 30
0.0
 11
45.04257410103216
 21
282.408154156145
 31
0.0
  0
LINE
  5
A1
330
1F
100
AcDbEntity
  8
0
  6
Continuous
 62
     7
370
    15
100
AcDbLine
 10
45.04257410103216
 20
282.408154156145
 30
0.0
 11
46.68226807648077
 21
282.408154156145
 31
0.0
  0
LINE
  5
A2
330
1F
100
AcDbEntity
  8
0
  6
Continuous
 62
     7
370
    15
100
AcDbLine
 10
46.68226807648077
 20
282.408154156145
 30
0.0
 11
46.68226807648077
 21
294.3439544700946
 31
0.0
  0
LINE
  5
A3
330
1F
100
AcDbEntity
  8
0
  6
Continuous
 62
     7
370
    15
100
AcDbLine
 10
23.64256947571172
 20
294.3439544700946
 30
0.0
 11
46.68226807648077
 21
294.3439544700946
 31
0.0
  0
LINE
  5
A4
330
1F
100
AcDbEntity
  8
0
  6
Continuous
 62
     7
370
    15
100
AcDbLine
 10
23.64256947571172
 20
297.8501529955233
 30
0.0
 11
23.64256947571172
 21
294.3439544700946
 31
0.0
  0
LINE
  5
A5
330
1F
100
AcDbEntity
  8
0
  6
Continuous
 62
     7
370
    15
100
AcDbLine
 10
45.33258050018682
 20
297.8501529955233
 30
0.0
 11
23.64256947571172
 21
297.8501529955233
 31
0.0
  0
LINE
  5
A6
330
1F
100
AcDbEntity
  8
0
  6
Continuous
 62
     7
370
    15
100
AcDbLine
 10
45.33258050018682
 20
297.8501529955233
 30
0.0
 11
45.33258050018682
 21
300.9816543721522
 31
0.0
  0
LINE
  5
A7
330
1F
100
AcDbEntity
  8
0
  6
Continuous
 62
     7
370
    15
100
AcDbLine
 10
45.07857530647649
 20
300.9816543721522
 30
0.0
 11
45.33258050018682
 21
300.9816543721522
 31
0.0
  0
LINE
  5
A8
330
1F
100
AcDbEntity
  8
0
  6
Continuous
 62
     7
370
    15
100
AcDbLine
 10
45.07857530647649
 20
303.5216541551913
 30
0.0
 11
45.07857530647649
 21
300.9816543721522
 31
0.0
  0
LINE
  5
A9
330
1F
100
AcDbEntity
  8
0
  6
Continuous
 62
     7
370
    15
100
AcDbLine
 10
40.29259055191412
 20
303.5216541551913
 30
0.0
 11
45.07857530647649
 21
303.5216541551913
 31
0.0
  0
LINE
  5
AA
330
1F
100
AcDbEntity
  8
0
  6
Continuous
 62
     7
370
    15
100
AcDbLine
 10
40.29259055191412
 20
303.5216541551913
 30
0.0
 11
40.29259055191412
 21
311.9698525928821
 31
0.0
  0
LINE
  5
AB
330
1F
100
AcDbEntity
  8
0
  6
Continuous
 62
     7
370
    15
100
AcDbLine
 10
23.64256947571172
 20
311.9698525928821
 30
0.0
 11
40.29259055191412
 21
311.9698525928821
 31
0.0
  0
LINE
  5
AC
330
1F
100
AcDbEntity
  8
0
  6
Continuous
 62
     7
370
    15
100
AcDbLine
 10
23.64256947571172
 20
315.6301589273776
 30
0.0
 11
23.64256947571172
 21
311.9698525928821
 31
0.0
  0
LINE
  5
AD
330
1F
100
AcDbEntity
  8
0
  6
Continuous
 62
     7
370
    15
100
AcDbLine
 10
23.64256947571172
 20
315.6301589273776
 30
0.0
 11
40.29259055191412
 21
315.6301589273776
 31
0.0
  0
LINE
  5
AE
330
1F
100
AcDbEntity
  8
0
  6
Continuous
 62
     7
370
    15
100
AcDbLine
 10
40.29259055191412
 20
315.6301589273776
 30
0.0
 11
40.29259055191412
 21
326.8492580913867
 31
0.0
  0
LINE
  5
AF
330
1F
100
AcDbEntity
  8
0
  6
Continuous
 62
     7
370
    15
100
AcDbLine
 10
44.73757713371648
 20
326.8492580913867
 30
0.0
 11
40.29259055191412
 21
326.8492580913867
 31
0.0
  0
LINE
  5
B0
330
1F
100
AcDbEntity
  8
0
  6
Continuous
 62
     7
370
    15
100
AcDbLine
 10
44.73757713371648
 20
326.8492580913867
 30
0.0
 11
44.73757713371648
 21
332.2339566015567
 31
0.0
  0
LINE
  5
B1
330
1F
100
AcDbEntity
  8
0
  6
Continuous
 62
     7
370
    15
100
AcDbLine
 10
44.73757713371648
 20
332.2339566015567
 30
0.0
 11
31.65656297737493
 21
332.2339566015567
 31
0.0
  0
LINE
  5
B2
330
1F
100
AcDbEntity
  8
0
  6
Continuous
 62
     7
370
    15
100
AcDbLine
 10
31.65656297737493
 20
332.2339566015567
 30
0.0
 11
31.65656297737493
 21
331.0402543806399
 31
0.0
  0
LINE
  5
B3
330
1F
100
AcDbEntity
  8
0
  6
Continuous
 62
     7
370
    15
100
AcDbLine
 10
31.65656297737493
 20
331.0402543806399
 30
0.0
 11
19.40268247658147
 21
331.0402543806399
 31
0.0
  0
LINE
  5
B4
330
1F
100
AcDbEntity
  8
0
  6
Continuous
 62
     7
370
    15
100
AcDbLine
 10
19.40268247658147
 20
333.6696536802615
 30
0.0
 11
19.40268247658147
 21
331.0402543806399
 31
0.0
  0
SPLINE
  5
B5
330
1F
100
AcDbEntity
  8
0
  6
Continuous
 62
     7
370
    15
100
AcDbSpline
210
0.0
220
0.0
230
1.0
 70
     8
 71
     3
 72
     8
 73
     4
 74
     0
 42
0.0000000001
 43
0.0000000001
 40
0.8055557702924753
 40
0.8055557702924753
 40
0.8055557702924753
 40
0.8055557702924753
 40
0.8333333333333333
 40
0.8333333333333333
 40
0.8333333333333333
 40
0.8333333333333333
 10
19.88134534459765
 20
335.5834195571544
 30
0.0
 10
19.60247371220738
 20
335.163296839766
 30
0.0
 10
19.40197681754893
 20
334.6807464841933
 30
0.0
 10
19.4026768121375
 20
333.6696543005313
 30
0.0
  0
SPLINE
  5
B6
330
1F
100
AcDbEntity
  8
0
  6
Continuous
 62
     7
370
    15
100
AcDbSpline
210
0.0
220
0.0
230
1.0
 70
     8
 71
     3
 72
     9
 73
     5
 74
     0
 42
0.0000000001
 43
0.0000000001
 40
0.0
 40
0.0
 40
0.0
 40
0.0
 40
0.5601642170032238
 40
1.0
 40
1.0
 40
1.0
 40
1.0
 10
20.5174681478156
 20
336.3612504267062
 30
0.0
 10
20.38821270270489
 20
336.2244771574863
 30
0.0
 10
20.15746707278546
 20
335.9803107772207
 30
0.0
 10
19.96568860777156
 20
335.7046640205842
 30
0.0
 10
19.88133757645024
 20
335.5834247135486
 30
0.0
  0
LINE
  5
B7
330
1F
100
AcDbEntity
  8
0
  6
Continuous
 62
     7
370
    15
100
AcDbLine
 10
20.51755755478277
 20
336.3613249325122
 30
0.0
 11
20.5174681478156
 21
336.3612504267062
 31
0.0
  0
SPLINE
  5
B8
330
1F
100
AcDbEntity
  8
0
  6
Continuous
 62
     7
370
    15
100
AcDbSpline
210
0.0
220
0.0
230
1.0
 70
     8
 71
     3
 72
     8
 73
     4
 74
     0
 42
0.0000000001
 43
0.0000000001
 40
0.6944444444444445
 40
0.6944444444444445
 40
0.6944444444444445
 40
0.6944444444444445
 40
0.7222222222222223
 40
0.7222222222222223
 40
0.7222222222222223
 40
0.7222222222222223
 10
22.2118518121375
 20
337.3785543005313
 30
0.0
 10
21.71672681213752
 20
337.2778543005312
 30
0.0
 10
21.23207681213754
 20
337.0767543005313
 30
0.0
 10
20.51755181213752
 20
336.3613293005313
 30
0.0
  0
SPLINE
  5
B9
330
1F
100
AcDbEntity
  8
0
  6
Continuous
 62
     7
370
    15
100
AcDbSpline
210
0.0
220
0.0
230
1.0
 70
     8
 71
     3
 72
     8
 73
     4
 74
     0
 42
0.0000000001
 43
0.0000000001
 40
0.6666666666666666
 40
0.6666666666666666
 40
0.6666666666666666
 40
0.6666666666666666
 40
0.6944444444444445
 40
0.6944444444444445
 40
0.6944444444444445
 40
0.6944444444444445
 10
23.21257681213748
 20
337.4795543005312
 30
0.0
 10
22.87551014547082
 20
337.4793543005313
 30
0.0
 10
22.54193514547084
 20
337.4456876338646
 30
0.0
 10
22.2118518121375
 20
337.3785543005313
 30
0.0
  0
SPLINE
  5
BA
330
1F
100
AcDbEntity
  8
0
  6
Continuous
 62
     7
370
    15
100
AcDbSpline
210
0.0
220
0.0
230
1.0
 70
     8
 71
     3
 72
     8
 73
     4
 74
     0
 42
0.0000000001
 43
0.0000000001
 40
0.6423863207086919
 40
0.6423863207086919
 40
0.6423863207086919
 40
0.6423863207086919
 40
0.6666666666666666
 40
0.6666666666666666
 40
0.6666666666666666
 40
0.6666666666666666
 10
23.21264132981662
 20
337.4796541009337
 30
0.0
 10
23.21261501401847
 20
337.4796527152603
 30
0.0
 10
23.21257681213748
 20
337.4796417097767
 30
0.0
 10
23.21257681213748
 20
337.4795543005312
 30
0.0
  0
LINE
  5
BB
330
1F
100
AcDbEntity
  8
0
  6
Continuous
 62
     7
370
    15
100
AcDbLine
 10
114.7024628453864
 20
337.4796570801104
 30
0.0
 11
23.21264117294683
 21
337.4796570801104
 31
0.0
  0
SPLINE
  5
BC
330
1F
100
AcDbEntity
  8
0
  6
Continuous
 62
     7
370
    15
100
AcDbSpline
210
0.0
220
0.0
230
1.0
 70
     8
 71
     3
 72
    11
 73
     7
 74
     0
 42
0.0000000001
 43
0.0000000001
 40
0.0
 40
0.0
 40
0.0
 40
0.0
 40
0.2165227464266082
 40
0.4636849639807789
 40
0.7024093367253789
 40
1.0
 40
1.0
 40
1.0
 40
1.0
 10
116.6161891751898
 20
337.0008827709521
 30
0.0
 10
116.4926255621403
 20
337.0767190593141
 30
0.0
 10
116.2280132273544
 20
337.2391229970892
 30
0.0
 10
115.7777509888521
 20
337.3851527996325
 30
0.0
 10
115.2598865713958
 20
337.4682116403814
 30
0.0
 10
114.9013871320157
 20
337.4755726182782
 30
0.0
 10
114.7024628453863
 20
337.4796570801105
 30
0.0
  0
SPLINE
  5
BD
330
1F
100
AcDbEntity
  8
0
  6
Continuous
 62
     7
370
    15
100
AcDbSpline
210
0.0
220
0.0
230
1.0
 70
     8
 71
     3
 72
     8
 73
     4
 74
     0
 42
0.0000000001
 43
0.0000000001
 40
0.4444444444444445
 40
0.4444444444444445
 40
0.4444444444444445
 40
0.4444444444444445
 40
0.4722219913794205
 40
0.4722219913794205
 40
0.4722219913794205
 40
0.4722219913794205
 10
117.3939768121375
 20
336.3647543005313
 30
0.0
 10
117.1555101454708
 20
336.6029209671979
 30
0.0
 10
116.8962434788041
 20
336.8149626338646
 30
0.0
 10
116.6161768121375
 20
337.0008793005313
 30
0.0
  0
LINE
  5
BE
330
1F
100
AcDbEntity
  8
0
  6
Continuous
 62
     7
370
    15
100
AcDbLine
 10
117.3940595918311
 20
336.3647521995868
 30
0.0
 11
117.3939701848639
 21
336.3647521995868
 31
0.0
  0
SPLINE
  5
BF
330
1F
100
AcDbEntity
  8
0
  6
Continuous
 62
     7
370
    15
100
AcDbSpline
210
0.0
220
0.0
230
1.0
 70
     8
 71
     3
 72
     8
 73
     4
 74
     0
 42
0.0000000001
 43
0.0000000001
 40
0.3611111111111111
 40
0.3611111111111111
 40
0.3611111111111111
 40
0.3611111111111111
 40
0.3888888888888889
 40
0.3888888888888889
 40
0.3888888888888889
 40
0.3888888888888889
 10
118.4113018121375
 20
334.6703543005312
 30
0.0
 10
118.3105768121375
 20
335.1655043005313
 30
0.0
 10
118.1094768121375
 20
335.6502543005313
 30
0.0
 10
117.3940518121375
 20
336.3647543005313
 30
0.0
  0
SPLINE
  5
C0
330
1F
100
AcDbEntity
  8
0
  6
Continuous
 62
     7
370
    15
100
AcDbSpline
210
0.0
220
0.0
230
1.0
 70
     8
 71
     3
 72
     8
 73
     4
 74
     0
 42
0.0000000001
 43
0.0000000001
 40
0.3333333333333333
 40
0.3333333333333333
 40
0.3333333333333333
 40
0.3333333333333333
 40
0.3611111111111111
 40
0.3611111111111111
 40
0.3611111111111111
 40
0.3611111111111111
 10
118.5124768121375
 20
333.6696543005313
 30
0.0
 10
118.5121768121375
 20
334.0066876338646
 30
0.0
 10
118.4784518121374
 20
334.3402543005313
 30
0.0
 10
118.4113018121375
 20
334.6703543005312
 30
0.0
  0
LINE
  5
C1
330
1F
100
AcDbEntity
  8
0
  6
Continuous
 62
     7
370
    15
100
AcDbLine
 10
118.5124811463965
 20
274.3309573792781
 30
0.0
 11
118.5124811463965
 21
333.6696536802615
 31
0.0
  0
SPLINE
  5
C2
330
1F
100
AcDbEntity
  8
0
  6
Continuous
 62
     7
370
    15
100
AcDbSpline
210
0.0
220
0.0
230
1.0
 70
     8
 71
     3
 72
     8
 73
     4
 74
     0
 42
0.0000000001
 43
0.0000000001
 40
0.1388888888888889
 40
0.1388888888888889
 40
0.1388888888888889
 40
0.1388888888888889
 40
0.1666666666666666
 40
0.1666666666666666
 40
0.1666666666666666
 40
0.1666666666666666
 10
118.0336268121375
 20
272.4171543005312
 30
0.0
 10
118.3125268121375
 20
272.8373043005313
 30
0.0
 10
118.5130768121375
 20
273.3198543005312
 30
0.0
 10
118.5124768121375
 20
274.3309543005312
 30
0.0
  0
SPLINE
  5
C3
330
1F
100
AcDbEntity
  8
0
  6
Continuous
 62
     7
370
    15
100
AcDbSpline
210
0.0
220
0.0
230
1.0
 70
     8
 71
     3
 72
     8
 73
     4
 74
     0
 42
0.0000000001
 43
0.0000000001
 40
0.1111113454799968
 40
0.1111113454799968
 40
0.1111113454799968
 40
0.1111113454799968
 40
0.1388888888888889
 40
0.1388888888888889
 40
0.1388888888888889
 40
0.1388888888888889
 10
117.3974768121375
 20
271.6392543005313
 30
0.0
 10
117.6356434788042
 20
271.8777543005313
 30
0.0
 10
117.8476934788042
 20
272.1370543005313
 30
0.0
 10
118.0336268121375
 20
272.4171543005312
 30
0.0
  0
SPLINE
  5
C4
330
1F
100
AcDbEntity
  8
0
  6
Continuous
 62
     7
370
    15
100
AcDbSpline
210
0.0
220
0.0
230
1.0
 70
     8
 71
     3
 72
    11
 73
     7
 74
     0
 42
0.0000000001
 43
0.0000000001
 40
0.0
 40
0.0
 40
0.0
 40
0.0
 40
0.2810186108073173
 40
0.5594418109776767
 40
0.7786923664039093
 40
1.0
 40
1.0
 40
1.0
 40
1.0
 10
114.7024628453864
 20
270.5209539794291
 30
0.0
 10
114.9831301131014
 20
270.5389156830405
 30
0.0
 10
115.5418724828029
 20
270.5746732009063
 30
0.0
 10
116.280153098437
 20
270.8404516595162
 30
0.0
 10
116.9073516673796
 20
271.195110278019
 30
0.0
 10
117.2336006818709
 20
271.4907475073524
 30
0.0
 10
117.3974868589057
 20
271.639256324705
 30
0.0
  0
LINE
  5
C5
330
1F
100
AcDbEntity
  8
0
  6
Continuous
 62
     7
370
    15
100
AcDbLine
 10
104.4624742799414
 20
273.8875509762134
 30
0.0
 11
114.7024628453864
 21
270.5209539794291
 31
0.0
  0
LINE
  5
C6
330
1F
100
AcDbEntity
  8
0
  6
Continuous
 62
     7
370
    15
100
AcDbLine
 10
104.4624742799414
 20
281.2903509997691
 30
0.0
 11
104.4624742799414
 21
273.8875509762134
 31
0.0
  0
LINE
  5
C7
330
1F
100
AcDbEntity
  8
0
  6
Continuous
 62
     7
370
    15
100
AcDbLine
 10
104.4624742799414
 20
281.2903509997691
 30
0.0
 11
95.57247131401434
 21
281.2903509997691
 31
0.0
  0
LINE
  5
C8
330
1F
100
AcDbEntity
  8
0
  6
Continuous
 62
     7
370
    15
100
AcDbLine
 10
95.57247131401434
 20
281.2903509997691
 30
0.0
 11
95.57247131401434
 21
273.8875509762134
 31
0.0
  0
LINE
  5
C9
330
1F
100
AcDbEntity
  8
0
  6
Continuous
 62
     7
370
    15
100
AcDbLine
 10
95.57247131401434
 20
273.8875509762134
 30
0.0
 11
85.66647737556829
 21
273.8875509762134
 31
0.0
  0
LINE
  5
CA
330
1F
100
AcDbEntity
  8
0
  6
Continuous
 62
     7
370
    15
100
AcDbLine
 10
85.66647737556829
 20
273.8875509762134
 30
0.0
 11
85.66647737556829
 21
276.8709571623172
 31
0.0
  0
LINE
  5
CB
330
1F
100
AcDbEntity
  8
0
  6
Continuous
 62
     7
370
    15
100
AcDbLine
 10
92.62606471115484
 20
276.8709571623172
 30
0.0
 11
85.66647737556829
 21
276.8709571623172
 31
0.0
  0
LINE
  5
CC
330
1F
100
AcDbEntity
  8
0
  6
Continuous
 62
     7
370
    15
100
AcDbLine
 10
92.62606471115484
 20
283.2730548047389
 30
0.0
 11
92.62606471115484
 21
276.8709571623172
 31
0.0
  0
LINE
  5
CD
330
1F
100
AcDbEntity
  8
0
  6
Continuous
 62
     7
370
    15
100
AcDbLine
 10
98.36646884018316
 20
283.2730548047389
 30
0.0
 11
92.62606471115484
 21
283.2730548047389
 31
0.0
  0
LINE
  5
CE
330
1F
100
AcDbEntity
  8
0
  6
Continuous
 62
     7
370
    15
100
AcDbLine
 10
98.36646884018316
 20
282.2570563816394
 30
0.0
 11
98.36646884018316
 21
283.2730548047389
 31
0.0
  0
LINE
  5
CF
330
1F
100
AcDbEntity
  8
0
  6
Continuous
 62
     7
370
    15
100
AcDbLine
 10
100.2939936452521
 20
282.2570563816394
 30
0.0
 11
98.36646884018316
 21
282.2570563816394
 31
0.0
  0
LINE
  5
D0
330
1F
100
AcDbEntity
  8
0
  6
Continuous
 62
     7
370
    15
100
AcDbLine
 10
100.2939936452521
 20
283.2730548047389
 30
0.0
 11
100.2939936452521
 21
282.2570563816394
 31
0.0
  0
LINE
  5
D1
330
1F
100
AcDbEntity
  8
0
  6
Continuous
 62
     7
370
    15
100
AcDbLine
 10
100.2939936452521
 20
283.2730548047389
 30
0.0
 11
99.63646500641241
 21
285.7861579918231
 31
0.0
  0
LINE
  5
D2
330
1F
100
AcDbEntity
  8
0
  6
Continuous
 62
     7
370
    15
100
AcDbLine
 10
99.63646500641241
 20
285.7861579918231
 30
0.0
 11
99.63646500641241
 21
286.0193537139262
 31
0.0
  0
LINE
  5
D3
330
1F
100
AcDbEntity
  8
0
  6
Continuous
 62
     7
370
    15
100
AcDbLine
 10
95.83029120499029
 20
286.0193537139262
 30
0.0
 11
99.63646500641241
 21
286.0193537139262
 31
0.0
  0
LINE
  5
D4
330
1F
100
AcDbEntity
  8
0
  6
Continuous
 62
     7
370
    15
100
AcDbLine
 10
95.83029120499029
 20
296.1793528460826
 30
0.0
 11
95.83029120499029
 21
286.0193537139262
 31
0.0
  0
LINE
  5
D5
330
1F
100
AcDbEntity
  8
0
  6
Continuous
 62
     7
370
    15
100
AcDbLine
 10
95.83029120499029
 20
296.1793528460826
 30
0.0
 11
86.79848878914251
 21
296.1793528460826
 31
0.0
  0
LINE
  5
D6
330
1F
100
AcDbEntity
  8
0
  6
Continuous
 62
     7
370
    15
100
AcDbLine
 10
86.79848878914251
 20
290.965756919321
 30
0.0
 11
86.79848878914251
 21
296.1793528460826
 31
0.0
  0
LINE
  5
D7
330
1F
100
AcDbEntity
  8
0
  6
Continuous
 62
     7
370
    15
100
AcDbLine
 10
69.69118087822332
 20
290.965756919321
 30
0.0
 11
86.79848878914251
 21
290.965756919321
 31
0.0
  0
LINE
  5
D8
330
1F
100
AcDbEntity
  8
0
  6
Continuous
 62
     7
370
    15
100
AcDbLine
 10
69.69118087822332
 20
290.965756919321
 30
0.0
 11
69.69118087822332
 21
284.8443524503077
 31
0.0
  0
LINE
  5
D9
330
1F
100
AcDbEntity
  8
0
  6
Continuous
 62
     7
370
    15
100
AcDbLine
 10
69.69118087822332
 20
284.8443524503077
 30
0.0
 11
68.02257865005865
 21
284.8443524503077
 31
0.0
  0
LINE
  5
DA
330
1F
100
AcDbEntity
  8
0
  6
Continuous
 62
     7
370
    15
100
AcDbLine
 10
68.02257865005865
 20
284.8443524503077
 30
0.0
 11
68.02257865005865
 21
280.983550991949
 31
0.0
  0
LINE
  5
DB
330
1F
100
AcDbEntity
  8
0
  6
Continuous
 62
     7
370
    15
100
AcDbLine
 10
69.69118087822332
 20
280.983550991949
 30
0.0
 11
68.02257865005865
 21
280.983550991949
 31
0.0
  0
LINE
  5
DC
330
1F
100
AcDbEntity
  8
0
  6
Continuous
 62
     7
370
    15
100
AcDbLine
 10
69.69118087822332
 20
273.8875509762134
 30
0.0
 11
69.69118087822332
 21
280.983550991949
 31
0.0
  0
LINE
  5
DD
330
1F
100
AcDbEntity
  8
0
  6
Continuous
 62
     7
370
    15
100
AcDbLine
 10
69.69118087822332
 20
273.8875509762134
 30
0.0
 11
59.95947092110052
 21
273.8875509762134
 31
0.0
  0
LINE
  5
DE
330
1F
100
AcDbEntity
  8
0
  6
Continuous
 62
     7
370
    15
100
AcDbLine
 10
59.95947092110052
 20
273.8875509762134
 30
0.0
 11
59.95947092110052
 21
276.005154993471
 31
0.0
  0
LINE
  5
DF
330
1F
100
AcDbEntity
  8
0
  6
Continuous
 62
     7
370
    15
100
AcDbLine
 10
59.95947092110052
 20
276.005154993471
 30
0.0
 11
66.77257984215154
 21
276.005154993471
 31
0.0
  0
LINE
  5
E0
330
1F
100
AcDbEntity
  8
0
  6
Continuous
 62
     7
370
    15
100
AcDbLine
 10
66.77257984215154
 20
298.6117513441409
 30
0.0
 11
66.77257984215154
 21
276.005154993471
 31
0.0
  0
LINE
  5
E1
330
1F
100
AcDbEntity
  8
0
  6
Continuous
 62
     7
370
    15
100
AcDbLine
 10
109.6224046640133
 20
390.1204678646507
 30
0.0
 11
79.94050181955448
 21
390.1204678646507
 31
0.0
  0
LINE
  5
E2
330
1F
100
AcDbEntity
  8
0
  6
Continuous
 62
     7
370
    15
100
AcDbLine
 10
109.622501521561
 20
403.6453680551828
 30
0.0
 11
109.6224046640133
 21
390.1204678646507
 31
0.0
  0
LINE
  5
E3
330
1F
100
AcDbEntity
  8
0
  6
Continuous
 62
     7
370
    15
100
AcDbLine
 10
48.92930270657293
 20
403.6453680551828
 30
0.0
 11
109.622501521561
 21
403.6453680551828
 31
0.0
  0
LINE
  5
E4
330
1F
100
AcDbEntity
  8
0
  6
Continuous
 62
     7
370
    15
100
AcDbLine
 10
48.92930270657293
 20
395.8353677249732
 30
0.0
 11
48.92930270657293
 21
403.6453680551828
 31
0.0
  0
LINE
  5
E5
330
1F
100
AcDbEntity
  8
0
  6
Continuous
 62
     7
370
    15
100
AcDbLine
 10
79.94050181955448
 20
395.8353677249732
 30
0.0
 11
48.92930270657293
 21
395.8353677249732
 31
0.0
  0
LINE
  5
E6
330
1F
100
AcDbEntity
  8
0
  6
Continuous
 62
     7
370
    15
100
AcDbLine
 10
79.94050181955448
 20
390.1204678646507
 30
0.0
 11
79.94050181955448
 21
395.8353677249732
 31
0.0
  0
LINE
  5
E7
330
1F
100
AcDbEntity
  8
0
  6
Continuous
 62
     7
370
    15
100
AcDbLine
 10
70.28860201612464
 20
370.1053678474607
 30
0.0
 11
70.28860201612464
 21
388.3424678302588
 31
0.0
  0
LINE
  5
E8
330
1F
100
AcDbEntity
  8
0
  6
Continuous
 62
     7
370
    15
100
AcDbLine
 10
102.2565017782186
 20
370.1053678474607
 30
0.0
 11
70.28860201612464
 21
370.1053678474607
 31
0.0
  0
LINE
  5
E9
330
1F
100
AcDbEntity
  8
0
  6
Continuous
 62
     7
370
    15
100
AcDbLine
 10
102.2565017782186
 20
388.3424678302588
 30
0.0
 11
102.2565017782186
 21
370.1053678474607
 31
0.0
  0
LINE
  5
EA
330
1F
100
AcDbEntity
  8
0
  6
Continuous
 62
     7
370
    15
100
AcDbLine
 10
70.28860201612464
 20
388.3424678302588
 30
0.0
 11
102.2565017782186
 21
388.3424678302588
 31
0.0
  0
LINE
  5
EB
330
1F
100
AcDbEntity
  8
0
  6
Continuous
 62
     7
370
    15
100
AcDbLine
 10
61.36920185312979
 20
369.3881675086202
 30
0.0
 11
66.77260225192061
 21
369.3881675086202
 31
0.0
  0
LINE
  5
EC
330
1F
100
AcDbEntity
  8
0
  6
Continuous
 62
     7
370
    15
100
AcDbLine
 10
66.77260225192061
 20
346.7815683639826
 30
0.0
 11
61.36920185312979
 21
346.7815683639826
 31
0.0
  0
LINE
  5
ED
330
1F
100
AcDbEntity
  8
0
  6
Continuous
 62
     7
370
    15
100
AcDbLine
 10
66.77260225192061
 20
369.3881675086202
 30
0.0
 11
66.77260225192061
 21
346.7815683639826
 31
0.0
  0
LINE
  5
EE
330
1F
100
AcDbEntity
  8
0
  6
Continuous
 62
     7
370
    15
100
AcDbLine
 10
85.92050171941869
 20
344.6639662093701
 30
0.0
 11
85.92050171941869
 21
357.3639688498559
 31
0.0
  0
LINE
  5
EF
330
1F
100
AcDbEntity
  8
0
  6
Continuous
 62
     7
370
    15
100
AcDbLine
 10
85.92050171941869
 20
357.3639688498559
 30
0.0
 11
69.69120142534724
 21
357.3639688498559
 31
0.0
  0
LINE
  5
F0
330
1F
100
AcDbEntity
  8
0
  6
Continuous
 62
     7
370
    15
100
AcDbLine
 10
69.69120142534724
 20
357.3639688498559
 30
0.0
 11
69.69120142534724
 21
344.6639662093701
 31
0.0
  0
LINE
  5
F1
330
1F
100
AcDbEntity
  8
0
  6
Continuous
 62
     7
370
    15
100
AcDbLine
 10
69.69120142534724
 20
344.6639662093701
 30
0.0
 11
59.95950171277277
 21
344.6639662093701
 31
0.0
  0
LINE
  5
F2
330
1F
100
AcDbEntity
  8
0
  6
Continuous
 62
     7
370
    15
100
AcDbLine
 10
59.95950171277277
 20
344.6639662093701
 30
0.0
 11
59.95950171277277
 21
359.7134684629025
 31
0.0
  0
LINE
  5
F3
330
1F
100
AcDbEntity
  8
0
  6
Continuous
 62
     7
370
    15
100
AcDbLine
 10
59.95950171277277
 20
359.7134684629025
 30
0.0
 11
52.1433024995064
 21
359.7134684629025
 31
0.0
  0
LINE
  5
F4
330
1F
100
AcDbEntity
  8
0
  6
Continuous
 62
     7
370
    15
100
AcDbLine
 10
52.1433024995064
 20
359.7134684629025
 30
0.0
 11
52.1433024995064
 21
344.6639662093701
 31
0.0
  0
LINE
  5
F5
330
1F
100
AcDbEntity
  8
0
  6
Continuous
 62
     7
370
    15
100
AcDbLine
 10
52.1433024995064
 20
344.6639662093701
 30
0.0
 11
41.90330089554541
 21
341.2973692125859
 31
0.0
  0
LINE
  5
F6
330
1F
100
AcDbEntity
  8
0
  6
Continuous
 62
     7
370
    15
100
AcDbLine
 10
41.90330089554541
 20
341.2973692125859
 30
0.0
 11
23.21260304674856
 21
341.2973692125859
 31
0.0
  0
ARC
  5
F7
330
1F
100
AcDbEntity
  8
0
  6
Continuous
 62
     7
370
    15
100
AcDbCircle
 10
23.21260181213748
 20
345.1073679624786
 30
0.0
 40
3.810000000000002
100
AcDbArc
 50
179.5848776728113
 51
270.0000000000008
  0
LINE
  5
F8
330
1F
100
AcDbEntity
  8
0
  6
Continuous
 62
     7
370
    15
100
AcDbLine
 10
19.40270022973768
 20
345.1349732882561
 30
0.0
 11
19.40270022973768
 21
349.1205682463231
 31
0.0
  0
LINE
  5
F9
330
1F
100
AcDbEntity
  8
0
  6
Continuous
 62
     7
370
    15
100
AcDbLine
 10
19.40270022973768
 20
349.1205682463231
 30
0.0
 11
45.04260303005926
 21
349.1205682463231
 31
0.0
  0
LINE
  5
FA
330
1F
100
AcDbEntity
  8
0
  6
Continuous
 62
     7
370
    15
100
AcDbLine
 10
45.04260303005926
 20
349.1205682463231
 30
0.0
 11
45.04260303005926
 21
365.1203678406062
 31
0.0
  0
LINE
  5
FB
330
1F
100
AcDbEntity
  8
0
  6
Continuous
 62
     7
370
    15
100
AcDbLine
 10
45.04260303005926
 20
365.1203678406062
 30
0.0
 11
23.64260213002912
 21
365.1203678406062
 31
0.0
  0
LINE
  5
FC
330
1F
100
AcDbEntity
  8
0
  6
Continuous
 62
     7
370
    15
100
AcDbLine
 10
23.64260213002912
 20
365.1203678406062
 30
0.0
 11
23.64260213002912
 21
368.6265682286801
 31
0.0
  0
LINE
  5
FD
330
1F
100
AcDbEntity
  8
0
  6
Continuous
 62
     7
370
    15
100
AcDbLine
 10
23.64260213002912
 20
368.6265682286801
 30
0.0
 11
40.29260085448973
 21
368.6265682286801
 31
0.0
  0
LINE
  5
FE
330
1F
100
AcDbEntity
  8
0
  6
Continuous
 62
     7
370
    15
100
AcDbLine
 10
40.29260085448973
 20
368.6265682286801
 30
0.0
 11
40.29260085448973
 21
382.7462678260388
 31
0.0
  0
LINE
  5
FF
330
1F
100
AcDbEntity
  8
0
  6
Continuous
 62
     7
370
    15
100
AcDbLine
 10
40.29260085448973
 20
382.7462678260388
 30
0.0
 11
23.64260213002912
 21
382.7462678260388
 31
0.0
  0
LINE
  5
100
330
1F
100
AcDbEntity
  8
0
  6
Continuous
 62
     7
370
    15
100
AcDbLine
 10
23.64260213002912
 20
382.7462678260388
 30
0.0
 11
23.64260213002912
 21
386.4065676412763
 31
0.0
  0
LINE
  5
101
330
1F
100
AcDbEntity
  8
0
  6
Continuous
 62
     7
370
    15
100
AcDbLine
 10
23.64260213002912
 20
386.4065676412763
 30
0.0
 11
40.29260085448973
 21
386.4065676412763
 31
0.0
  0
LINE
  5
102
330
1F
100
AcDbEntity
  8
0
  6
Continuous
 62
     7
370
    15
100
AcDbLine
 10
40.29260085448973
 20
386.4065676412763
 30
0.0
 11
40.29260085448973
 21
401.8166677511515
 31
0.0
  0
LINE
  5
103
330
1F
100
AcDbEntity
  8
0
  6
Continuous
 62
     7
370
    15
100
AcDbLine
 10
40.29260085448973
 20
401.8166677511515
 30
0.0
 11
19.40270022973768
 21
401.8166677511515
 31
0.0
  0
LINE
  5
104
330
1F
100
AcDbEntity
  8
0
  6
Continuous
 62
     7
370
    15
100
AcDbLine
 10
19.40270022973768
 20
401.8166677511515
 30
0.0
 11
19.40270022973768
 21
404.4322667128624
 31
0.0
  0
ARC
  5
105
330
1F
100
AcDbEntity
  8
0
  6
Continuous
 62
     7
370
    15
100
AcDbCircle
 10
23.21267681213753
 20
404.4460679624785
 30
0.0
 40
3.810000000000059
100
AcDbArc
 50
90.0
 51
180.2075608230251
  0
LINE
  5
106
330
1F
100
AcDbEntity
  8
0
  6
Continuous
 62
     7
370
    15
100
AcDbLine
 10
23.21267755255453
 20
408.2560685879768
 30
0.0
 11
114.7025029502844
 21
408.2560685879768
 31
0.0
  0
ARC
  5
107
330
1F
100
AcDbEntity
  8
0
  6
Continuous
 62
     7
370
    15
100
AcDbCircle
 10
114.7025018121375
 20
404.4460679624785
 30
0.0
 40
3.810000000000002
100
AcDbArc
 50
0.0
 51
90.0
  0
LINE
  5
108
330
1F
100
AcDbEntity
  8
0
  6
Continuous
 62
     7
370
    15
100
AcDbLine
 10
118.512502624843
 20
404.4460670507731
 30
0.0
 11
118.512502624843
 21
345.1073688871445
 31
0.0
  0
ARC
  5
109
330
1F
100
AcDbEntity
  8
0
  6
Continuous
 62
     7
370
    15
100
AcDbCircle
 10
114.7025018121375
 20
345.1073679624786
 30
0.0
 40
3.810000000000002
100
AcDbArc
 50
270.0000000000008
 51
0.0
  0
LINE
  5
10A
330
1F
100
AcDbEntity
  8
0
  6
Continuous
 62
     7
370
    15
100
AcDbLine
 10
114.7025029502844
 20
341.2973692125859
 30
0.0
 11
104.4625013463234
 21
344.6639662093701
 31
0.0
  0
LINE
  5
10B
330
1F
100
AcDbEntity
  8
0
  6
Continuous
 62
     7
370
    15
100
AcDbLine
 10
104.4625013463234
 20
344.6639662093701
 30
0.0
 11
85.92050171941869
 21
344.6639662093701
 31
0.0
  0
LINE
  5
10C
330
1F
100
AcDbEntity
  8
0
  6
Continuous
 62
     7
370
    15
100
AcDbLine
 10
104.0345008812879
 20
387.5495677299084
 30
0.0
 11
109.622501521561
 21
387.5495677299084
 31
0.0
  0
LINE
  5
10D
330
1F
100
AcDbEntity
  8
0
  6
Continuous
 62
     7
370
    15
100
AcDbLine
 10
104.0345008812879
 20
366.9557680792393
 30
0.0
 11
104.0345008812879
 21
387.5495677299084
 31
0.0
  0
LINE
  5
10E
330
1F
100
AcDbEntity
  8
0
  6
Continuous
 62
     7
370
    15
100
AcDbLine
 10
97.86230207905523
 20
366.9557680792393
 30
0.0
 11
104.0345008812879
 21
366.9557680792393
 31
0.0
  0
LINE
  5
10F
330
1F
100
AcDbEntity
  8
0
  6
Continuous
 62
     7
370
    15
100
AcDbLine
 10
97.86230207905523
 20
358.8277676559271
 30
0.0
 11
97.86230207905523
 21
366.9557680792393
 31
0.0
  0
LINE
  5
110
330
1F
100
AcDbEntity
  8
0
  6
Continuous
 62
     7
370
    15
100
AcDbLine
 10
100.5685019634699
 20
358.8277676559271
 30
0.0
 11
97.86230207905523
 21
358.8277676559271
 31
0.0
  0
LINE
  5
111
330
1F
100
AcDbEntity
  8
0
  6
Continuous
 62
     7
370
    15
100
AcDbLine
 10
100.5685019634699
 20
356.5625676370444
 30
0.0
 11
100.5685019634699
 21
358.8277676559271
 31
0.0
  0
LINE
  5
112
330
1F
100
AcDbEntity
  8
0
  6
Continuous
 62
     7
370
    15
100
AcDbLine
 10
102.6845022432541
 20
356.5625676370444
 30
0.0
 11
100.5685019634699
 21
356.5625676370444
 31
0.0
  0
LINE
  5
113
330
1F
100
AcDbEntity
  8
0
  6
Continuous
 62
     7
370
    15
100
AcDbLine
 10
102.6845022432541
 20
354.0494681752505
 30
0.0
 11
102.6845022432541
 21
356.5625676370444
 31
0.0
  0
LINE
  5
114
330
1F
100
AcDbEntity
  8
0
  6
Continuous
 62
     7
370
    15
100
AcDbLine
 10
109.622501521561
 20
354.0494681752505
 30
0.0
 11
102.6845022432541
 21
354.0494681752505
 31
0.0
  0
LINE
  5
115
330
1F
100
AcDbEntity
  8
0
  6
Continuous
 62
     7
370
    15
100
AcDbLine
 10
109.622501521561
 20
387.5495677299084
 30
0.0
 11
109.622501521561
 21
354.0494681752505
 31
0.0
  0
LINE
  5
116
330
1F
100
AcDbEntity
  8
0
  6
Continuous
 62
     7
370
    15
100
AcDbLine
 10
63.17660094723455
 20
377.650767960037
 30
0.0
 11
68.2566014446353
 21
377.650767960037
 31
0.0
  0
LINE
  5
117
330
1F
100
AcDbEntity
  8
0
  6
Continuous
 62
     7
370
    15
100
AcDbLine
 10
63.17660094723455
 20
393.7207681543412
 30
0.0
 11
63.17660094723455
 21
377.650767960037
 31
0.0
  0
LINE
  5
118
330
1F
100
AcDbEntity
  8
0
  6
Continuous
 62
     7
370
    15
100
AcDbLine
 10
42.79260219559423
 20
393.7207681543412
 30
0.0
 11
63.17660094723455
 21
393.7207681543412
 31
0.0
  0
LINE
  5
119
330
1F
100
AcDbEntity
  8
0
  6
Continuous
 62
     7
370
    15
100
AcDbLine
 10
42.79260219559423
 20
386.4065676412763
 30
0.0
 11
42.79260219559423
 21
393.7207681543412
 31
0.0
  0
LINE
  5
11A
330
1F
100
AcDbEntity
  8
0
  6
Continuous
 62
     7
370
    15
100
AcDbLine
 10
47.74560289010755
 20
386.4065676412763
 30
0.0
 11
42.79260219559423
 21
386.4065676412763
 31
0.0
  0
LINE
  5
11B
330
1F
100
AcDbEntity
  8
0
  6
Continuous
 62
     7
370
    15
100
AcDbLine
 10
47.74560289010755
 20
372.3168678066911
 30
0.0
 11
47.74560289010755
 21
386.4065676412763
 31
0.0
  0
LINE
  5
11C
330
1F
100
AcDbEntity
  8
0
  6
Continuous
 62
     7
370
    15
100
AcDbLine
 10
68.2566014446353
 20
372.3168678066911
 30
0.0
 11
47.74560289010755
 21
372.3168678066911
 31
0.0
  0
LINE
  5
11D
330
1F
100
AcDbEntity
  8
0
  6
Continuous
 62
     7
370
    15
100
AcDbLine
 10
68.2566014446353
 20
377.650767960037
 30
0.0
 11
68.2566014446353
 21
372.3168678066911
 31
0.0
  0
CIRCLE
  5
11E
330
1F
100
AcDbEntity
  8
0
  6
Continuous
 62
     7
370
    15
100
AcDbCircle
 10
23.21260181213748
 20
345.1073679624786
 30
0.0
 40
1.338245377994805
  0
CIRCLE
  5
11F
330
1F
100
AcDbEntity
  8
0
  6
Continuous
 62
     7
370
    15
100
AcDbCircle
 10
114.7025018121375
 20
345.1073679624786
 30
0.0
 40
1.338245377994809
  0
CIRCLE
  5
120
330
1F
100
AcDbEntity
  8
0
  6
Continuous
 62
     7
370
    15
100
AcDbCircle
 10
114.7025018121375
 20
404.4460679624785
 30
0.0
 40
1.338245377994809
  0
CIRCLE
  5
121
330
1F
100
AcDbEntity
  8
0
  6
Continuous
 62
     7
370
    15
100
AcDbCircle
 10
23.21267681213753
 20
404.4460679624785
 30
0.0
 40
1.338245377994805
  0
LINE
  5
122
330
1F
100
AcDbEntity
  8
0
  6
Continuous
 62
     7
370
    15
100
AcDbLine
 10
61.36920185312979
 20
346.7815683639826
 30
0.0
 11
61.36920185312979
 21
369.3881675086202
 31
0.0
  0
LINE
  5
123
330
1F
100
AcDbEntity
  8
0
  6
Continuous
 62
     7
370
    15
100
AcDbLine
 10
109.6225018121375
 20
425.1045921112257
 30
0.0
 11
104.0345018121375
 21
425.1045921112257
 31
0.0
  0
LINE
  5
124
330
1F
100
AcDbEntity
  8
0
  6
Continuous
 62
     7
370
    15
100
AcDbLine
 10
109.6225018121375
 20
458.6046921112258
 30
0.0
 11
109.6225018121375
 21
425.1045921112257
 31
0.0
  0
LINE
  5
125
330
1F
100
AcDbEntity
  8
0
  6
Continuous
 62
     7
370
    15
100
AcDbLine
 10
104.0345018121375
 20
458.6046921112258
 30
0.0
 11
109.6225018121375
 21
458.6046921112258
 31
0.0
  0
LINE
  5
126
330
1F
100
AcDbEntity
  8
0
  6
Continuous
 62
     7
370
    15
100
AcDbLine
 10
104.0345018121375
 20
425.1045921112257
 30
0.0
 11
104.0345018121375
 21
458.6046921112258
 31
0.0
  0
LINE
  5
127
330
1F
100
AcDbEntity
  8
0
  6
Continuous
 62
     7
370
    15
100
AcDbLine
 10
47.74560181213749
 20
464.7758921112258
 30
0.0
 11
63.17660181213747
 21
464.7758921112258
 31
0.0
  0
LINE
  5
128
330
1F
100
AcDbEntity
  8
0
  6
Continuous
 62
     7
370
    15
100
AcDbLine
 10
47.74560181213749
 20
443.3719921112257
 30
0.0
 11
47.74560181213749
 21
464.7758921112258
 31
0.0
  0
LINE
  5
129
330
1F
100
AcDbEntity
  8
0
  6
Continuous
 62
     7
370
    15
100
AcDbLine
 10
63.17660181213747
 20
443.3719921112257
 30
0.0
 11
47.74560181213749
 21
443.3719921112257
 31
0.0
  0
LINE
  5
12A
330
1F
100
AcDbEntity
  8
0
  6
Continuous
 62
     7
370
    15
100
AcDbLine
 10
63.17660181213747
 20
464.7758921112258
 30
0.0
 11
63.17660181213747
 21
443.3719921112257
 31
0.0
  0
LINE
  5
12B
330
1F
100
AcDbEntity
  8
0
  6
Continuous
 62
     7
370
    15
100
AcDbLine
 10
66.77260181213751
 20
440.4432921112258
 30
0.0
 11
66.77260181213751
 21
417.8366921112258
 31
0.0
  0
LINE
  5
12C
330
1F
100
AcDbEntity
  8
0
  6
Continuous
 62
     7
370
    15
100
AcDbLine
 10
61.3692018121375
 20
440.4432921112258
 30
0.0
 11
66.77260181213751
 21
440.4432921112258
 31
0.0
  0
LINE
  5
12D
330
1F
100
AcDbEntity
  8
0
  6
Continuous
 62
     7
370
    15
100
AcDbLine
 10
61.3692018121375
 20
417.8366921112258
 30
0.0
 11
61.3692018121375
 21
440.4432921112258
 31
0.0
  0
LINE
  5
12E
330
1F
100
AcDbEntity
  8
0
  6
Continuous
 62
     7
370
    15
100
AcDbLine
 10
66.77260181213751
 20
417.8366921112258
 30
0.0
 11
61.3692018121375
 21
417.8366921112258
 31
0.0
  0
CIRCLE
  5
12F
330
1F
100
AcDbEntity
  8
0
  6
Continuous
 62
     7
370
    15
100
AcDbCircle
 10
114.7025018121375
 20
416.1624921112258
 30
0.0
 40
1.346200000000024
  0
CIRCLE
  5
130
330
1F
100
AcDbEntity
  8
0
  6
Continuous
 62
     7
370
    15
100
AcDbCircle
 10
23.21267681213752
 20
475.5011921112257
 30
0.0
 40
1.34620000000002
  0
LINE
  5
131
330
1F
100
AcDbEntity
  8
0
  6
Continuous
 62
     7
370
    15
100
AcDbLine
 10
40.29260181213751
 20
472.8717921112258
 30
0.0
 11
19.40270181213749
 21
472.8717921112258
 31
0.0
  0
LINE
  5
132
330
1F
100
AcDbEntity
  8
0
  6
Continuous
 62
     7
370
    15
100
AcDbLine
 10
19.40270181213749
 20
472.8717921112258
 30
0.0
 11
19.40270181213749
 21
475.4873899601289
 31
0.0
  0
ARC
  5
133
330
1F
100
AcDbEntity
  8
0
  6
Continuous
 62
     7
370
    15
100
AcDbCircle
 10
23.21267681213752
 20
475.5011921112257
 30
0.0
 40
3.810000000000059
100
AcDbArc
 50
90.0
 51
180.2075608230251
  0
LINE
  5
134
330
1F
100
AcDbEntity
  8
0
  6
Continuous
 62
     7
370
    15
100
AcDbLine
 10
23.21267681213752
 20
479.3111921112258
 30
0.0
 11
114.7025018121375
 21
479.3111921112257
 31
0.0
  0
ARC
  5
135
330
1F
100
AcDbEntity
  8
0
  6
Continuous
 62
     7
370
    15
100
AcDbCircle
 10
114.7025018121375
 20
475.5011921112257
 30
0.0
 40
3.810000000000002
100
AcDbArc
 50
0.0
 51
90.0
  0
LINE
  5
136
330
1F
100
AcDbEntity
  8
0
  6
Continuous
 62
     7
370
    15
100
AcDbLine
 10
118.5125018121375
 20
475.5011921112257
 30
0.0
 11
118.5125018121375
 21
416.1624921112258
 31
0.0
  0
ARC
  5
137
330
1F
100
AcDbEntity
  8
0
  6
Continuous
 62
     7
370
    15
100
AcDbCircle
 10
114.7025018121375
 20
416.1624921112258
 30
0.0
 40
3.809999999999973
100
AcDbArc
 50
270.0000000000008
 51
0.0
  0
LINE
  5
138
330
1F
100
AcDbEntity
  8
0
  6
Continuous
 62
     7
370
    15
100
AcDbLine
 10
114.7025018121375
 20
412.3524921112258
 30
0.0
 11
104.4625018121375
 21
415.7190921112258
 31
0.0
  0
LINE
  5
139
330
1F
100
AcDbEntity
  8
0
  6
Continuous
 62
     7
370
    15
100
AcDbLine
 10
104.4625018121375
 20
415.7190921112258
 30
0.0
 11
52.14330181213756
 21
415.7190921112258
 31
0.0
  0
LINE
  5
13A
330
1F
100
AcDbEntity
  8
0
  6
Continuous
 62
     7
370
    15
100
AcDbLine
 10
52.14330181213756
 20
415.7190921112258
 30
0.0
 11
41.90330181213753
 21
412.3524921112258
 31
0.0
  0
LINE
  5
13B
330
1F
100
AcDbEntity
  8
0
  6
Continuous
 62
     7
370
    15
100
AcDbLine
 10
41.90330181213753
 20
412.3524921112258
 30
0.0
 11
23.21260181213748
 21
412.3524921112258
 31
0.0
  0
ARC
  5
13C
330
1F
100
AcDbEntity
  8
0
  6
Continuous
 62
     7
370
    15
100
AcDbCircle
 10
23.21260181213748
 20
416.1624921112258
 30
0.0
 40
3.810000000000002
100
AcDbArc
 50
179.5848776728113
 51
270.0000000000008
  0
LINE
  5
13D
330
1F
100
AcDbEntity
  8
0
  6
Continuous
 62
     7
370
    15
100
AcDbLine
 10
19.40270181213749
 20
416.1900962775813
 30
0.0
 11
19.40270181213749
 21
420.1756921112258
 31
0.0
  0
LINE
  5
13E
330
1F
100
AcDbEntity
  8
0
  6
Continuous
 62
     7
370
    15
100
AcDbLine
 10
19.40270181213749
 20
420.1756921112258
 30
0.0
 11
45.04260181213749
 21
420.1756921112258
 31
0.0
  0
LINE
  5
13F
330
1F
100
AcDbEntity
  8
0
  6
Continuous
 62
     7
370
    15
100
AcDbLine
 10
45.04260181213749
 20
420.1756921112258
 30
0.0
 11
45.04260181213749
 21
436.1754921112257
 31
0.0
  0
LINE
  5
140
330
1F
100
AcDbEntity
  8
0
  6
Continuous
 62
     7
370
    15
100
AcDbLine
 10
45.04260181213749
 20
436.1754921112257
 30
0.0
 11
23.64260181213752
 21
436.1754921112257
 31
0.0
  0
LINE
  5
141
330
1F
100
AcDbEntity
  8
0
  6
Continuous
 62
     7
370
    15
100
AcDbLine
 10
23.64260181213752
 20
436.1754921112257
 30
0.0
 11
23.64260181213752
 21
439.6816921112257
 31
0.0
  0
LINE
  5
142
330
1F
100
AcDbEntity
  8
0
  6
Continuous
 62
     7
370
    15
100
AcDbLine
 10
23.64260181213752
 20
439.6816921112257
 30
0.0
 11
40.29260181213751
 21
439.6816921112257
 31
0.0
  0
LINE
  5
143
330
1F
100
AcDbEntity
  8
0
  6
Continuous
 62
     7
370
    15
100
AcDbLine
 10
40.29260181213751
 20
439.6816921112257
 30
0.0
 11
40.29260181213751
 21
453.8013921112257
 31
0.0
  0
LINE
  5
144
330
1F
100
AcDbEntity
  8
0
  6
Continuous
 62
     7
370
    15
100
AcDbLine
 10
40.29260181213751
 20
453.8013921112257
 30
0.0
 11
23.64260181213752
 21
453.8013921112257
 31
0.0
  0
LINE
  5
145
330
1F
100
AcDbEntity
  8
0
  6
Continuous
 62
     7
370
    15
100
AcDbLine
 10
23.64260181213752
 20
453.8013921112257
 30
0.0
 11
23.64260181213752
 21
457.4616921112258
 31
0.0
  0
LINE
  5
146
330
1F
100
AcDbEntity
  8
0
  6
Continuous
 62
     7
370
    15
100
AcDbLine
 10
23.64260181213752
 20
457.4616921112258
 30
0.0
 11
40.29260181213751
 21
457.4616921112258
 31
0.0
  0
LINE
  5
147
330
1F
100
AcDbEntity
  8
0
  6
Continuous
 62
     7
370
    15
100
AcDbLine
 10
40.29260181213751
 20
457.4616921112258
 30
0.0
 11
40.29260181213751
 21
472.8717921112258
 31
0.0
  0
CIRCLE
  5
148
330
1F
100
AcDbEntity
  8
0
  6
Continuous
 62
     7
370
    15
100
AcDbCircle
 10
114.7025018121375
 20
475.5011921112257
 30
0.0
 40
1.346200000000024
  0
LINE
  5
149
330
1F
100
AcDbEntity
  8
0
  6
Continuous
 62
     7
370
    15
100
AcDbLine
 10
48.92930181213751
 20
474.7004921112258
 30
0.0
 11
109.6225018121375
 21
474.7004921112258
 31
0.0
  0
LINE
  5
14A
330
1F
100
AcDbEntity
  8
0
  6
Continuous
 62
     7
370
    15
100
AcDbLine
 10
48.92930181213751
 20
466.8904921112257
 30
0.0
 11
48.92930181213751
 21
474.7004921112258
 31
0.0
  0
LINE
  5
14B
330
1F
100
AcDbEntity
  8
0
  6
Continuous
 62
     7
370
    15
100
AcDbLine
 10
109.6225018121375
 20
466.8904921112257
 30
0.0
 11
48.92930181213751
 21
466.8904921112257
 31
0.0
  0
LINE
  5
14C
330
1F
100
AcDbEntity
  8
0
  6
Continuous
 62
     7
370
    15
100
AcDbLine
 10
109.6225018121375
 20
474.7004921112258
 30
0.0
 11
109.6225018121375
 21
466.8904921112257
 31
0.0
  0
ARC
  5
14D
330
1F
100
AcDbEntity
  8
0
  6
Continuous
 62
     7
370
    15
100
AcDbCircle
 10
71.21760181213751
 20
458.6046921112258
 30
0.0
 40
2.540000000000006
100
AcDbArc
 50
90.0
 51
180.0
  0
LINE
  5
14E
330
1F
100
AcDbEntity
  8
0
  6
Continuous
 62
     7
370
    15
100
AcDbLine
 10
68.67760181213751
 20
425.1045921112257
 30
0.0
 11
68.67760181213751
 21
458.6046921112258
 31
0.0
  0
ARC
  5
14F
330
1F
100
AcDbEntity
  8
0
  6
Continuous
 62
     7
370
    15
100
AcDbCircle
 10
71.21760181213751
 20
425.1045921112257
 30
0.0
 40
2.540000000000077
100
AcDbArc
 50
180.0
 51
270.0000000000008
  0
LINE
  5
150
330
1F
100
AcDbEntity
  8
0
  6
Continuous
 62
     7
370
    15
100
AcDbLine
 10
99.71650181213753
 20
422.5645921112257
 30
0.0
 11
71.21760181213751
 21
422.5645921112257
 31
0.0
  0
ARC
  5
151
330
1F
100
AcDbEntity
  8
0
  6
Continuous
 62
     7
370
    15
100
AcDbCircle
 10
99.71650181213753
 20
425.1045921112257
 30
0.0
 40
2.54000000000002
100
AcDbArc
 50
270.0000000000008
 51
0.0
  0
LINE
  5
152
330
1F
100
AcDbEntity
  8
0
  6
Continuous
 62
     7
370
    15
100
AcDbLine
 10
102.2565018121375
 20
458.6046921112258
 30
0.0
 11
102.2565018121375
 21
425.1045921112257
 31
0.0
  0
ARC
  5
153
330
1F
100
AcDbEntity
  8
0
  6
Continuous
 62
     7
370
    15
100
AcDbCircle
 10
99.71650181213753
 20
458.6046921112258
 30
0.0
 40
2.539999999999992
100
AcDbArc
 50
0.0
 51
90.0
  0
LINE
  5
154
330
1F
100
AcDbEntity
  8
0
  6
Continuous
 62
     7
370
    15
100
AcDbLine
 10
71.21760181213751
 20
461.1446921112257
 30
0.0
 11
99.71650181213753
 21
461.1446921112257
 31
0.0
  0
CIRCLE
  5
155
330
1F
100
AcDbEntity
  8
0
  6
Continuous
 62
     7
370
    15
100
AcDbCircle
 10
23.21260181213748
 20
416.1624921112258
 30
0.0
 40
1.34620000000002
  0
CIRCLE
  5
156
330
1F
100
AcDbEntity
  8
0
  6
Continuous
 62
     7
370
    15
100
AcDbCircle
 10
80.9205018121375
 20
518.1390831329677
 30
0.0
 40
10.922
  0
CIRCLE
  5
157
330
1F
100
AcDbEntity
  8
0
  6
Continuous
 62
     7
370
    15
100
AcDbCircle
 10
90.9027018121375
 20
508.1568831329676
 30
0.0
 40
1.498599999999996
  0
CIRCLE
  5
158
330
1F
100
AcDbEntity
  8
0
  6
Continuous
 62
     7
370
    15
100
AcDbCircle
 10
90.9027018121375
 20
528.1212831329677
 30
0.0
 40
1.498599999999996
  0
CIRCLE
  5
159
330
1F
100
AcDbEntity
  8
0
  6
Continuous
 62
     7
370
    15
100
AcDbCircle
 10
70.93830181213751
 20
528.1212831329677
 30
0.0
 40
1.49860000000001
  0
CIRCLE
  5
15A
330
1F
100
AcDbEntity
  8
0
  6
Continuous
 62
     7
370
    15
100
AcDbCircle
 10
70.93830181213751
 20
508.1568831329676
 30
0.0
 40
1.49860000000001
  0
ARC
  5
15B
330
1F
100
AcDbEntity
  8
0
  6
Continuous
 62
     7
370
    15
100
AcDbCircle
 10
23.21267681213753
 20
545.3170831329678
 30
0.0
 40
3.810000000000009
100
AcDbArc
 50
90.0
 51
180.2075608230251
  0
CIRCLE
  5
15C
330
1F
100
AcDbEntity
  8
0
  6
Continuous
 62
     7
370
    15
100
AcDbCircle
 10
23.21260181213748
 20
485.9783831329677
 30
0.0
 40
1.34620000000002
  0
CIRCLE
  5
15D
330
1F
100
AcDbEntity
  8
0
  6
Continuous
 62
     7
370
    15
100
AcDbCircle
 10
114.7025018121375
 20
485.9783831329677
 30
0.0
 40
1.346200000000024
  0
CIRCLE
  5
15E
330
1F
100
AcDbEntity
  8
0
  6
Continuous
 62
     7
370
    15
100
AcDbCircle
 10
114.7025018121375
 20
545.3170831329678
 30
0.0
 40
1.346200000000024
  0
LINE
  5
15F
330
1F
100
AcDbEntity
  8
0
  6
Continuous
 62
     7
370
    15
100
AcDbLine
 10
66.77260181213752
 20
510.2591831329676
 30
0.0
 11
66.77260181213752
 21
487.6525831329677
 31
0.0
  0
LINE
  5
160
330
1F
100
AcDbEntity
  8
0
  6
Continuous
 62
     7
370
    15
100
AcDbLine
 10
109.6225018121375
 20
544.5163831329677
 30
0.0
 11
109.6225018121375
 21
536.7063831329677
 31
0.0
  0
LINE
  5
161
330
1F
100
AcDbEntity
  8
0
  6
Continuous
 62
     7
370
    15
100
AcDbLine
 10
109.6225018121375
 20
528.4205831329678
 30
0.0
 11
109.6225018121375
 21
505.0525831329677
 31
0.0
  0
CIRCLE
  5
162
330
1F
100
AcDbEntity
  8
0
  6
Continuous
 62
     7
370
    15
100
AcDbCircle
 10
23.21267681213753
 20
545.3170831329678
 30
0.0
 40
1.34620000000002
  0
LINE
  5
163
330
1F
100
AcDbEntity
  8
0
  6
Continuous
 62
     7
370
    15
100
AcDbLine
 10
66.77260181213752
 20
487.6525831329677
 30
0.0
 11
61.36920181213751
 21
487.6525831329677
 31
0.0
  0
LINE
  5
164
330
1F
100
AcDbEntity
  8
0
  6
Continuous
 62
     7
370
    15
100
AcDbLine
 10
61.36920181213751
 20
510.2591831329676
 30
0.0
 11
61.36920181213751
 21
487.6525831329677
 31
0.0
  0
LINE
  5
165
330
1F
100
AcDbEntity
  8
0
  6
Continuous
 62
     7
370
    15
100
AcDbLine
 10
66.77260181213752
 20
510.2591831329676
 30
0.0
 11
61.36920181213751
 21
510.2591831329676
 31
0.0
  0
LINE
  5
166
330
1F
100
AcDbEntity
  8
0
  6
Continuous
 62
     7
370
    15
100
AcDbLine
 10
109.6225018121375
 20
536.7063831329677
 30
0.0
 11
48.92930181213752
 21
536.7063831329677
 31
0.0
  0
LINE
  5
167
330
1F
100
AcDbEntity
  8
0
  6
Continuous
 62
     7
370
    15
100
AcDbLine
 10
48.92930181213752
 20
544.5163831329677
 30
0.0
 11
48.92930181213752
 21
536.7063831329677
 31
0.0
  0
LINE
  5
168
330
1F
100
AcDbEntity
  8
0
  6
Continuous
 62
     7
370
    15
100
AcDbLine
 10
109.6225018121375
 20
544.5163831329677
 30
0.0
 11
48.92930181213752
 21
544.5163831329677
 31
0.0
  0
LINE
  5
169
330
1F
100
AcDbEntity
  8
0
  6
Continuous
 62
     7
370
    15
100
AcDbLine
 10
109.6225018121375
 20
505.0525831329677
 30
0.0
 11
104.0345018121375
 21
505.0525831329677
 31
0.0
  0
LINE
  5
16A
330
1F
100
AcDbEntity
  8
0
  6
Continuous
 62
     7
370
    15
100
AcDbLine
 10
104.0345018121375
 20
528.4205831329678
 30
0.0
 11
104.0345018121375
 21
505.0525831329677
 31
0.0
  0
LINE
  5
16B
330
1F
100
AcDbEntity
  8
0
  6
Continuous
 62
     7
370
    15
100
AcDbLine
 10
109.6225018121375
 20
528.4205831329678
 30
0.0
 11
104.0345018121375
 21
528.4205831329678
 31
0.0
  0
LINE
  5
16C
330
1F
100
AcDbEntity
  8
0
  6
Continuous
 62
     7
370
    15
100
AcDbLine
 10
19.4027018121375
 20
542.6876831329678
 30
0.0
 11
19.4027018121375
 21
545.303280981871
 31
0.0
  0
LINE
  5
16D
330
1F
100
AcDbEntity
  8
0
  6
Continuous
 62
     7
370
    15
100
AcDbLine
 10
40.29260181213752
 20
542.6876831329678
 30
0.0
 11
19.4027018121375
 21
542.6876831329678
 31
0.0
  0
LINE
  5
16E
330
1F
100
AcDbEntity
  8
0
  6
Continuous
 62
     7
370
    15
100
AcDbLine
 10
40.29260181213752
 20
527.2775831329678
 30
0.0
 11
40.29260181213752
 21
542.6876831329678
 31
0.0
  0
LINE
  5
16F
330
1F
100
AcDbEntity
  8
0
  6
Continuous
 62
     7
370
    15
100
AcDbLine
 10
23.64260181213753
 20
527.2775831329678
 30
0.0
 11
40.29260181213752
 21
527.2775831329678
 31
0.0
  0
LINE
  5
170
330
1F
100
AcDbEntity
  8
0
  6
Continuous
 62
     7
370
    15
100
AcDbLine
 10
23.64260181213753
 20
523.6172831329676
 30
0.0
 11
23.64260181213753
 21
527.2775831329678
 31
0.0
  0
LINE
  5
171
330
1F
100
AcDbEntity
  8
0
  6
Continuous
 62
     7
370
    15
100
AcDbLine
 10
40.29260181213752
 20
523.6172831329676
 30
0.0
 11
23.64260181213753
 21
523.6172831329676
 31
0.0
  0
LINE
  5
172
330
1F
100
AcDbEntity
  8
0
  6
Continuous
 62
     7
370
    15
100
AcDbLine
 10
40.29260181213752
 20
509.4975831329677
 30
0.0
 11
40.29260181213752
 21
523.6172831329676
 31
0.0
  0
LINE
  5
173
330
1F
100
AcDbEntity
  8
0
  6
Continuous
 62
     7
370
    15
100
AcDbLine
 10
23.64260181213753
 20
509.4975831329677
 30
0.0
 11
40.29260181213752
 21
509.4975831329677
 31
0.0
  0
LINE
  5
174
330
1F
100
AcDbEntity
  8
0
  6
Continuous
 62
     7
370
    15
100
AcDbLine
 10
23.64260181213753
 20
505.9913831329677
 30
0.0
 11
23.64260181213753
 21
509.4975831329677
 31
0.0
  0
LINE
  5
175
330
1F
100
AcDbEntity
  8
0
  6
Continuous
 62
     7
370
    15
100
AcDbLine
 10
45.0426018121375
 20
505.9913831329677
 30
0.0
 11
23.64260181213753
 21
505.9913831329677
 31
0.0
  0
LINE
  5
176
330
1F
100
AcDbEntity
  8
0
  6
Continuous
 62
     7
370
    15
100
AcDbLine
 10
45.0426018121375
 20
489.9915831329678
 30
0.0
 11
45.0426018121375
 21
505.9913831329677
 31
0.0
  0
LINE
  5
177
330
1F
100
AcDbEntity
  8
0
  6
Continuous
 62
     7
370
    15
100
AcDbLine
 10
19.4027018121375
 20
489.9915831329678
 30
0.0
 11
45.0426018121375
 21
489.9915831329678
 31
0.0
  0
LINE
  5
178
330
1F
100
AcDbEntity
  8
0
  6
Continuous
 62
     7
370
    15
100
AcDbLine
 10
19.4027018121375
 20
486.0059872993233
 30
0.0
 11
19.4027018121375
 21
489.9915831329678
 31
0.0
  0
ARC
  5
179
330
1F
100
AcDbEntity
  8
0
  6
Continuous
 62
     7
370
    15
100
AcDbCircle
 10
23.21260181213748
 20
485.9783831329677
 30
0.0
 40
3.810000000000002
100
AcDbArc
 50
179.5848776728113
 51
270.0000000000008
  0
LINE
  5
17A
330
1F
100
AcDbEntity
  8
0
  6
Continuous
 62
     7
370
    15
100
AcDbLine
 10
41.90330181213754
 20
482.1683831329677
 30
0.0
 11
23.21260181213748
 21
482.1683831329677
 31
0.0
  0
LINE
  5
17B
330
1F
100
AcDbEntity
  8
0
  6
Continuous
 62
     7
370
    15
100
AcDbLine
 10
52.14330181213757
 20
485.5349831329677
 30
0.0
 11
41.90330181213754
 21
482.1683831329677
 31
0.0
  0
LINE
  5
17C
330
1F
100
AcDbEntity
  8
0
  6
Continuous
 62
     7
370
    15
100
AcDbLine
 10
104.4625018121375
 20
485.5349831329678
 30
0.0
 11
52.14330181213757
 21
485.5349831329677
 31
0.0
  0
LINE
  5
17D
330
1F
100
AcDbEntity
  8
0
  6
Continuous
 62
     7
370
    15
100
AcDbLine
 10
114.7025018121375
 20
482.1683831329678
 30
0.0
 11
104.4625018121375
 21
485.5349831329678
 31
0.0
  0
ARC
  5
17E
330
1F
100
AcDbEntity
  8
0
  6
Continuous
 62
     7
370
    15
100
AcDbCircle
 10
114.7025018121375
 20
485.9783831329677
 30
0.0
 40
3.809999999999959
100
AcDbArc
 50
270.0000000000008
 51
0.0
  0
LINE
  5
17F
330
1F
100
AcDbEntity
  8
0
  6
Continuous
 62
     7
370
    15
100
AcDbLine
 10
118.5125018121375
 20
545.3170831329678
 30
0.0
 11
118.5125018121375
 21
485.9783831329677
 31
0.0
  0
ARC
  5
180
330
1F
100
AcDbEntity
  8
0
  6
Continuous
 62
     7
370
    15
100
AcDbCircle
 10
114.7025018121375
 20
545.3170831329678
 30
0.0
 40
3.809999999999931
100
AcDbArc
 50
0.0
 51
90.0
  0
LINE
  5
181
330
1F
100
AcDbEntity
  8
0
  6
Continuous
 62
     7
370
    15
100
AcDbLine
 10
23.21267681213753
 20
549.1270831329678
 30
0.0
 11
114.7025018121375
 21
549.1270831329676
 31
0.0
  0
CIRCLE
  5
182
330
1F
100
AcDbEntity
  8
0
  6
Continuous
 62
     7
370
    15
100
AcDbCircle
 10
114.7025018121375
 20
205.4715737687176
 30
0.0
 40
1.34620000000001
  0
CIRCLE
  5
183
330
1F
100
AcDbEntity
  8
0
  6
Continuous
 62
     7
370
    15
100
AcDbCircle
 10
114.7025018121375
 20
264.8102737687176
 30
0.0
 40
1.34620000000001
  0
CIRCLE
  5
184
330
1F
100
AcDbEntity
  8
0
  6
Continuous
 62
     7
370
    15
100
AcDbCircle
 10
23.21267681213754
 20
264.8102737687176
 30
0.0
 40
1.34620000000002
  0
LINE
  5
185
330
1F
100
AcDbEntity
  8
0
  6
Continuous
 62
     7
370
    15
100
AcDbLine
 10
114.581848044361
 20
242.7249790209836
 30
0.0
 11
118.5125061463965
 21
246.6556222218579
 31
0.0
  0
CIRCLE
  5
186
330
1F
100
AcDbEntity
  8
0
  6
Continuous
 62
     7
370
    15
100
AcDbCircle
 10
23.2126018121375
 20
205.4715737687176
 30
0.0
 40
1.346200000000017
  0
LINE
  5
187
330
1F
100
AcDbEntity
  8
0
  6
Continuous
 62
     7
370
    15
100
AcDbLine
 10
110.6511899423255
 20
242.7249790209836
 30
0.0
 11
114.581848044361
 21
242.7249790209836
 31
0.0
  0
LINE
  5
188
330
1F
100
AcDbEntity
  8
0
  6
Continuous
 62
     7
370
    15
100
AcDbLine
 10
110.6511899423255
 20
263.083079554469
 30
0.0
 11
110.6511899423255
 21
242.7249790209836
 31
0.0
  0
LINE
  5
189
330
1F
100
AcDbEntity
  8
0
  6
Continuous
 62
     7
370
    15
100
AcDbLine
 10
25.09229864593879
 20
263.083079554469
 30
0.0
 11
110.6511899423255
 21
263.083079554469
 31
0.0
  0
LINE
  5
18A
330
1F
100
AcDbEntity
  8
0
  6
Continuous
 62
     7
370
    15
100
AcDbLine
 10
25.09229864593879
 20
206.7923710722035
 30
0.0
 11
25.09229864593879
 21
263.083079554469
 31
0.0
  0
LINE
  5
18B
330
1F
100
AcDbEntity
  8
0
  6
Continuous
 62
     7
370
    15
100
AcDbLine
 10
25.09229864593879
 20
206.7923710722035
 30
0.0
 11
110.6511899423255
 21
206.7923710722035
 31
0.0
  0
LINE
  5
18C
330
1F
100
AcDbEntity
  8
0
  6
Continuous
 62
     7
370
    15
100
AcDbLine
 10
110.6511899423255
 20
229.516977168948
 30
0.0
 11
110.6511899423255
 21
206.7923710722035
 31
0.0
  0
LINE
  5
18D
330
1F
100
AcDbEntity
  8
0
  6
Continuous
 62
     7
370
    15
100
AcDbLine
 10
110.6511899423255
 20
229.516977168948
 30
0.0
 11
114.581848044361
 21
229.516977168948
 31
0.0
  0
LINE
  5
18E
330
1F
100
AcDbEntity
  8
0
  6
Continuous
 62
     7
370
    15
100
AcDbLine
 10
114.581848044361
 20
229.516977168948
 30
0.0
 11
118.5125061463965
 21
225.5863265174931
 31
0.0
  0
LINE
  5
18F
330
1F
100
AcDbEntity
  8
0
  6
Continuous
 62
     7
370
    15
100
AcDbLine
 10
118.5125061463965
 20
205.4715768474644
 30
0.0
 11
118.5125061463965
 21
225.5863265174931
 31
0.0
  0
ARC
  5
190
330
1F
100
AcDbEntity
  8
0
  6
Continuous
 62
     7
370
    15
100
AcDbCircle
 10
114.7025018121375
 20
205.4715737687176
 30
0.0
 40
3.81000000000003
100
AcDbArc
 50
270.0000000000008
 51
0.0
  0
LINE
  5
191
330
1F
100
AcDbEntity
  8
0
  6
Continuous
 62
     7
370
    15
100
AcDbLine
 10
104.4624992799414
 20
205.0281704443997
 30
0.0
 11
114.7024878453864
 21
201.6615734476155
 31
0.0
  0
LINE
  5
192
330
1F
100
AcDbEntity
  8
0
  6
Continuous
 62
     7
370
    15
100
AcDbLine
 10
104.4624992799414
 20
205.0281704443997
 30
0.0
 11
52.14330043312446
 21
205.0281704443997
 31
0.0
  0
LINE
  5
193
330
1F
100
AcDbEntity
  8
0
  6
Continuous
 62
     7
370
    15
100
AcDbLine
 10
52.14330043312446
 20
205.0281704443997
 30
0.0
 11
41.90331186767951
 21
201.6615734476155
 31
0.0
  0
LINE
  5
194
330
1F
100
AcDbEntity
  8
0
  6
Continuous
 62
     7
370
    15
100
AcDbLine
 10
41.90331186767951
 20
201.6615734476155
 30
0.0
 11
23.21260656830207
 21
201.6615734476155
 31
0.0
  0
ARC
  5
195
330
1F
100
AcDbEntity
  8
0
  6
Continuous
 62
     7
370
    15
100
AcDbCircle
 10
23.2126018121375
 20
205.4715737687176
 30
0.0
 40
3.810000000000002
100
AcDbArc
 50
179.5848776728113
 51
270.0000000000008
  0
LINE
  5
196
330
1F
100
AcDbEntity
  8
0
  6
Continuous
 62
     7
370
    15
100
AcDbLine
 10
19.40270747658148
 20
209.4847724813527
 30
0.0
 11
19.40270747658148
 21
205.499181248576
 31
0.0
  0
LINE
  5
197
330
1F
100
AcDbEntity
  8
0
  6
Continuous
 62
     7
370
    15
100
AcDbLine
 10
21.30770172592536
 20
209.4847724813527
 30
0.0
 11
19.40270747658148
 21
209.4847724813527
 31
0.0
  0
LINE
  5
198
330
1F
100
AcDbEntity
  8
0
  6
Continuous
 62
     7
370
    15
100
AcDbLine
 10
21.30770172592536
 20
262.1808738488263
 30
0.0
 11
21.30770172592536
 21
209.4847724813527
 31
0.0
  0
LINE
  5
199
330
1F
100
AcDbEntity
  8
0
  6
Continuous
 62
     7
370
    15
100
AcDbLine
 10
19.40270747658148
 20
262.1808738488263
 30
0.0
 11
21.30770172592536
 21
262.1808738488263
 31
0.0
  0
LINE
  5
19A
330
1F
100
AcDbEntity
  8
0
  6
Continuous
 62
     7
370
    15
100
AcDbLine
 10
19.40270747658148
 20
264.7964746731823
 30
0.0
 11
19.40270747658148
 21
262.1808738488263
 31
0.0
  0
ARC
  5
19B
330
1F
100
AcDbEntity
  8
0
  6
Continuous
 62
     7
370
    15
100
AcDbCircle
 10
23.21267681213754
 20
264.8102737687176
 30
0.0
 40
3.810000000000005
100
AcDbArc
 50
90.0
 51
180.207560823026
  0
LINE
  5
19C
330
1F
100
AcDbEntity
  8
0
  6
Continuous
 62
     7
370
    15
100
AcDbLine
 10
114.7024878453864
 20
268.6202765482968
 30
0.0
 11
23.21266617294684
 21
268.6202765482968
 31
0.0
  0
ARC
  5
19D
330
1F
100
AcDbEntity
  8
0
  6
Continuous
 62
     7
370
    15
100
AcDbCircle
 10
114.7025018121375
 20
264.8102737687176
 30
0.0
 40
3.810000000000002
100
AcDbArc
 50
0.0
 51
90.0
  0
LINE
  5
19E
330
1F
100
AcDbEntity
  8
0
  6
Continuous
 62
     7
370
    15
100
AcDbLine
 10
118.5125061463965
 20
246.6556222218579
 30
0.0
 11
118.5125061463965
 21
264.8102731484478
 31
0.0
  0
LINE
  5
19F
330
1F
100
AcDbEntity
  8
0
  6
Continuous
 62
     7
370
    15
100
AcDbLine
 10
110.6511899423255
 20
155.7188666079395
 30
0.0
 11
102.2565015744818
 21
155.7188666079395
 31
0.0
  0
LINE
  5
1A0
330
1F
100
AcDbEntity
  8
0
  6
Continuous
 62
     7
370
    15
100
AcDbLine
 10
102.2565015744818
 20
155.7188666079395
 30
0.0
 11
102.2565015744818
 21
176.7881623123042
 31
0.0
  0
LINE
  5
1A1
330
1F
100
AcDbEntity
  8
0
  6
Continuous
 62
     7
370
    15
100
AcDbLine
 10
102.2565015744818
 20
176.7881623123042
 30
0.0
 11
110.6511899423255
 21
176.7881623123042
 31
0.0
  0
LINE
  5
1A2
330
1F
100
AcDbEntity
  8
0
  6
Continuous
 62
     7
370
    15
100
AcDbLine
 10
110.6511899423255
 20
176.7881623123042
 30
0.0
 11
110.6511899423255
 21
193.2156196449153
 31
0.0
  0
LINE
  5
1A3
330
1F
100
AcDbEntity
  8
0
  6
Continuous
 62
     7
370
    15
100
AcDbLine
 10
110.6511899423255
 20
193.2156196449153
 30
0.0
 11
25.09229864593879
 21
193.2156196449153
 31
0.0
  0
LINE
  5
1A4
330
1F
100
AcDbEntity
  8
0
  6
Continuous
 62
     7
370
    15
100
AcDbLine
 10
25.09229864593879
 20
193.2156196449153
 30
0.0
 11
25.09229864593879
 21
136.9249111626498
 31
0.0
  0
LINE
  5
1A5
330
1F
100
AcDbEntity
  8
0
  6
Continuous
 62
     7
370
    15
100
AcDbLine
 10
25.09229864593879
 20
136.9249111626498
 30
0.0
 11
110.6511899423255
 21
136.9249111626498
 31
0.0
  0
LINE
  5
1A6
330
1F
100
AcDbEntity
  8
0
  6
Continuous
 62
     7
370
    15
100
AcDbLine
 10
110.6511899423255
 20
136.9249111626498
 30
0.0
 11
110.6511899423255
 21
155.7188666079395
 31
0.0
  0
LINE
  5
1A7
330
1F
100
AcDbEntity
  8
0
  6
Continuous
 62
     7
370
    15
100
AcDbLine
 10
104.3519922685279
 20
159.6495172593944
 30
0.0
 11
104.3519922685279
 21
172.8575191114299
 31
0.0
  0
LINE
  5
1A8
330
1F
100
AcDbEntity
  8
0
  6
Continuous
 62
     7
370
    15
100
AcDbLine
 10
114.581848044361
 20
159.6495172593944
 30
0.0
 11
104.3519922685279
 21
159.6495172593944
 31
0.0
  0
LINE
  5
1A9
330
1F
100
AcDbEntity
  8
0
  6
Continuous
 62
     7
370
    15
100
AcDbLine
 10
118.5125061463965
 20
155.7188666079395
 30
0.0
 11
114.581848044361
 21
159.6495172593944
 31
0.0
  0
LINE
  5
1AA
330
1F
100
AcDbEntity
  8
0
  6
Continuous
 62
     7
370
    15
100
AcDbLine
 10
118.5125061463965
 20
135.6041169379108
 30
0.0
 11
118.5125061463965
 21
155.7188666079395
 31
0.0
  0
ARC
  5
1AB
330
1F
100
AcDbEntity
  8
0
  6
Continuous
 62
     7
370
    15
100
AcDbCircle
 10
114.7025018121375
 20
135.604113859164
 30
0.0
 40
3.81000000000003
100
AcDbArc
 50
270.0000000000008
 51
0.0
  0
LINE
  5
1AC
330
1F
100
AcDbEntity
  8
0
  6
Continuous
 62
     7
370
    15
100
AcDbLine
 10
104.4624992799414
 20
135.160710534846
 30
0.0
 11
114.7024878453864
 21
131.7941135380618
 31
0.0
  0
LINE
  5
1AD
330
1F
100
AcDbEntity
  8
0
  6
Continuous
 62
     7
370
    15
100
AcDbLine
 10
52.14330043312446
 20
135.160710534846
 30
0.0
 11
104.4624992799414
 21
135.160710534846
 31
0.0
  0
LINE
  5
1AE
330
1F
100
AcDbEntity
  8
0
  6
Continuous
 62
     7
370
    15
100
AcDbLine
 10
41.90331186767951
 20
131.7941135380618
 30
0.0
 11
52.14330043312446
 21
135.160710534846
 31
0.0
  0
LINE
  5
1AF
330
1F
100
AcDbEntity
  8
0
  6
Continuous
 62
     7
370
    15
100
AcDbLine
 10
23.21260656830207
 20
131.7941135380618
 30
0.0
 11
41.90331186767951
 21
131.7941135380618
 31
0.0
  0
ARC
  5
1B0
330
1F
100
AcDbEntity
  8
0
  6
Continuous
 62
     7
370
    15
100
AcDbCircle
 10
23.2126018121375
 20
135.604113859164
 30
0.0
 40
3.810000000000002
100
AcDbArc
 50
179.5848776728113
 51
270.0000000000008
  0
LINE
  5
1B1
330
1F
100
AcDbEntity
  8
0
  6
Continuous
 62
     7
370
    15
100
AcDbLine
 10
19.40270747658148
 20
139.617312571799
 30
0.0
 11
19.40270747658148
 21
135.6317213390224
 31
0.0
  0
LINE
  5
1B2
330
1F
100
AcDbEntity
  8
0
  6
Continuous
 62
     7
370
    15
100
AcDbLine
 10
21.30770172592536
 20
139.617312571799
 30
0.0
 11
19.40270747658148
 21
139.617312571799
 31
0.0
  0
LINE
  5
1B3
330
1F
100
AcDbEntity
  8
0
  6
Continuous
 62
     7
370
    15
100
AcDbLine
 10
21.30770172592536
 20
192.3134139392726
 30
0.0
 11
21.30770172592536
 21
139.617312571799
 31
0.0
  0
LINE
  5
1B4
330
1F
100
AcDbEntity
  8
0
  6
Continuous
 62
     7
370
    15
100
AcDbLine
 10
19.40270747658148
 20
192.3134139392726
 30
0.0
 11
21.30770172592536
 21
192.3134139392726
 31
0.0
  0
LINE
  5
1B5
330
1F
100
AcDbEntity
  8
0
  6
Continuous
 62
     7
370
    15
100
AcDbLine
 10
19.40270747658148
 20
194.9290147636287
 30
0.0
 11
19.40270747658148
 21
192.3134139392726
 31
0.0
  0
ARC
  5
1B6
330
1F
100
AcDbEntity
  8
0
  6
Continuous
 62
     7
370
    15
100
AcDbCircle
 10
23.21267681213754
 20
194.9428138591639
 30
0.0
 40
3.81000000000003
100
AcDbArc
 50
90.0
 51
180.2075608230251
  0
LINE
  5
1B7
330
1F
100
AcDbEntity
  8
0
  6
Continuous
 62
     7
370
    15
100
AcDbLine
 10
114.7024878453864
 20
198.7528166387431
 30
0.0
 11
23.21266617294684
 21
198.7528166387431
 31
0.0
  0
ARC
  5
1B8
330
1F
100
AcDbEntity
  8
0
  6
Continuous
 62
     7
370
    15
100
AcDbCircle
 10
114.7025018121375
 20
194.9428138591639
 30
0.0
 40
3.809999999999973
100
AcDbArc
 50
0.0
 51
90.0
  0
LINE
  5
1B9
330
1F
100
AcDbEntity
  8
0
  6
Continuous
 62
     7
370
    15
100
AcDbLine
 10
118.5125061463965
 20
176.7881623123042
 30
0.0
 11
118.5125061463965
 21
194.9428132388942
 31
0.0
  0
LINE
  5
1BA
330
1F
100
AcDbEntity
  8
0
  6
Continuous
 62
     7
370
    15
100
AcDbLine
 10
114.581848044361
 20
172.8575191114299
 30
0.0
 11
118.5125061463965
 21
176.7881623123042
 31
0.0
  0
LINE
  5
1BB
330
1F
100
AcDbEntity
  8
0
  6
Continuous
 62
     7
370
    15
100
AcDbLine
 10
104.3519922685279
 20
172.8575191114299
 30
0.0
 11
114.581848044361
 21
172.8575191114299
 31
0.0
  0
CIRCLE
  5
1BC
330
1F
100
AcDbEntity
  8
0
  6
Continuous
 62
     7
370
    15
100
AcDbCircle
 10
114.7025018121375
 20
194.9428138591639
 30
0.0
 40
1.355900405878685
  0
CIRCLE
  5
1BD
330
1F
100
AcDbEntity
  8
0
  6
Continuous
 62
     7
370
    15
100
AcDbCircle
 10
23.21267681213754
 20
194.9428138591639
 30
0.0
 40
1.355900405878681
  0
CIRCLE
  5
1BE
330
1F
100
AcDbEntity
  8
0
  6
Continuous
 62
     7
370
    15
100
AcDbCircle
 10
23.2126018121375
 20
135.604113859164
 30
0.0
 40
1.355900405878685
  0
CIRCLE
  5
1BF
330
1F
100
AcDbEntity
  8
0
  6
Continuous
 62
     7
370
    15
100
AcDbCircle
 10
114.7025018121375
 20
135.604113859164
 30
0.0
 40
1.355900405878685
  0
CIRCLE
  5
1C0
330
1F
100
AcDbEntity
  8
0
  6
Continuous
 62
     7
370
    15
100
AcDbCircle
 10
23.2126018121375
 20
65.80282086994003
 30
0.0
 40
1.355900405878685
  0
CIRCLE
  5
1C1
330
1F
100
AcDbEntity
  8
0
  6
Continuous
 62
     7
370
    15
100
AcDbCircle
 10
114.7025018121375
 20
125.14152086994
 30
0.0
 40
1.355900405878685
  0
ARC
  5
1C2
330
1F
100
AcDbEntity
  8
0
  6
Continuous
 62
     7
370
    15
100
AcDbCircle
 10
114.7025018121375
 20
65.80282086994003
 30
0.0
 40
3.810000000000023
100
AcDbArc
 50
270.0000000000008
 51
0.0
  0
LINE
  5
1C3
330
1F
100
AcDbEntity
  8
0
  6
Continuous
 62
     7
370
    15
100
AcDbLine
 10
104.4625018121375
 20
65.35942086994004
 30
0.0
 11
114.7025018121375
 21
61.99282086994001
 31
0.0
  0
LINE
  5
1C4
330
1F
100
AcDbEntity
  8
0
  6
Continuous
 62
     7
370
    15
100
AcDbLine
 10
52.14330181213758
 20
65.35942086994001
 30
0.0
 11
104.4625018121375
 21
65.35942086994004
 31
0.0
  0
LINE
  5
1C5
330
1F
100
AcDbEntity
  8
0
  6
Continuous
 62
     7
370
    15
100
AcDbLine
 10
41.90330181213755
 20
61.99282086994003
 30
0.0
 11
52.14330181213758
 21
65.35942086994001
 31
0.0
  0
LINE
  5
1C6
330
1F
100
AcDbEntity
  8
0
  6
Continuous
 62
     7
370
    15
100
AcDbLine
 10
23.2126018121375
 20
61.99282086994003
 30
0.0
 11
41.90330181213755
 21
61.99282086994003
 31
0.0
  0
ARC
  5
1C7
330
1F
100
AcDbEntity
  8
0
  6
Continuous
 62
     7
370
    15
100
AcDbCircle
 10
23.2126018121375
 20
65.80282086994003
 30
0.0
 40
3.810000000000009
100
AcDbArc
 50
179.5848776728115
 51
270.0000000000008
  0
LINE
  5
1C8
330
1F
100
AcDbEntity
  8
0
  6
Continuous
 62
     7
370
    15
100
AcDbLine
 10
19.40270181213752
 20
69.81602086994005
 30
0.0
 11
19.40270181213752
 21
65.83042503629563
 31
0.0
  0
LINE
  5
1C9
330
1F
100
AcDbEntity
  8
0
  6
Continuous
 62
     7
370
    15
100
AcDbLine
 10
21.30770181213756
 20
69.81602086994005
 30
0.0
 11
19.40270181213752
 21
69.81602086994005
 31
0.0
  0
LINE
  5
1CA
330
1F
100
AcDbEntity
  8
0
  6
Continuous
 62
     7
370
    15
100
AcDbLine
 10
21.30770181213756
 20
122.51212086994
 30
0.0
 11
21.30770181213756
 21
69.81602086994005
 31
0.0
  0
LINE
  5
1CB
330
1F
100
AcDbEntity
  8
0
  6
Continuous
 62
     7
370
    15
100
AcDbLine
 10
19.40270181213752
 20
122.51212086994
 30
0.0
 11
21.30770181213756
 21
122.51212086994
 31
0.0
  0
LINE
  5
1CC
330
1F
100
AcDbEntity
  8
0
  6
Continuous
 62
     7
370
    15
100
AcDbLine
 10
19.40270181213752
 20
125.1277187188432
 30
0.0
 11
19.40270181213752
 21
122.51212086994
 31
0.0
  0
ARC
  5
1CD
330
1F
100
AcDbEntity
  8
0
  6
Continuous
 62
     7
370
    15
100
AcDbCircle
 10
23.21267681213754
 20
125.14152086994
 30
0.0
 40
3.810000000000016
100
AcDbArc
 50
90.0
 51
180.2075608230251
  0
LINE
  5
1CE
330
1F
100
AcDbEntity
  8
0
  6
Continuous
 62
     7
370
    15
100
AcDbLine
 10
114.7025018121375
 20
128.9515208699399
 30
0.0
 11
23.21267681213754
 21
128.95152086994
 31
0.0
  0
ARC
  5
1CF
330
1F
100
AcDbEntity
  8
0
  6
Continuous
 62
     7
370
    15
100
AcDbCircle
 10
114.7025018121375
 20
125.14152086994
 30
0.0
 40
3.809999999999959
100
AcDbArc
 50
0.0
 51
90.0
  0
LINE
  5
1D0
330
1F
100
AcDbEntity
  8
0
  6
Continuous
 62
     7
370
    15
100
AcDbLine
 10
118.5125018121375
 20
106.9868708699399
 30
0.0
 11
118.5125018121375
 21
125.14152086994
 31
0.0
  0
LINE
  5
1D1
330
1F
100
AcDbEntity
  8
0
  6
Continuous
 62
     7
370
    15
100
AcDbLine
 10
114.5818518121375
 20
103.05622086994
 30
0.0
 11
118.5125018121375
 21
106.9868708699399
 31
0.0
  0
LINE
  5
1D2
330
1F
100
AcDbEntity
  8
0
  6
Continuous
 62
     7
370
    15
100
AcDbLine
 10
104.3520018121375
 20
103.05622086994
 30
0.0
 11
114.5818518121375
 21
103.05622086994
 31
0.0
  0
LINE
  5
1D3
330
1F
100
AcDbEntity
  8
0
  6
Continuous
 62
     7
370
    15
100
AcDbLine
 10
104.3520018121375
 20
89.84822086994004
 30
0.0
 11
104.3520018121375
 21
103.05622086994
 31
0.0
  0
LINE
  5
1D4
330
1F
100
AcDbEntity
  8
0
  6
Continuous
 62
     7
370
    15
100
AcDbLine
 10
114.5818518121375
 20
89.84822086994004
 30
0.0
 11
104.3520018121375
 21
89.84822086994004
 31
0.0
  0
LINE
  5
1D5
330
1F
100
AcDbEntity
  8
0
  6
Continuous
 62
     7
370
    15
100
AcDbLine
 10
118.5125018121375
 20
85.91757086994014
 30
0.0
 11
114.5818518121375
 21
89.84822086994004
 31
0.0
  0
LINE
  5
1D6
330
1F
100
AcDbEntity
  8
0
  6
Continuous
 62
     7
370
    15
100
AcDbLine
 10
118.5125018121375
 20
65.80282086994003
 30
0.0
 11
118.5125018121375
 21
85.91757086994014
 31
0.0
  0
CIRCLE
  5
1D7
330
1F
100
AcDbEntity
  8
0
  6
Continuous
 62
     7
370
    15
100
AcDbCircle
 10
114.7025018121375
 20
65.80282086994003
 30
0.0
 40
1.355900405878685
  0
CIRCLE
  5
1D8
330
1F
100
AcDbEntity
  8
0
  6
Continuous
 62
     7
370
    15
100
AcDbCircle
 10
23.21267681213754
 20
125.14152086994
 30
0.0
 40
1.355900405878685
  0
ARC
  5
1D9
330
1F
100
AcDbEntity
  8
0
  6
Continuous
 62
     7
370
    15
100
AcDbCircle
 10
165.7414723925784
 20
545.3170831329678
 30
0.0
 40
3.809999999999995
100
AcDbArc
 50
90.0
 51
180.2075608230251
  0
CIRCLE
  5
1DA
330
1F
100
AcDbEntity
  8
0
  6
Continuous
 62
     7
370
    15
100
AcDbCircle
 10
165.7413973925783
 20
485.9783831329677
 30
0.0
 40
1.34620000000001
  0
CIRCLE
  5
1DB
330
1F
100
AcDbEntity
  8
0
  6
Continuous
 62
     7
370
    15
100
AcDbCircle
 10
257.2312973925784
 20
485.9783831329677
 30
0.0
 40
1.34620000000001
  0
CIRCLE
  5
1DC
330
1F
100
AcDbEntity
  8
0
  6
Continuous
 62
     7
370
    15
100
AcDbCircle
 10
257.2312973925784
 20
545.3170831329678
 30
0.0
 40
1.34620000000001
  0
CIRCLE
  5
1DD
330
1F
100
AcDbEntity
  8
0
  6
Continuous
 62
     7
370
    15
100
AcDbCircle
 10
165.7414723925784
 20
545.3170831329678
 30
0.0
 40
1.34620000000001
  0
LINE
  5
1DE
330
1F
100
AcDbEntity
  8
0
  6
Continuous
 62
     7
370
    15
100
AcDbLine
 10
161.9314973925784
 20
542.6876831329678
 30
0.0
 11
161.9314973925784
 21
545.303280981871
 31
0.0
  0
LINE
  5
1DF
330
1F
100
AcDbEntity
  8
0
  6
Continuous
 62
     7
370
    15
100
AcDbLine
 10
182.8213973925784
 20
542.6876831329678
 30
0.0
 11
161.9314973925784
 21
542.6876831329678
 31
0.0
  0
LINE
  5
1E0
330
1F
100
AcDbEntity
  8
0
  6
Continuous
 62
     7
370
    15
100
AcDbLine
 10
182.8213973925784
 20
527.2775831329678
 30
0.0
 11
182.8213973925784
 21
542.6876831329678
 31
0.0
  0
LINE
  5
1E1
330
1F
100
AcDbEntity
  8
0
  6
Continuous
 62
     7
370
    15
100
AcDbLine
 10
166.1713973925784
 20
527.2775831329678
 30
0.0
 11
182.8213973925784
 21
527.2775831329678
 31
0.0
  0
LINE
  5
1E2
330
1F
100
AcDbEntity
  8
0
  6
Continuous
 62
     7
370
    15
100
AcDbLine
 10
166.1713973925784
 20
523.6172831329676
 30
0.0
 11
166.1713973925784
 21
527.2775831329678
 31
0.0
  0
LINE
  5
1E3
330
1F
100
AcDbEntity
  8
0
  6
Continuous
 62
     7
370
    15
100
AcDbLine
 10
182.8213973925784
 20
523.6172831329676
 30
0.0
 11
166.1713973925784
 21
523.6172831329676
 31
0.0
  0
LINE
  5
1E4
330
1F
100
AcDbEntity
  8
0
  6
Continuous
 62
     7
370
    15
100
AcDbLine
 10
182.8213973925784
 20
509.4975831329677
 30
0.0
 11
182.8213973925784
 21
523.6172831329676
 31
0.0
  0
LINE
  5
1E5
330
1F
100
AcDbEntity
  8
0
  6
Continuous
 62
     7
370
    15
100
AcDbLine
 10
166.1713973925784
 20
509.4975831329677
 30
0.0
 11
182.8213973925784
 21
509.4975831329677
 31
0.0
  0
LINE
  5
1E6
330
1F
100
AcDbEntity
  8
0
  6
Continuous
 62
     7
370
    15
100
AcDbLine
 10
166.1713973925784
 20
505.9913831329677
 30
0.0
 11
166.1713973925784
 21
509.4975831329677
 31
0.0
  0
LINE
  5
1E7
330
1F
100
AcDbEntity
  8
0
  6
Continuous
 62
     7
370
    15
100
AcDbLine
 10
187.5713973925783
 20
505.9913831329677
 30
0.0
 11
166.1713973925784
 21
505.9913831329677
 31
0.0
  0
LINE
  5
1E8
330
1F
100
AcDbEntity
  8
0
  6
Continuous
 62
     7
370
    15
100
AcDbLine
 10
187.5713973925783
 20
489.9915831329678
 30
0.0
 11
187.5713973925783
 21
505.9913831329677
 31
0.0
  0
LINE
  5
1E9
330
1F
100
AcDbEntity
  8
0
  6
Continuous
 62
     7
370
    15
100
AcDbLine
 10
161.9314973925784
 20
489.9915831329678
 30
0.0
 11
187.5713973925783
 21
489.9915831329678
 31
0.0
  0
LINE
  5
1EA
330
1F
100
AcDbEntity
  8
0
  6
Continuous
 62
     7
370
    15
100
AcDbLine
 10
161.9314973925784
 20
486.0059872993233
 30
0.0
 11
161.9314973925784
 21
489.9915831329678
 31
0.0
  0
ARC
  5
1EB
330
1F
100
AcDbEntity
  8
0
  6
Continuous
 62
     7
370
    15
100
AcDbCircle
 10
165.7413973925783
 20
485.9783831329677
 30
0.0
 40
3.810000000000002
100
AcDbArc
 50
179.5848776728113
 51
270.0000000000008
  0
LINE
  5
1EC
330
1F
100
AcDbEntity
  8
0
  6
Continuous
 62
     7
370
    15
100
AcDbLine
 10
184.4320973925784
 20
482.1683831329677
 30
0.0
 11
165.7413973925783
 21
482.1683831329677
 31
0.0
  0
LINE
  5
1ED
330
1F
100
AcDbEntity
  8
0
  6
Continuous
 62
     7
370
    15
100
AcDbLine
 10
194.6720973925784
 20
485.5349831329677
 30
0.0
 11
184.4320973925784
 21
482.1683831329677
 31
0.0
  0
LINE
  5
1EE
330
1F
100
AcDbEntity
  8
0
  6
Continuous
 62
     7
370
    15
100
AcDbLine
 10
246.9912973925784
 20
485.5349831329678
 30
0.0
 11
194.6720973925784
 21
485.5349831329677
 31
0.0
  0
LINE
  5
1EF
330
1F
100
AcDbEntity
  8
0
  6
Continuous
 62
     7
370
    15
100
AcDbLine
 10
257.2312973925784
 20
482.1683831329678
 30
0.0
 11
246.9912973925784
 21
485.5349831329678
 31
0.0
  0
ARC
  5
1F0
330
1F
100
AcDbEntity
  8
0
  6
Continuous
 62
     7
370
    15
100
AcDbCircle
 10
257.2312973925784
 20
485.9783831329677
 30
0.0
 40
3.810000000000002
100
AcDbArc
 50
270.0000000000008
 51
0.0
  0
LINE
  5
1F1
330
1F
100
AcDbEntity
  8
0
  6
Continuous
 62
     7
370
    15
100
AcDbLine
 10
261.0412973925784
 20
545.3170831329678
 30
0.0
 11
261.0412973925784
 21
485.9783831329677
 31
0.0
  0
ARC
  5
1F2
330
1F
100
AcDbEntity
  8
0
  6
Continuous
 62
     7
370
    15
100
AcDbCircle
 10
257.2312973925784
 20
545.3170831329678
 30
0.0
 40
3.810000000000002
100
AcDbArc
 50
0.0
 51
90.0
  0
LINE
  5
1F3
330
1F
100
AcDbEntity
  8
0
  6
Continuous
 62
     7
370
    15
100
AcDbLine
 10
165.7414723925784
 20
549.1270831329678
 30
0.0
 11
257.2312973925784
 21
549.1270831329676
 31
0.0
  0
CIRCLE
  5
1F4
330
1F
100
AcDbEntity
  8
0
  6
Continuous
 62
     7
370
    15
100
AcDbCircle
 10
214.100426111817
 20
51.02217086994002
 30
0.0
 40
3.174999999999982
  0
CIRCLE
  5
1F5
330
1F
100
AcDbEntity
  8
0
  6
Continuous
 62
     7
370
    15
100
AcDbCircle
 10
214.100426111817
 20
139.92217086994
 30
0.0
 40
3.174999999999982
  0
CIRCLE
  5
1F6
330
1F
100
AcDbEntity
  8
0
  6
Continuous
 62
     7
370
    15
100
AcDbCircle
 10
168.355426111817
 20
65.80282086994002
 30
0.0
 40
1.355900405878685
  0
CIRCLE
  5
1F7
330
1F
100
AcDbEntity
  8
0
  6
Continuous
 62
     7
370
    15
100
AcDbCircle
 10
259.8453261118171
 20
125.14152086994
 30
0.0
 40
1.355900405878628
  0
ARC
  5
1F8
330
1F
100
AcDbEntity
  8
0
  6
Continuous
 62
     7
370
    15
100
AcDbCircle
 10
259.8453261118171
 20
65.80282086994002
 30
0.0
 40
3.810000000000023
100
AcDbArc
 50
270.0000000000008
 51
0.0
  0
LINE
  5
1F9
330
1F
100
AcDbEntity
  8
0
  6
Continuous
 62
     7
370
    15
100
AcDbLine
 10
249.605326111817
 20
65.35942086994002
 30
0.0
 11
259.8453261118171
 21
61.99282086993999
 31
0.0
  0
LINE
  5
1FA
330
1F
100
AcDbEntity
  8
0
  6
Continuous
 62
     7
370
    15
100
AcDbLine
 10
223.625426111817
 20
65.35942086994001
 30
0.0
 11
249.605326111817
 21
65.35942086994002
 31
0.0
  0
LINE
  5
1FB
330
1F
100
AcDbEntity
  8
0
  6
Continuous
 62
     7
370
    15
100
AcDbLine
 10
223.625426111817
 20
51.02217086994002
 30
0.0
 11
223.625426111817
 21
65.35942086994001
 31
0.0
  0
ARC
  5
1FC
330
1F
100
AcDbEntity
  8
0
  6
Continuous
 62
     7
370
    15
100
AcDbCircle
 10
214.100426111817
 20
51.02217086994002
 30
0.0
 40
9.525000000000005
100
AcDbArc
 50
180.0
 51
0.0
  0
LINE
  5
1FD
330
1F
100
AcDbEntity
  8
0
  6
Continuous
 62
     7
370
    15
100
AcDbLine
 10
204.575426111817
 20
51.02217086994002
 30
0.0
 11
204.575426111817
 21
65.35942086993999
 31
0.0
  0
LINE
  5
1FE
330
1F
100
AcDbEntity
  8
0
  6
Continuous
 62
     7
370
    15
100
AcDbLine
 10
187.0461261118171
 20
61.99282086994001
 30
0.0
 11
197.286126111817
 21
65.35942086993999
 31
0.0
  0
LINE
  5
1FF
330
1F
100
AcDbEntity
  8
0
  6
Continuous
 62
     7
370
    15
100
AcDbLine
 10
168.355426111817
 20
61.99282086994001
 30
0.0
 11
187.0461261118171
 21
61.99282086994001
 31
0.0
  0
ARC
  5
200
330
1F
100
AcDbEntity
  8
0
  6
Continuous
 62
     7
370
    15
100
AcDbCircle
 10
168.355426111817
 20
65.80282086994002
 30
0.0
 40
3.810000000000009
100
AcDbArc
 50
179.5848776728115
 51
270.0000000000008
  0
LINE
  5
201
330
1F
100
AcDbEntity
  8
0
  6
Continuous
 62
     7
370
    15
100
AcDbLine
 10
164.545526111817
 20
69.81602086994003
 30
0.0
 11
164.545526111817
 21
65.83042503629562
 31
0.0
  0
LINE
  5
202
330
1F
100
AcDbEntity
  8
0
  6
Continuous
 62
     7
370
    15
100
AcDbLine
 10
166.450526111817
 20
69.81602086994003
 30
0.0
 11
164.545526111817
 21
69.81602086994003
 31
0.0
  0
LINE
  5
203
330
1F
100
AcDbEntity
  8
0
  6
Continuous
 62
     7
370
    15
100
AcDbLine
 10
166.450526111817
 20
122.51212086994
 30
0.0
 11
166.450526111817
 21
69.81602086994003
 31
0.0
  0
LINE
  5
204
330
1F
100
AcDbEntity
  8
0
  6
Continuous
 62
     7
370
    15
100
AcDbLine
 10
164.545526111817
 20
122.51212086994
 30
0.0
 11
166.450526111817
 21
122.51212086994
 31
0.0
  0
LINE
  5
205
330
1F
100
AcDbEntity
  8
0
  6
Continuous
 62
     7
370
    15
100
AcDbLine
 10
164.545526111817
 20
125.1277187188432
 30
0.0
 11
164.545526111817
 21
122.51212086994
 31
0.0
  0
ARC
  5
206
330
1F
100
AcDbEntity
  8
0
  6
Continuous
 62
     7
370
    15
100
AcDbCircle
 10
168.355501111817
 20
125.14152086994
 30
0.0
 40
3.809999999999995
100
AcDbArc
 50
90.0
 51
180.2075608230251
  0
LINE
  5
207
330
1F
100
AcDbEntity
  8
0
  6
Continuous
 62
     7
370
    15
100
AcDbLine
 10
204.575426111817
 20
128.95152086994
 30
0.0
 11
204.575426111817
 21
139.92217086994
 31
0.0
  0
ARC
  5
208
330
1F
100
AcDbEntity
  8
0
  6
Continuous
 62
     7
370
    15
100
AcDbCircle
 10
214.100426111817
 20
139.92217086994
 30
0.0
 40
9.525000000000005
100
AcDbArc
 50
0.0
 51
180.0
  0
LINE
  5
209
330
1F
100
AcDbEntity
  8
0
  6
Continuous
 62
     7
370
    15
100
AcDbLine
 10
223.625426111817
 20
128.9515208699399
 30
0.0
 11
223.625426111817
 21
139.92217086994
 31
0.0
  0
LINE
  5
20A
330
1F
100
AcDbEntity
  8
0
  6
Continuous
 62
     7
370
    15
100
AcDbLine
 10
259.8453261118171
 20
128.9515208699399
 30
0.0
 11
223.625426111817
 21
128.9515208699399
 31
0.0
  0
ARC
  5
20B
330
1F
100
AcDbEntity
  8
0
  6
Continuous
 62
     7
370
    15
100
AcDbCircle
 10
259.8453261118171
 20
125.14152086994
 30
0.0
 40
3.809999999999931
100
AcDbArc
 50
0.0
 51
90.0
  0
LINE
  5
20C
330
1F
100
AcDbEntity
  8
0
  6
Continuous
 62
     7
370
    15
100
AcDbLine
 10
263.655326111817
 20
106.9868708699399
 30
0.0
 11
263.655326111817
 21
125.14152086994
 31
0.0
  0
LINE
  5
20D
330
1F
100
AcDbEntity
  8
0
  6
Continuous
 62
     7
370
    15
100
AcDbLine
 10
259.724676111817
 20
103.05622086994
 30
0.0
 11
263.655326111817
 21
106.9868708699399
 31
0.0
  0
LINE
  5
20E
330
1F
100
AcDbEntity
  8
0
  6
Continuous
 62
     7
370
    15
100
AcDbLine
 10
249.494826111817
 20
103.05622086994
 30
0.0
 11
259.724676111817
 21
103.05622086994
 31
0.0
  0
LINE
  5
20F
330
1F
100
AcDbEntity
  8
0
  6
Continuous
 62
     7
370
    15
100
AcDbLine
 10
249.494826111817
 20
89.84822086994004
 30
0.0
 11
249.494826111817
 21
103.05622086994
 31
0.0
  0
LINE
  5
210
330
1F
100
AcDbEntity
  8
0
  6
Continuous
 62
     7
370
    15
100
AcDbLine
 10
259.724676111817
 20
89.84822086994004
 30
0.0
 11
249.494826111817
 21
89.84822086994004
 31
0.0
  0
LINE
  5
211
330
1F
100
AcDbEntity
  8
0
  6
Continuous
 62
     7
370
    15
100
AcDbLine
 10
263.655326111817
 20
85.91757086994013
 30
0.0
 11
259.724676111817
 21
89.84822086994004
 31
0.0
  0
LINE
  5
212
330
1F
100
AcDbEntity
  8
0
  6
Continuous
 62
     7
370
    15
100
AcDbLine
 10
263.6553261118171
 20
65.80282086994002
 30
0.0
 11
263.655326111817
 21
85.91757086994013
 31
0.0
  0
CIRCLE
  5
213
330
1F
100
AcDbEntity
  8
0
  6
Continuous
 62
     7
370
    15
100
AcDbCircle
 10
259.8453261118171
 20
65.80282086994002
 30
0.0
 40
1.355900405878628
  0
CIRCLE
  5
214
330
1F
100
AcDbEntity
  8
0
  6
Continuous
 62
     7
370
    15
100
AcDbCircle
 10
168.355501111817
 20
125.14152086994
 30
0.0
 40
1.355900405878685
  0
LINE
  5
215
330
1F
100
AcDbEntity
  8
0
  6
Continuous
 62
     7
370
    15
100
AcDbLine
 10
204.575426111817
 20
128.95152086994
 30
0.0
 11
168.355501111817
 21
128.95152086994
 31
0.0
  0
LINE
  5
216
330
1F
100
AcDbEntity
  8
0
  6
Continuous
 62
     7
370
    15
100
AcDbLine
 10
197.286126111817
 20
65.35942086993999
 30
0.0
 11
204.575426111817
 21
65.35942086993999
 31
0.0
  0
ENDSEC
  0
SECTION
  2
OBJECTS
  0
DICTIONARY
  5
C
330
0
100
AcDbDictionary
281
     1
  3
ACAD_CIP_PREVIOUS_PRODUCT_INFO
350
263
  3
ACAD_COLOR
350
24A
  3
ACAD_GROUP
350
D
  3
ACAD_LAYOUT
350
1A
  3
ACAD_MATERIAL
350
218
  3
ACAD_MLEADERSTYLE
350
25F
  3
ACAD_MLINESTYLE
350
17
  3
ACAD_PLOTSETTINGS
350
19
  3
ACAD_PLOTSTYLENAME
350
E
  3
ACAD_SCALELIST
350
24D
  3
ACAD_TABLESTYLE
350
24B
  3
ACAD_VISUALSTYLE
350
231
  3
ACDB_RECOMPOSE_DATA
350
281
  3
AcDbVariableDictionary
350
26B
  0
DICTIONARY
  5
264
330
10
100
AcDbDictionary
280
     1
281
     1
  3
ADSK_XREC_LAYER_RECONCILED
360
265
  0
DICTIONARY
  5
266
330
44
100
AcDbDictionary
280
     1
281
     1
  3
ADSK_XREC_LAYER_RECONCILED
360
267
  0
XRECORD
  5
263
102
{ACAD_REACTORS
330
C
102
}
330
C
100
AcDbXrecord
280
     1
300
ACD
300
2012
300
ACD_F_S
  0
DICTIONARY
  5
24A
102
{ACAD_REACTORS
330
C
102
}
330
C
100
AcDbDictionary
281
     1
  0
DICTIONARY
  5
D
102
{ACAD_REACTORS
330
C
102
}
330
C
100
AcDbDictionary
281
     1
  0
DICTIONARY
  5
1A
102
{ACAD_REACTORS
330
C
102
}
330
C
100
AcDbDictionary
281
     1
  3
Layout1
350
1E
  3
Layout2
350
26
  3
Model
350
22
  0
DICTIONARY
  5
218
102
{ACAD_REACTORS
330
C
102
}
330
C
100
AcDbDictionary
281
     1
  3
ByBlock
350
221
  3
ByLayer
350
219
  3
Global
350
229
  0
DICTIONARY
  5
25F
102
{ACAD_REACTORS
330
C
102
}
330
C
100
AcDbDictionary
281
     1
  3
Standard
350
260
  0
DICTIONARY
  5
17
102
{ACAD_REACTORS
330
C
102
}
330
C
100
AcDbDictionary
281
     1
  3
Standard
350
18
  0
DICTIONARY
  5
19
102
{ACAD_REACTORS
330
C
102
}
330
C
100
AcDbDictionary
281
     1
  0
ACDBDICTIONARYWDFLT
  5
E
102
{ACAD_REACTORS
330
C
102
}
330
C
100
AcDbDictionary
281
     1
  3
Normal
350
F
100
AcDbDictionaryWithDefault
340
F
  0
DICTIONARY
  5
24D
102
{ACAD_REACTORS
330
C
102
}
330
C
100
AcDbDictionary
281
     1
  3
A0
350
24E
  3
A1
350
24F
  3
A2
350
250
  3
A3
350
251
  3
A4
350
252
  3
A5
350
253
  3
A6
350
254
  3
A7
350
255
  3
A8
350
256
  3
A9
350
257
  3
B0
350
258
  3
B1
350
259
  3
B2
350
25A
  3
B3
350
25B
  3
B4
350
25C
  3
B5
350
25D
  3
B6
350
25E
  0
DICTIONARY
  5
24B
102
{ACAD_REACTORS
330
C
102
}
330
C
100
AcDbDictionary
281
     1
  3
Standard
350
24C
  0
DICTIONARY
  5
231
102
{ACAD_REACTORS
330
C
102
}
330
C
100
AcDbDictionary
281
     1
  3
2dWireframe
350
237
  3
Basic
350
236
  3
Brighten
350
23D
  3
ColorChange
350
241
  3
Conceptual
350
23A
  3
Dim
350
23C
  3
EdgeColorOff
350
249
  3
Facepattern
350
240
  3
Flat
350
232
  3
FlatWithEdges
350
233
  3
Gouraud
350
234
  3
GouraudWithEdges
350
235
  3
Hidden
350
239
  3
JitterOff
350
247
  3
Linepattern
350
23F
  3
OverhangOff
350
248
  3
Realistic
350
23B
  3
Shaded
350
246
  3
Shaded with edges
350
245
  3
Shades of Gray
350
242
  3
Sketchy
350
243
  3
Thicken
350
23E
  3
Wireframe
350
238
  3
X-Ray
350
244
  0
XRECORD
  5
281
102
{ACAD_REACTORS
330
C
102
}
330
C
100
AcDbXrecord
280
     1
 90
        1
330
24C
  0
DICTIONARY
  5
26B
102
{ACAD_REACTORS
330
C
102
}
330
C
100
AcDbDictionary
281
     1
  3
CANNOSCALE
350
26F
  3
CMLEADERSTYLE
350
26D
  3
CTABLESTYLE
350
26C
  3
LAYEREVAL
350
271
  3
LAYERNOTIFY
350
272
  3
LIGHTINGUNITS
350
270
  3
MSLTSCALE
350
26E
  0
XRECORD
  5
265
102
{ACAD_REACTORS
330
264
102
}
330
264
100
AcDbXrecord
280
     1
290
     1
  0
XRECORD
  5
267
102
{ACAD_REACTORS
330
266
102
}
330
266
100
AcDbXrecord
280
     1
290
     1
  0
LAYOUT
  5
1E
102
{ACAD_REACTORS
330
1A
102
}
330
1A
100
AcDbPlotSettings
  1

  2
none_device
  4

  6

 40
0.0
 41
0.0
 42
0.0
 43
0.0
 44
0.0
 45
0.0
 46
0.0
 47
0.0
 48
0.0
 49
0.0
140
0.0
141
0.0
142
1.0
143
1.0
 70
   688
 72
     0
 73
     0
 74
     5
  7

 75
    16
147
1.0
 76
     0
 77
     2
 78
   300
148
0.0
149
0.0
100
AcDbLayout
  1
Layout1
 70
     1
 71
     1
 10
0.0
 20
0.0
 11
420.0
 21
297.0
 12
0.0
 22
0.0
 32
0.0
 14
1.000000000000000E+20
 24
1.000000000000000E+20
 34
1.000000000000000E+20
 15
-1.000000000000000E+20
 25
-1.000000000000000E+20
 35
-1.000000000000000E+20
146
0.0
 13
0.0
 23
0.0
 33
0.0
 16
1.0
 26
0.0
 36
0.0
 17
0.0
 27
1.0
 37
0.0
 76
     0
330
1B
  0
LAYOUT
  5
26
102
{ACAD_REACTORS
330
1A
102
}
330
1A
100
AcDbPlotSettings
  1

  2
none_device
  4

  6

 40
0.0
 41
0.0
 42
0.0
 43
0.0
 44
0.0
 45
0.0
 46
0.0
 47
0.0
 48
0.0
 49
0.0
140
0.0
141
0.0
142
1.0
143
1.0
 70
   688
 72
     0
 73
     0
 74
     5
  7

 75
    16
147
1.0
 76
     0
 77
     2
 78
   300
148
0.0
149
0.0
100
AcDbLayout
  1
Layout2
 70
     1
 71
     2
 10
0.0
 20
0.0
 11
0.0
 21
0.0
 12
0.0
 22
0.0
 32
0.0
 14
0.0
 24
0.0
 34
0.0
 15
0.0
 25
0.0
 35
0.0
146
0.0
 13
0.0
 23
0.0
 33
0.0
 16
1.0
 26
0.0
 36
0.0
 17
0.0
 27
1.0
 37
0.0
 76
     0
330
23
  0
LAYOUT
  5
22
102
{ACAD_REACTORS
330
1A
102
}
330
1A
100
AcDbPlotSettings
  1

  2
none_device
  4

  6

 40
0.0
 41
0.0
 42
0.0
 43
0.0
 44
0.0
 45
0.0
 46
0.0
 47
0.0
 48
0.0
 49
0.0
140
0.0
141
0.0
142
1.0
143
1.0
 70
  1712
 72
     0
 73
     0
 74
     0
  7

 75
     0
147
1.0
 76
     0
 77
     2
 78
   300
148
0.0
149
0.0
100
AcDbLayout
  1
Model
 70
     1
 71
     0
 10
0.0
 20
0.0
 11
863.5999999999999
 21
558.8
 12
0.0
 22
0.0
 32
0.0
 14
0.0
 24
0.0
 34
0.0
 15
863.5999999999999
 25
558.8
 35
0.0
146
0.0
 13
0.0
 23
0.0
 33
0.0
 16
1.0
 26
0.0
 36
0.0
 17
0.0
 27
1.0
 37
0.0
 76
     0
330
1F
331
29
  0
MATERIAL
  5
221
102
{ACAD_XDICTIONARY
360
222
102
}
102
{ACAD_REACTORS
330
218
102
}
330
218
100
AcDbMaterial
  1
ByBlock
 72
     0
 43
0.0008202099737533
 43
0.0
 43
0.0
 43
0.0
 43
0.0
 43
0.0008202099737533
 43
0.0
 43
0.0
 43
0.0
 43
0.0
 43
1.0
 43
0.0
 43
0.0
 43
0.0
 43
0.0
 43
1.0
 77
     0
 47
0.0008202099737533
 47
0.0
 47
0.0
 47
0.0
 47
0.0
 47
0.0008202099737533
 47
0.0
 47
0.0
 47
0.0
 47
0.0
 47
1.0
 47
0.0
 47
0.0
 47
0.0
 47
0.0
 47
1.0
171
     0
 49
0.0008202099737533
 49
0.0
 49
0.0
 49
0.0
 49
0.0
 49
0.0008202099737533
 49
0.0
 49
0.0
 49
0.0
 49
0.0
 49
1.0
 49
0.0
 49
0.0
 49
0.0
 49
0.0
 49
1.0
175
     0
142
0.0008202099737533
142
0.0
142
0.0
142
0.0
142
0.0
142
0.0008202099737533
142
0.0
142
0.0
142
0.0
142
0.0
142
1.0
142
0.0
142
0.0
142
0.0
142
0.0
142
1.0
179
     0
144
0.0008202099737533
144
0.0
144
0.0
144
0.0
144
0.0
144
0.0008202099737533
144
0.0
144
0.0
144
0.0
144
0.0
144
1.0
144
0.0
144
0.0
144
0.0
144
0.0
144
1.0
147
0.0008202099737533
147
0.0
147
0.0
147
0.0
147
0.0
147
0.0008202099737533
147
0.0
147
0.0
147
0.0
147
0.0
147
1.0
147
0.0
147
0.0
147
0.0
147
0.0
147
1.0
  0
MATERIAL
  5
219
102
{ACAD_XDICTIONARY
360
21A
102
}
102
{ACAD_REACTORS
330
218
102
}
330
218
100
AcDbMaterial
  1
ByLayer
 72
     0
 43
0.0008202099737533
 43
0.0
 43
0.0
 43
0.0
 43
0.0
 43
0.0008202099737533
 43
0.0
 43
0.0
 43
0.0
 43
0.0
 43
1.0
 43
0.0
 43
0.0
 43
0.0
 43
0.0
 43
1.0
 77
     0
 47
0.0008202099737533
 47
0.0
 47
0.0
 47
0.0
 47
0.0
 47
0.0008202099737533
 47
0.0
 47
0.0
 47
0.0
 47
0.0
 47
1.0
 47
0.0
 47
0.0
 47
0.0
 47
0.0
 47
1.0
171
     0
 49
0.0008202099737533
 49
0.0
 49
0.0
 49
0.0
 49
0.0
 49
0.0008202099737533
 49
0.0
 49
0.0
 49
0.0
 49
0.0
 49
1.0
 49
0.0
 49
0.0
 49
0.0
 49
0.0
 49
1.0
175
     0
142
0.0008202099737533
142
0.0
142
0.0
142
0.0
142
0.0
142
0.0008202099737533
142
0.0
142
0.0
142
0.0
142
0.0
142
1.0
142
0.0
142
0.0
142
0.0
142
0.0
142
1.0
179
     0
144
0.0008202099737533
144
0.0
144
0.0
144
0.0
144
0.0
144
0.0008202099737533
144
0.0
144
0.0
144
0.0
144
0.0
144
1.0
144
0.0
144
0.0
144
0.0
144
0.0
144
1.0
147
0.0008202099737533
147
0.0
147
0.0
147
0.0
147
0.0
147
0.0008202099737533
147
0.0
147
0.0
147
0.0
147
0.0
147
1.0
147
0.0
147
0.0
147
0.0
147
0.0
147
1.0
  0
MATERIAL
  5
229
102
{ACAD_XDICTIONARY
360
22A
102
}
102
{ACAD_REACTORS
330
218
102
}
330
218
100
AcDbMaterial
  1
Global
 72
     0
 43
0.0008202099737533
 43
0.0
 43
0.0
 43
0.0
 43
0.0
 43
0.0008202099737533
 43
0.0
 43
0.0
 43
0.0
 43
0.0
 43
1.0
 43
0.0
 43
0.0
 43
0.0
 43
0.0
 43
1.0
 77
     0
 47
0.0008202099737533
 47
0.0
 47
0.0
 47
0.0
 47
0.0
 47
0.0008202099737533
 47
0.0
 47
0.0
 47
0.0
 47
0.0
 47
1.0
 47
0.0
 47
0.0
 47
0.0
 47
0.0
 47
1.0
171
     0
 49
0.0008202099737533
 49
0.0
 49
0.0
 49
0.0
 49
0.0
 49
0.0008202099737533
 49
0.0
 49
0.0
 49
0.0
 49
0.0
 49
1.0
 49
0.0
 49
0.0
 49
0.0
 49
0.0
 49
1.0
175
     0
142
0.0008202099737533
142
0.0
142
0.0
142
0.0
142
0.0
142
0.0008202099737533
142
0.0
142
0.0
142
0.0
142
0.0
142
1.0
142
0.0
142
0.0
142
0.0
142
0.0
142
1.0
179
     0
144
0.0008202099737533
144
0.0
144
0.0
144
0.0
144
0.0
144
0.0008202099737533
144
0.0
144
0.0
144
0.0
144
0.0
144
1.0
144
0.0
144
0.0
144
0.0
144
0.0
144
1.0
147
0.0008202099737533
147
0.0
147
0.0
147
0.0
147
0.0
147
0.0008202099737533
147
0.0
147
0.0
147
0.0
147
0.0
147
1.0
147
0.0
147
0.0
147
0.0
147
0.0
147
1.0
  0
MLEADERSTYLE
  5
260
102
{ACAD_XDICTIONARY
360
27F
102
}
102
{ACAD_REACTORS
330
25F
102
}
330
25F
100
AcDbMLeaderStyle
179
     2
170
     2
171
     1
172
     0
 90
        2
 40
0.0
 41
0.0
173
     1
 91
-1056964608
340
14
 92
       -2
290
     1
 42
2.0
291
     1
 43
0.36
  3
Standard
 44
4.0
300

342
11
174
     1
178
     6
175
     1
176
     0
 93
-1056964608
 45
4.0
292
     0
297
     0
 46
4.0
 94
-1056964608
 47
1.0
 49
1.0
140
1.0
293
     1
141
0.0
294
     1
177
     0
142
1.0
295
     0
296
     0
143
0.125
271
     0
272
     9
273
     9
  0
MLINESTYLE
  5
18
102
{ACAD_REACTORS
330
17
102
}
330
17
100
AcDbMlineStyle
  2
STANDARD
 70
     0
  3

 62
   256
 51
90.0
 52
90.0
 71
     2
 49
0.5
 62
   256
  6
BYLAYER
 49
-0.5
 62
   256
  6
BYLAYER
  0
ACDBPLACEHOLDER
  5
F
102
{ACAD_REACTORS
330
E
102
}
330
E
  0
SCALE
  5
24E
102
{ACAD_REACTORS
330
24D
102
}
330
24D
100
AcDbScale
 70
     0
300
1:1
140
1.0
141
1.0
290
     1
  0
SCALE
  5
24F
102
{ACAD_REACTORS
330
24D
102
}
330
24D
100
AcDbScale
 70
     0
300
1:2
140
1.0
141
2.0
290
     0
  0
SCALE
  5
250
102
{ACAD_REACTORS
330
24D
102
}
330
24D
100
AcDbScale
 70
     0
300
1:4
140
1.0
141
4.0
290
     0
  0
SCALE
  5
251
102
{ACAD_REACTORS
330
24D
102
}
330
24D
100
AcDbScale
 70
     0
300
1:5
140
1.0
141
5.0
290
     0
  0
SCALE
  5
252
102
{ACAD_REACTORS
330
24D
102
}
330
24D
100
AcDbScale
 70
     0
300
1:8
140
1.0
141
8.0
290
     0
  0
SCALE
  5
253
102
{ACAD_REACTORS
330
24D
102
}
330
24D
100
AcDbScale
 70
     0
300
1:10
140
1.0
141
10.0
290
     0
  0
SCALE
  5
254
102
{ACAD_REACTORS
330
24D
102
}
330
24D
100
AcDbScale
 70
     0
300
1:16
140
1.0
141
16.0
290
     0
  0
SCALE
  5
255
102
{ACAD_REACTORS
330
24D
102
}
330
24D
100
AcDbScale
 70
     0
300
1:20
140
1.0
141
20.0
290
     0
  0
SCALE
  5
256
102
{ACAD_REACTORS
330
24D
102
}
330
24D
100
AcDbScale
 70
     0
300
1:30
140
1.0
141
30.0
290
     0
  0
SCALE
  5
257
102
{ACAD_REACTORS
330
24D
102
}
330
24D
100
AcDbScale
 70
     0
300
1:40
140
1.0
141
40.0
290
     0
  0
SCALE
  5
258
102
{ACAD_REACTORS
330
24D
102
}
330
24D
100
AcDbScale
 70
     0
300
1:50
140
1.0
141
50.0
290
     0
  0
SCALE
  5
259
102
{ACAD_REACTORS
330
24D
102
}
330
24D
100
AcDbScale
 70
     0
300
1:100
140
1.0
141
100.0
290
     0
  0
SCALE
  5
25A
102
{ACAD_REACTORS
330
24D
102
}
330
24D
100
AcDbScale
 70
     0
300
2:1
140
2.0
141
1.0
290
     0
  0
SCALE
  5
25B
102
{ACAD_REACTORS
330
24D
102
}
330
24D
100
AcDbScale
 70
     0
300
4:1
140
4.0
141
1.0
290
     0
  0
SCALE
  5
25C
102
{ACAD_REACTORS
330
24D
102
}
330
24D
100
AcDbScale
 70
     0
300
8:1
140
8.0
141
1.0
290
     0
  0
SCALE
  5
25D
102
{ACAD_REACTORS
330
24D
102
}
330
24D
100
AcDbScale
 70
     0
300
10:1
140
10.0
141
1.0
290
     0
  0
SCALE
  5
25E
102
{ACAD_REACTORS
330
24D
102
}
330
24D
100
AcDbScale
 70
     0
300
100:1
140
100.0
141
1.0
290
     0
  0
TABLESTYLE
  5
24C
102
{ACAD_XDICTIONARY
360
27D
102
}
102
{ACAD_REACTORS
330
24B
102
}
330
24B
100
AcDbTableStyle
280
     0
  3
Standard
 70
     0
 71
     0
 40
1.5
 41
1.5
280
     0
281
     0
  7
Standard
140
4.5
170
     2
 62
     0
 63
     7
283
     0
 90
      512
 91
        0
  1

274
    -2
284
     1
 64
     0
275
    -2
285
     1
 65
     0
276
    -2
286
     1
 66
     0
277
    -2
287
     1
 67
     0
278
    -2
288
     1
 68
     0
279
    -2
289
     1
 69
     0
  7
Standard
140
6.0
170
     5
 62
     0
 63
     7
283
     0
 90
      512
 91
        0
  1

274
    -2
284
     1
 64
     0
275
    -2
285
     1
 65
     0
276
    -2
286
     1
 66
     0
277
    -2
287
     1
 67
     0
278
    -2
288
     1
 68
     0
279
    -2
289
     1
 69
     0
  7
Standard
140
4.5
170
     5
 62
     0
 63
     7
283
     0
 90
      512
 91
        0
  1

274
    -2
284
     1
 64
     0
275
    -2
285
     1
 65
     0
276
    -2
286
     1
 66
     0
277
    -2
287
     1
 67
     0
278
    -2
288
     1
 68
     0
279
    -2
289
     1
 69
     0
  0
VISUALSTYLE
  5
237
102
{ACAD_REACTORS
330
231
102
}
330
231
100
AcDbVisualStyle
  2
2dWireframe
 70
     4
177
     2
291
     0
 71
     0
176
     1
 72
     2
176
     1
 73
     0
176
     1
 90
        0
176
     1
 40
0.6
176
     1
 41
30.0
176
     1
 63
     7
421
 16777215
176
     1
 74
     1
176
     1
 91
        4
176
     1
 64
     7
176
     1
 65
   257
176
     1
 75
     1
176
     1
175
     1
176
     1
 42
1.0
176
     1
 92
        0
176
     1
 66
   257
176
     1
 43
1.0
176
     1
 76
     1
176
     1
 77
     6
176
     1
 78
     2
176
     1
 67
     7
176
     1
 79
     5
176
     1
170
     0
176
     1
171
     0
176
     1
290
     0
176
     1
 93
        1
176
     1
 44
0.0
176
     1
173
     0
176
     1
  0
VISUALSTYLE
  5
236
102
{ACAD_REACTORS
330
231
102
}
330
231
100
AcDbVisualStyle
  2
Basic
 70
     7
177
     2
291
     1
 71
     1
176
     1
 72
     0
176
     1
 73
     1
176
     1
 90
        0
176
     1
 40
0.6
176
     1
 41
30.0
176
     1
 63
     7
421
 16777215
176
     1
 74
     0
176
     1
 91
        4
176
     1
 64
     7
176
     1
 65
   257
176
     1
 75
     1
176
     1
175
     1
176
     1
 42
1.0
176
     1
 92
        8
176
     1
 66
     7
176
     1
 43
1.0
176
     1
 76
     1
176
     1
 77
     6
176
     1
 78
     2
176
     1
 67
     7
176
     1
 79
     5
176
     1
170
     0
176
     1
171
     0
176
     1
290
     0
176
     1
 93
        1
176
     1
 44
0.0
176
     1
173
     0
176
     1
  0
VISUALSTYLE
  5
23D
102
{ACAD_REACTORS
330
231
102
}
330
231
100
AcDbVisualStyle
  2
Brighten
 70
    12
177
     2
291
     1
 71
     2
176
     1
 72
     2
176
     1
 73
     0
176
     1
 90
        0
176
     1
 40
0.6
176
     1
 41
30.0
176
     1
 63
     7
421
 16777215
176
     1
 74
     1
176
     1
 91
        4
176
     1
 64
     7
176
     1
 65
   257
176
     1
 75
     1
176
     1
175
     1
176
     1
 42
1.0
176
     1
 92
        8
176
     1
 66
     7
176
     1
 43
1.0
176
     1
 76
     1
176
     1
 77
     6
176
     1
 78
     2
176
     1
 67
     7
176
     1
 79
     5
176
     1
170
     0
176
     1
171
     0
176
     1
290
     0
176
     1
 93
        1
176
     1
 44
50.0
176
     1
173
     0
176
     1
  0
VISUALSTYLE
  5
241
102
{ACAD_REACTORS
330
231
102
}
330
231
100
AcDbVisualStyle
  2
ColorChange
 70
    16
177
     2
291
     1
 71
     2
176
     1
 72
     2
176
     1
 73
     3
176
     1
 90
        0
176
     1
 40
0.6
176
     1
 41
30.0
176
     1
 63
     8
421
  8421504
176
     1
 74
     1
176
     1
 91
        4
176
     1
 64
     7
176
     1
 65
   257
176
     1
 75
     1
176
     1
175
     1
176
     1
 42
1.0
176
     1
 92
        8
176
     1
 66
     8
424
  8421504
176
     1
 43
1.0
176
     1
 76
     1
176
     1
 77
     6
176
     1
 78
     2
176
     1
 67
     7
176
     1
 79
     5
176
     1
170
     0
176
     1
171
     0
176
     1
290
     0
176
     1
 93
        1
176
     1
 44
0.0
176
     1
173
     0
176
     1
  0
VISUALSTYLE
  5
23A
102
{ACAD_REACTORS
330
231
102
}
330
231
100
AcDbVisualStyle
  2
Conceptual
 70
     9
177
     2
291
     0
 71
     3
176
     1
 72
     2
176
     1
 73
     0
176
     1
 90
        0
176
     1
 40
0.6
176
     1
 41
30.0
176
     1
 63
     7
421
 16777215
176
     1
 74
     2
176
     1
 91
        2
176
     1
 64
     7
176
     1
 65
   257
176
     1
 75
     1
176
     1
175
     1
176
     1
 42
179.0
176
     1
 92
        8
176
     1
 66
     7
176
     1
 43
1.0
176
     1
 76
     1
176
     1
 77
     6
176
     1
 78
     2
176
     1
 67
     7
176
     1
 79
     3
176
     1
170
     0
176
     1
171
     0
176
     1
290
     0
176
     1
 93
        1
176
     1
 44
0.0
176
     1
173
     0
176
     1
  0
VISUALSTYLE
  5
23C
102
{ACAD_REACTORS
330
231
102
}
330
231
100
AcDbVisualStyle
  2
Dim
 70
    11
177
     2
291
     1
 71
     2
176
     1
 72
     2
176
     1
 73
     0
176
     1
 90
        0
176
     1
 40
0.6
176
     1
 41
30.0
176
     1
 63
     7
421
 16777215
176
     1
 74
     1
176
     1
 91
        4
176
     1
 64
     7
176
     1
 65
   257
176
     1
 75
     1
176
     1
175
     1
176
     1
 42
1.0
176
     1
 92
        8
176
     1
 66
     7
176
     1
 43
1.0
176
     1
 76
     1
176
     1
 77
     6
176
     1
 78
     2
176
     1
 67
     7
176
     1
 79
     5
176
     1
170
     0
176
     1
171
     0
176
     1
290
     0
176
     1
 93
        1
176
     1
 44
-50.0
176
     1
173
     0
176
     1
  0
VISUALSTYLE
  5
249
102
{ACAD_REACTORS
330
231
102
}
330
231
100
AcDbVisualStyle
  2
EdgeColorOff
 70
    22
177
     2
291
     1
 71
     2
176
     0
 72
     2
176
     0
 73
     0
176
     0
 90
        0
176
     0
 40
0.6
176
     0
 41
30.0
176
     0
 63
     7
421
 16777215
176
     0
 74
     1
176
     0
 91
        4
176
     0
 64
     7
176
     0
 65
   257
176
     0
 75
     1
176
     0
175
     1
176
     0
 42
1.0
176
     0
 92
        8
176
     2
 66
     7
176
     0
 43
1.0
176
     0
 76
     1
176
     0
 77
     6
176
     0
 78
     2
176
     0
 67
     7
176
     0
 79
     5
176
     0
170
     0
176
     0
171
     0
176
     0
290
     0
176
     0
 93
        1
176
     0
 44
0.0
176
     0
173
     0
176
     0
  0
VISUALSTYLE
  5
240
102
{ACAD_REACTORS
330
231
102
}
330
231
100
AcDbVisualStyle
  2
Facepattern
 70
    15
177
     2
291
     1
 71
     2
176
     1
 72
     2
176
     1
 73
     0
176
     1
 90
        0
176
     1
 40
0.6
176
     1
 41
30.0
176
     1
 63
     7
421
 16777215
176
     1
 74
     1
176
     1
 91
        4
176
     1
 64
     7
176
     1
 65
   257
176
     1
 75
     1
176
     1
175
     1
176
     1
 42
1.0
176
     1
 92
        8
176
     1
 66
     7
176
     1
 43
1.0
176
     1
 76
     1
176
     1
 77
     6
176
     1
 78
     2
176
     1
 67
     7
176
     1
 79
     5
176
     1
170
     0
176
     1
171
     0
176
     1
290
     0
176
     1
 93
        1
176
     1
 44
0.0
176
     1
173
     0
176
     1
  0
VISUALSTYLE
  5
232
102
{ACAD_REACTORS
330
231
102
}
330
231
100
AcDbVisualStyle
  2
Flat
 70
     0
177
     2
291
     1
 71
     2
176
     1
 72
     1
176
     1
 73
     1
176
     1
 90
        2
176
     1
 40
0.6
176
     1
 41
30.0
176
     1
 63
     7
421
 16777215
176
     1
 74
     0
176
     1
 91
        0
176
     1
 64
     7
176
     1
 65
   257
176
     1
 75
     1
176
     1
175
     1
176
     1
 42
1.0
176
     1
 92
        8
176
     1
 66
     7
176
     1
 43
1.0
176
     1
 76
     1
176
     1
 77
     6
176
     1
 78
     2
176
     1
 67
     7
176
     1
 79
     5
176
     1
170
     0
176
     1
171
     0
176
     1
290
     0
176
     1
 93
       13
176
     1
 44
0.0
176
     1
173
     0
176
     1
  0
VISUALSTYLE
  5
233
102
{ACAD_REACTORS
330
231
102
}
330
231
100
AcDbVisualStyle
  2
FlatWithEdges
 70
     1
177
     2
291
     1
 71
     2
176
     1
 72
     1
176
     1
 73
     1
176
     1
 90
        2
176
     1
 40
0.6
176
     1
 41
30.0
176
     1
 63
     7
421
 16777215
176
     1
 74
     1
176
     1
 91
        0
176
     1
 64
     7
176
     1
 65
   257
176
     1
 75
     1
176
     1
175
     1
176
     1
 42
1.0
176
     1
 92
        0
176
     1
 66
   257
176
     1
 43
1.0
176
     1
 76
     1
176
     1
 77
     6
176
     1
 78
     2
176
     1
 67
     7
176
     1
 79
     5
176
     1
170
     0
176
     1
171
     0
176
     1
290
     0
176
     1
 93
       13
176
     1
 44
0.0
176
     1
173
     0
176
     1
  0
VISUALSTYLE
  5
234
102
{ACAD_REACTORS
330
231
102
}
330
231
100
AcDbVisualStyle
  2
Gouraud
 70
     2
177
     2
291
     1
 71
     2
176
     1
 72
     2
176
     1
 73
     1
176
     1
 90
        2
176
     1
 40
0.6
176
     1
 41
30.0
176
     1
 63
     7
421
 16777215
176
     1
 74
     0
176
     1
 91
        0
176
     1
 64
     7
176
     1
 65
   257
176
     1
 75
     1
176
     1
175
     1
176
     1
 42
1.0
176
     1
 92
        0
176
     1
 66
     7
176
     1
 43
1.0
176
     1
 76
     1
176
     1
 77
     6
176
     1
 78
     2
176
     1
 67
     7
176
     1
 79
     5
176
     1
170
     0
176
     1
171
     0
176
     1
290
     0
176
     1
 93
       13
176
     1
 44
0.0
176
     1
173
     0
176
     1
  0
VISUALSTYLE
  5
235
102
{ACAD_REACTORS
330
231
102
}
330
231
100
AcDbVisualStyle
  2
GouraudWithEdges
 70
     3
177
     2
291
     1
 71
     2
176
     1
 72
     2
176
     1
 73
     1
176
     1
 90
        2
176
     1
 40
0.6
176
     1
 41
30.0
176
     1
 63
     7
421
 16777215
176
     1
 74
     1
176
     1
 91
        0
176
     1
 64
     7
176
     1
 65
   257
176
     1
 75
     1
176
     1
175
     1
176
     1
 42
1.0
176
     1
 92
        0
176
     1
 66
   257
176
     1
 43
1.0
176
     1
 76
     1
176
     1
 77
     6
176
     1
 78
     2
176
     1
 67
     7
176
     1
 79
     5
176
     1
170
     0
176
     1
171
     0
176
     1
290
     0
176
     1
 93
       13
176
     1
 44
0.0
176
     1
173
     0
176
     1
  0
VISUALSTYLE
  5
239
102
{ACAD_REACTORS
330
231
102
}
330
231
100
AcDbVisualStyle
  2
Hidden
 70
     6
177
     2
291
     0
 71
     1
176
     1
 72
     2
176
     1
 73
     2
176
     1
 90
        0
176
     1
 40
0.6
176
     1
 41
30.0
176
     1
 63
     7
421
 16777215
176
     1
 74
     2
176
     1
 91
        2
176
     1
 64
     7
176
     1
 65
   257
176
     1
 75
     2
176
     1
175
     1
176
     1
 42
40.0
176
     1
 92
        0
176
     1
 66
   257
176
     1
 43
1.0
176
     1
 76
     1
176
     1
 77
     6
176
     1
 78
     2
176
     1
 67
     7
176
     1
 79
     3
176
     1
170
     0
176
     1
171
     0
176
     1
290
     0
176
     1
 93
        1
176
     1
 44
0.0
176
     1
173
     0
176
     1
  0
VISUALSTYLE
  5
247
102
{ACAD_REACTORS
330
231
102
}
330
231
100
AcDbVisualStyle
  2
JitterOff
 70
    20
177
     2
291
     1
 71
     2
176
     0
 72
     2
176
     0
 73
     0
176
     0
 90
        0
176
     0
 40
0.6
176
     0
 41
30.0
176
     0
 63
     7
421
 16777215
176
     0
 74
     1
176
     0
 91
        4
176
     0
 64
     7
176
     0
 65
   257
176
     0
 75
     1
176
     0
175
     1
176
     0
 42
1.0
176
     0
 92
       10
176
     2
 66
     7
176
     0
 43
1.0
176
     0
 76
     1
176
     0
 77
     6
176
     0
 78
     2
176
     0
 67
     7
176
     0
 79
     5
176
     0
170
     0
176
     0
171
     0
176
     0
290
     0
176
     0
 93
        1
176
     0
 44
0.0
176
     0
173
     0
176
     0
  0
VISUALSTYLE
  5
23F
102
{ACAD_REACTORS
330
231
102
}
330
231
100
AcDbVisualStyle
  2
Linepattern
 70
    14
177
     2
291
     1
 71
     2
176
     1
 72
     2
176
     1
 73
     0
176
     1
 90
        0
176
     1
 40
0.6
176
     1
 41
30.0
176
     1
 63
     7
421
 16777215
176
     1
 74
     1
176
     1
 91
        4
176
     1
 64
     7
176
     1
 65
   257
176
     1
 75
     7
176
     1
175
     7
176
     1
 42
1.0
176
     1
 92
        8
176
     1
 66
     7
176
     1
 43
1.0
176
     1
 76
     1
176
     1
 77
     6
176
     1
 78
     2
176
     1
 67
     7
176
     1
 79
     5
176
     1
170
     0
176
     1
171
     0
176
     1
290
     0
176
     1
 93
        1
176
     1
 44
0.0
176
     1
173
     0
176
     1
  0
VISUALSTYLE
  5
248
102
{ACAD_REACTORS
330
231
102
}
330
231
100
AcDbVisualStyle
  2
OverhangOff
 70
    21
177
     2
291
     1
 71
     2
176
     0
 72
     2
176
     0
 73
     0
176
     0
 90
        0
176
     0
 40
0.6
176
     0
 41
30.0
176
     0
 63
     7
421
 16777215
176
     0
 74
     1
176
     0
 91
        4
176
     0
 64
     7
176
     0
 65
   257
176
     0
 75
     1
176
     0
175
     1
176
     0
 42
1.0
176
     0
 92
        9
176
     2
 66
     7
176
     0
 43
1.0
176
     0
 76
     1
176
     0
 77
     6
176
     0
 78
     2
176
     0
 67
     7
176
     0
 79
     5
176
     0
170
     0
176
     0
171
     0
176
     0
290
     0
176
     0
 93
        1
176
     0
 44
0.0
176
     0
173
     0
176
     0
  0
VISUALSTYLE
  5
23B
102
{ACAD_REACTORS
330
231
102
}
330
231
100
AcDbVisualStyle
  2
Realistic
 70
     8
177
     2
291
     0
 71
     2
176
     1
 72
     3
176
     1
 73
     0
176
     1
 90
        2
176
     1
 40
0.6
176
     1
 41
30.0
176
     1
 63
     7
421
 16777215
176
     1
 74
     0
176
     1
 91
        0
176
     1
 64
     7
176
     1
 65
   257
176
     1
 75
     1
176
     1
175
     1
176
     1
 42
1.0
176
     1
 92
        8
176
     1
 66
   257
176
     1
 43
1.0
176
     1
 76
     1
176
     1
 77
     6
176
     1
 78
     2
176
     1
 67
     7
176
     1
 79
     3
176
     1
170
     0
176
     1
171
     0
176
     1
290
     0
176
     1
 93
       13
176
     1
 44
0.0
176
     1
173
     0
176
     1
  0
VISUALSTYLE
  5
246
102
{ACAD_REACTORS
330
231
102
}
330
231
100
AcDbVisualStyle
  2
Shaded
 70
    27
177
     2
291
     0
 71
     2
176
     1
 72
     2
176
     1
 73
     1
176
     1
 90
        2
176
     1
 40
0.6
176
     1
 41
30.0
176
     1
 63
     7
421
 16777215
176
     1
 74
     0
176
     1
 91
        4
176
     1
 64
     7
176
     1
 65
   257
176
     1
 75
     1
176
     1
175
     1
176
     1
 42
1.0
176
     1
 92
        8
176
     1
 66
   257
176
     1
 43
1.0
176
     1
 76
     1
176
     1
 77
     6
176
     1
 78
     2
176
     1
 67
     8
425
  7895160
176
     1
 79
     3
176
     1
170
     0
176
     1
171
     0
176
     1
290
     0
176
     1
 93
        5
176
     1
 44
0.0
176
     1
173
     0
176
     1
  0
VISUALSTYLE
  5
245
102
{ACAD_REACTORS
330
231
102
}
330
231
100
AcDbVisualStyle
  2
Shaded with edges
 70
    26
177
     2
291
     0
 71
     2
176
     1
 72
     2
176
     1
 73
     1
176
     1
 90
        2
176
     1
 40
0.6
176
     1
 41
30.0
176
     1
 63
     7
421
 16777215
176
     1
 74
     1
176
     1
 91
       10
176
     1
 64
     7
176
     1
 65
   257
176
     1
 75
     2
176
     1
175
     1
176
     1
 42
1.0
176
     1
 92
        8
176
     1
 66
   257
176
     1
 43
1.0
176
     1
 76
     1
176
     1
 77
     6
176
     1
 78
     2
176
     1
 67
     7
176
     1
 79
     3
176
     1
170
     0
176
     1
171
     0
176
     1
290
     0
176
     1
 93
        5
176
     1
 44
0.0
176
     1
173
     0
176
     1
  0
VISUALSTYLE
  5
242
102
{ACAD_REACTORS
330
231
102
}
330
231
100
AcDbVisualStyle
  2
Shades of Gray
 70
    23
177
     2
291
     0
 71
     2
176
     1
 72
     2
176
     1
 73
     3
176
     1
 90
        0
176
     1
 40
0.6
176
     1
 41
30.0
176
     1
 63
     7
421
 16777215
176
     1
 74
     2
176
     1
 91
        2
176
     1
 64
     7
176
     1
 65
     7
176
     1
 75
     1
176
     1
175
     1
176
     1
 42
40.0
176
     1
 92
        8
176
     1
 66
     7
176
     1
 43
1.0
176
     1
 76
     1
176
     1
 77
     6
176
     1
 78
     2
176
     1
 67
     7
176
     1
 79
     3
176
     1
170
     0
176
     1
171
     0
176
     1
290
     0
176
     1
 93
        1
176
     1
 44
0.0
176
     1
173
     0
176
     1
  0
VISUALSTYLE
  5
243
102
{ACAD_REACTORS
330
231
102
}
330
231
100
AcDbVisualStyle
  2
Sketchy
 70
    24
177
     2
291
     0
 71
     1
176
     1
 72
     2
176
     1
 73
     2
176
     1
 90
        0
176
     1
 40
0.6
176
     1
 41
30.0
176
     1
 63
     7
421
 16777215
176
     1
 74
     2
176
     1
 91
        2
176
     1
 64
     7
176
     1
 65
     7
176
     1
 75
     1
176
     1
175
     1
176
     1
 42
40.0
176
     1
 92
       11
176
     1
 66
     7
176
     1
 43
1.0
176
     1
 76
     1
176
     1
 77
     6
176
     1
 78
     2
176
     1
 67
     7
176
     1
 79
     6
176
     1
170
     0
176
     1
171
     0
176
     1
290
     0
176
     1
 93
        1
176
     1
 44
0.0
176
     1
173
     0
176
     1
  0
VISUALSTYLE
  5
23E
102
{ACAD_REACTORS
330
231
102
}
330
231
100
AcDbVisualStyle
  2
Thicken
 70
    13
177
     2
291
     1
 71
     2
176
     1
 72
     2
176
     1
 73
     0
176
     1
 90
        0
176
     1
 40
0.6
176
     1
 41
30.0
176
     1
 63
     7
421
 16777215
176
     1
 74
     1
176
     1
 91
        4
176
     1
 64
     7
176
     1
 65
   257
176
     1
 75
     1
176
     1
175
     1
176
     1
 42
1.0
176
     1
 92
       12
176
     1
 66
     7
176
     1
 43
1.0
176
     1
 76
     1
176
     1
 77
     6
176
     1
 78
     2
176
     1
 67
     7
176
     1
 79
     5
176
     1
170
     0
176
     1
171
     0
176
     1
290
     0
176
     1
 93
        1
176
     1
 44
0.0
176
     1
173
     0
176
     1
  0
VISUALSTYLE
  5
238
102
{ACAD_REACTORS
330
231
102
}
330
231
100
AcDbVisualStyle
  2
Wireframe
 70
     5
177
     2
291
     0
 71
     0
176
     1
 72
     2
176
     1
 73
     0
176
     1
 90
        0
176
     1
 40
0.6
176
     1
 41
30.0
176
     1
 63
     7
421
 16777215
176
     1
 74
     1
176
     1
 91
        4
176
     1
 64
     7
176
     1
 65
   257
176
     1
 75
     1
176
     1
175
     1
176
     1
 42
1.0
176
     1
 92
        0
176
     1
 66
   257
176
     1
 43
1.0
176
     1
 76
     1
176
     1
 77
     6
176
     1
 78
     2
176
     1
 67
     7
176
     1
 79
     3
176
     1
170
     0
176
     1
171
     0
176
     1
290
     0
176
     1
 93
        1
176
     1
 44
0.0
176
     1
173
     0
176
     1
  0
VISUALSTYLE
  5
244
102
{ACAD_REACTORS
330
231
102
}
330
231
100
AcDbVisualStyle
  2
X-Ray
 70
    25
177
     2
291
     0
 71
     2
176
     1
 72
     2
176
     1
 73
     1
176
     1
 90
        1
176
     1
 40
0.5
176
     1
 41
30.0
176
     1
 63
     7
421
 16777215
176
     1
 74
     1
176
     1
 91
        0
176
     1
 64
     7
176
     1
 65
   257
176
     1
 75
     1
176
     1
175
     1
176
     1
 42
1.0
176
     1
 92
        8
176
     1
 66
     7
176
     1
 43
1.0
176
     1
 76
     1
176
     1
 77
     6
176
     1
 78
     2
176
     1
 67
     7
176
     1
 79
     3
176
     1
170
     0
176
     1
171
     0
176
     1
290
     0
176
     1
 93
       13
176
     1
 44
0.0
176
     1
173
     0
176
     1
  0
DICTIONARYVAR
  5
26F
102
{ACAD_REACTORS
330
26B
102
}
330
26B
100
DictionaryVariables
280
     0
  1
1:1
  0
DICTIONARYVAR
  5
26D
102
{ACAD_REACTORS
330
26B
102
}
330
26B
100
DictionaryVariables
280
     0
  1
STANDARD
  0
DICTIONARYVAR
  5
26C
102
{ACAD_REACTORS
330
26B
102
}
330
26B
100
DictionaryVariables
280
     0
  1
STANDARD
  0
DICTIONARYVAR
  5
271
102
{ACAD_REACTORS
330
26B
102
}
330
26B
100
DictionaryVariables
280
     0
  1
1
  0
DICTIONARYVAR
  5
272
102
{ACAD_REACTORS
330
26B
102
}
330
26B
100
DictionaryVariables
280
     0
  1
15
  0
DICTIONARYVAR
  5
270
102
{ACAD_REACTORS
330
26B
102
}
330
26B
100
DictionaryVariables
280
     0
  1
0
  0
DICTIONARYVAR
  5
26E
102
{ACAD_REACTORS
330
26B
102
}
330
26B
100
DictionaryVariables
280
     0
  1
0
  0
DICTIONARY
  5
222
330
221
100
AcDbDictionary
280
     1
281
     1
  3
BUMPTILE
360
224
  3
DIFFUSETILE
360
223
  3
OPACITYTILE
360
227
  3
REFLECTIONTILE
360
226
  3
REFRACTIONTILE
360
228
  3
SPECULARTILE
360
225
  0
DICTIONARY
  5
21A
330
219
100
AcDbDictionary
280
     1
281
     1
  3
BUMPTILE
360
21C
  3
DIFFUSETILE
360
21B
  3
OPACITYTILE
360
21F
  3
REFLECTIONTILE
360
21E
  3
REFRACTIONTILE
360
220
  3
SPECULARTILE
360
21D
  0
DICTIONARY
  5
22A
330
229
100
AcDbDictionary
280
     1
281
     1
  3
BUMPTILE
360
22C
  3
DIFFUSETILE
360
22B
  3
OPACITYTILE
360
22F
  3
REFLECTIONTILE
360
22E
  3
REFRACTIONTILE
360
230
  3
SPECULARTILE
360
22D
  0
DICTIONARY
  5
27F
330
260
100
AcDbDictionary
280
     1
281
     1
  3
ACAD_XREC_ROUNDTRIP
360
280
  0
DICTIONARY
  5
27D
330
24C
100
AcDbDictionary
280
     1
281
     1
  3
ACAD_ROUNDTRIP_2008_TABLESTYLE_CELLSTYLEMAP
360
27E
  0
XRECORD
  5
224
102
{ACAD_REACTORS
330
222
102
}
330
222
100
AcDbXrecord
280
     1
270
     1
271
     1
  0
XRECORD
  5
223
102
{ACAD_REACTORS
330
222
102
}
330
222
100
AcDbXrecord
280
     1
270
     1
271
     1
  0
XRECORD
  5
227
102
{ACAD_REACTORS
330
222
102
}
330
222
100
AcDbXrecord
280
     1
270
     1
271
     1
  0
XRECORD
  5
226
102
{ACAD_REACTORS
330
222
102
}
330
222
100
AcDbXrecord
280
     1
270
     1
271
     1
  0
XRECORD
  5
228
102
{ACAD_REACTORS
330
222
102
}
330
222
100
AcDbXrecord
280
     1
270
     1
271
     1
  0
XRECORD
  5
225
102
{ACAD_REACTORS
330
222
102
}
330
222
100
AcDbXrecord
280
     1
270
     1
271
     1
  0
XRECORD
  5
21C
102
{ACAD_REACTORS
330
21A
102
}
330
21A
100
AcDbXrecord
280
     1
270
     1
271
     1
  0
XRECORD
  5
21B
102
{ACAD_REACTORS
330
21A
102
}
330
21A
100
AcDbXrecord
280
     1
270
     1
271
     1
  0
XRECORD
  5
21F
102
{ACAD_REACTORS
330
21A
102
}
330
21A
100
AcDbXrecord
280
     1
270
     1
271
     1
  0
XRECORD
  5
21E
102
{ACAD_REACTORS
330
21A
102
}
330
21A
100
AcDbXrecord
280
     1
270
     1
271
     1
  0
XRECORD
  5
220
102
{ACAD_REACTORS
330
21A
102
}
330
21A
100
AcDbXrecord
280
     1
270
     1
271
     1
  0
XRECORD
  5
21D
102
{ACAD_REACTORS
330
21A
102
}
330
21A
100
AcDbXrecord
280
     1
270
     1
271
     1
  0
XRECORD
  5
22C
102
{ACAD_REACTORS
330
22A
102
}
330
22A
100
AcDbXrecord
280
     1
270
     1
271
     1
  0
XRECORD
  5
22B
102
{ACAD_REACTORS
330
22A
102
}
330
22A
100
AcDbXrecord
280
     1
270
     1
271
     1
  0
XRECORD
  5
22F
102
{ACAD_REACTORS
330
22A
102
}
330
22A
100
AcDbXrecord
280
     1
270
     1
271
     1
  0
XRECORD
  5
22E
102
{ACAD_REACTORS
330
22A
102
}
330
22A
100
AcDbXrecord
280
     1
270
     1
271
     1
  0
XRECORD
  5
230
102
{ACAD_REACTORS
330
22A
102
}
330
22A
100
AcDbXrecord
280
     1
270
     1
271
     1
  0
XRECORD
  5
22D
102
{ACAD_REACTORS
330
22A
102
}
330
22A
100
AcDbXrecord
280
     1
270
     1
271
     1
  0
XRECORD
  5
280
102
{ACAD_REACTORS
330
27F
102
}
330
27F
100
AcDbXrecord
280
     1
102
ACAD_ROUNDTRIP_2012_MLEADER_STYLE
298
     1
  0
CELLSTYLEMAP
  5
27E
102
{ACAD_REACTORS
330
27D
102
}
330
27D
100
AcDbCellStyleMap
 90
        3
300
CELLSTYLE
  1
TABLEFORMAT_BEGIN
 90
        5
170
     1
 91
        0
 92
    32768
 62
   257
 93
        1
300
CONTENTFORMAT
  1
CONTENTFORMAT_BEGIN
 90
        0
 91
        0
 92
      512
 93
        0
300

 40
0.0
140
1.0
 94
        5
 62
     0
340
11
144
6.0
309
CONTENTFORMAT_END
171
     1
301
MARGIN
  1
CELLMARGIN_BEGIN
 40
1.5
 40
1.5
 40
1.5
 40
1.5
 40
4.5
 40
4.5
309
CELLMARGIN_END
 94
        6
 95
        1
302
GRIDFORMAT
  1
GRIDFORMAT_BEGIN
 90
        0
 91
        1
 62
     0
 92
       -2
340
0
 93
        0
 40
1.125
309
GRIDFORMAT_END
 95
        2
302
GRIDFORMAT
  1
GRIDFORMAT_BEGIN
 90
        0
 91
        1
 62
     0
 92
       -2
340
0
 93
        0
 40
1.125
309
GRIDFORMAT_END
 95
        4
302
GRIDFORMAT
  1
GRIDFORMAT_BEGIN
 90
        0
 91
        1
 62
     0
 92
       -2
340
0
 93
        0
 40
1.125
309
GRIDFORMAT_END
 95
        8
302
GRIDFORMAT
  1
GRIDFORMAT_BEGIN
 90
        0
 91
        1
 62
     0
 92
       -2
340
0
 93
        0
 40
1.125
309
GRIDFORMAT_END
 95
       16
302
GRIDFORMAT
  1
GRIDFORMAT_BEGIN
 90
        0
 91
        1
 62
     0
 92
       -2
340
0
 93
        0
 40
1.125
309
GRIDFORMAT_END
 95
       32
302
GRIDFORMAT
  1
GRIDFORMAT_BEGIN
 90
        0
 91
        1
 62
     0
 92
       -2
340
0
 93
        0
 40
1.125
309
GRIDFORMAT_END
309
TABLEFORMAT_END
  1
CELLSTYLE_BEGIN
 90
        1
 91
        1
300
_TITLE
309
CELLSTYLE_END
300
CELLSTYLE
  1
TABLEFORMAT_BEGIN
 90
        5
170
     1
 91
        0
 92
        0
 62
   257
 93
        1
300
CONTENTFORMAT
  1
CONTENTFORMAT_BEGIN
 90
        0
 91
        0
 92
      512
 93
        0
300

 40
0.0
140
1.0
 94
        5
 62
     0
340
11
144
4.5
309
CONTENTFORMAT_END
171
     1
301
MARGIN
  1
CELLMARGIN_BEGIN
 40
1.5
 40
1.5
 40
1.5
 40
1.5
 40
4.5
 40
4.5
309
CELLMARGIN_END
 94
        6
 95
        1
302
GRIDFORMAT
  1
GRIDFORMAT_BEGIN
 90
        0
 91
        1
 62
     0
 92
       -2
340
0
 93
        0
 40
1.125
309
GRIDFORMAT_END
 95
        2
302
GRIDFORMAT
  1
GRIDFORMAT_BEGIN
 90
        0
 91
        1
 62
     0
 92
       -2
340
0
 93
        0
 40
1.125
309
GRIDFORMAT_END
 95
        4
302
GRIDFORMAT
  1
GRIDFORMAT_BEGIN
 90
        0
 91
        1
 62
     0
 92
       -2
340
0
 93
        0
 40
1.125
309
GRIDFORMAT_END
 95
        8
302
GRIDFORMAT
  1
GRIDFORMAT_BEGIN
 90
        0
 91
        1
 62
     0
 92
       -2
340
0
 93
        0
 40
1.125
309
GRIDFORMAT_END
 95
       16
302
GRIDFORMAT
  1
GRIDFORMAT_BEGIN
 90
        0
 91
        1
 62
     0
 92
       -2
340
0
 93
        0
 40
1.125
309
GRIDFORMAT_END
 95
       32
302
GRIDFORMAT
  1
GRIDFORMAT_BEGIN
 90
        0
 91
        1
 62
     0
 92
       -2
340
0
 93
        0
 40
1.125
309
GRIDFORMAT_END
309
TABLEFORMAT_END
  1
CELLSTYLE_BEGIN
 90
        2
 91
        1
300
_HEADER
309
CELLSTYLE_END
300
CELLSTYLE
  1
TABLEFORMAT_BEGIN
 90
        5
170
     1
 91
        0
 92
        0
 62
   257
 93
        1
300
CONTENTFORMAT
  1
CONTENTFORMAT_BEGIN
 90
        0
 91
        0
 92
      512
 93
        0
300

 40
0.0
140
1.0
 94
        2
 62
     0
340
11
144
4.5
309
CONTENTFORMAT_END
171
     1
301
MARGIN
  1
CELLMARGIN_BEGIN
 40
1.5
 40
1.5
 40
1.5
 40
1.5
 40
4.5
 40
4.5
309
CELLMARGIN_END
 94
        6
 95
        1
302
GRIDFORMAT
  1
GRIDFORMAT_BEGIN
 90
        0
 91
        1
 62
     0
 92
       -2
340
0
 93
        0
 40
1.125
309
GRIDFORMAT_END
 95
        2
302
GRIDFORMAT
  1
GRIDFORMAT_BEGIN
 90
        0
 91
        1
 62
     0
 92
       -2
340
0
 93
        0
 40
1.125
309
GRIDFORMAT_END
 95
        4
302
GRIDFORMAT
  1
GRIDFORMAT_BEGIN
 90
        0
 91
        1
 62
     0
 92
       -2
340
0
 93
        0
 40
1.125
309
GRIDFORMAT_END
 95
        8
302
GRIDFORMAT
  1
GRIDFORMAT_BEGIN
 90
        0
 91
        1
 62
     0
 92
       -2
340
0
 93
        0
 40
1.125
309
GRIDFORMAT_END
 95
       16
302
GRIDFORMAT
  1
GRIDFORMAT_BEGIN
 90
        0
 91
        1
 62
     0
 92
       -2
340
0
 93
        0
 40
1.125
309
GRIDFORMAT_END
 95
       32
302
GRIDFORMAT
  1
GRIDFORMAT_BEGIN
 90
        0
 91
        1
 62
     0
 92
       -2
340
0
 93
        0
 40
1.125
309
GRIDFORMAT_END
309
TABLEFORMAT_END
  1
CELLSTYLE_BEGIN
 90
        3
 91
        2
300
_DATA
309
CELLSTYLE_END
  0
ENDSEC
  0
EOF
