<?xml version="1.0" encoding="utf-8"?>
<!-- Generator: Adobe Illustrator 16.0.0, SVG Export Plug-In . SVG Version: 6.00 Build 0)  -->
<!DOCTYPE svg PUBLIC "-//W3C//DTD SVG 1.1//EN" "http://www.w3.org/Graphics/SVG/1.1/DTD/svg11.dtd">
<svg version="1.1"
	 id="svg2" xmlns:dc="http://purl.org/dc/elements/1.1/" xmlns:cc="http://creativecommons.org/ns#" xmlns:inkscape="http://www.inkscape.org/namespaces/inkscape" xmlns:sodipodi="http://sodipodi.sourceforge.net/DTD/sodipodi-0.dtd" xmlns:svg="http://www.w3.org/2000/svg" xmlns:rdf="http://www.w3.org/1999/02/22-rdf-syntax-ns#" sodipodi:docname="ISS_insignia.svg" inkscape:version="0.48.2 r9819"
	 xmlns="http://www.w3.org/2000/svg" xmlns:xlink="http://www.w3.org/1999/xlink" x="0px" y="0px" width="800px" height="989.811px"
	 viewBox="0 0 800 989.811" enable-background="new 0 0 800 989.811" xml:space="preserve">
<sodipodi:namedview  inkscape:cx="648.13452" inkscape:zoom="0.3371901" bordercolor="#666666" pagecolor="#ffffff" borderopacity="1" showgrid="false" guidetolerance="10" objecttolerance="10" gridtolerance="10" inkscape:cy="319.41674" id="namedview166" inkscape:window-width="1366" inkscape:window-height="718" inkscape:window-x="-8" inkscape:window-maximized="1" inkscape:current-layer="svg2" inkscape:window-y="-8" inkscape:pageopacity="0" inkscape:pageshadow="2">
	</sodipodi:namedview>
<g id="layer2" transform="translate(-3.992524,3.1357746)">
	<path id="path4462" fill="none" stroke="#000000" stroke-width="7" stroke-miterlimit="10" d="M700.997,502.812
		c0.033,164.577-133.357,298.021-297.936,298.054C238.483,800.898,105.04,667.508,105.008,502.93c0-0.039,0-0.078,0-0.117
		c-0.032-164.578,133.358-298.021,297.936-298.054c164.578-0.032,298.022,133.358,298.054,297.936
		C700.997,502.733,700.997,502.772,700.997,502.812z"/>
	<path id="path4428" fill="none" stroke="#000000" stroke-width="4" stroke-linecap="round" stroke-linejoin="round" d="
		M278.937,682.946c144.759-69.746,278.182-94.768,297.819-55.852c10.327,20.468-0.401,43.748-45.771,81.623"/>
	<path id="path4424" fill="none" stroke="#000000" stroke-width="4.0939" stroke-linecap="round" stroke-linejoin="round" d="
		M158.278,577.746c-12.586-59.41-3.675-83.243,17.024-93.688"/>
	<path id="path4421" fill="none" stroke="#000000" stroke-width="7" stroke-linecap="round" stroke-linejoin="round" d="
		M124.828,612.841c41.962-54.029,107.543-88.815,181.2-88.815c126.576,0,229.304,102.729,229.304,229.305
		c0,5.421-0.188,10.798-0.559,16.125l1.569,1.048C327.571,857.542,167.352,723.079,124.828,612.841z"/>
	<g id="g4400">
		<path id="path4368" fill="none" stroke="#000000" stroke-width="2" stroke-miterlimit="10" d="M298.278,771.675l13.214-8.214
			c4.76-12.028,7.938-27.221,17.143-30.357l16.786-1.429l20.714,18.571c6.251,5.64,8.089,12.383,10.714,18.929
			c0.28-7.603,2.852-12.15-2.143-26.785c-2.5,1.604-5-2.884-7.5-5.715h5v-6.071l-7.857-3.571c-2.143,0.599-4.286,0.664-6.428-2.5
			l6.428-1.786c-1.253-5.219,1.082-9.242,2.5-13.571c5.095-7.886,4.895-13.418,1.429-17.5c-3.214,2.408-6.429,2.831-9.643,1.429
			c1.03-8.386,2.431-17.018,0.714-23.571c-2.04-4.048-9.294-8.096-18.928-12.143l-19.643-0.715l-27.143-8.571l-1.429-4.285
			l6.429-12.857c-0.932-2.024-0.33-4.048-5.714-6.071c-5.833,1.09-11.667-0.888-17.5-3.571c-5.33,1.135-10.605,2.162-15,1.428
			c-8.069,5.477-13.588,5.216-17.857,2.144l-2.857,6.071l-0.714,5.357l-11.071,5c-0.284,5.668-3.812,8.093-7.857,10
			c1.121,6.286-1.835,11.213-9.286,14.643l0.357,7.143l-3.929,4.643c2.474,3.955,7.57,7.648,1.071,12.5l-1.786,8.572l6.786,0.356
			l6.429,6.071l-4.643,12.144l3.214,14.285C240.678,751.901,263.734,771.067,298.278,771.675z"/>
		<path id="path4376" fill="none" stroke="#000000" stroke-width="2" stroke-miterlimit="10" d="M510.836,653.072l-4.04,6.565
			c-7.454-5.674-13.468-9.426-14.9-7.07c-3.722-3.013-6.783-6.686-7.828-12.375l-7.576-11.364c-0.11-3.152-0.662-6.012-2.778-7.828
			c0.873-6.586-2.725-10.419-10.606-11.617c-5.206-1.835-12.062-2.728-12.88-7.071c-10.996,3.214-10.806,0.134-11.363-2.524
			c6.453-2.359,4.002-5.312,0.505-8.334c-6.941,1.459-10.474-2.537-14.143-6.313l-5.051-3.283c-4.528-0.472-6.742-4.03-9.344-7.071
			c-0.371-5.286-1.986-9.95-5.051-13.89l9.597-9.091c13.323,6.955,26.24,15.944,38.891,26.264l2.021,10.102
			c1.058,3.319,4.165,4.59,8.586,4.546c7.188,10.375,15.647,21.114,27.527,32.83C502.313,633.466,504.719,643.888,510.836,653.072z"
			/>
		<path id="path4378" fill="none" stroke="#000000" stroke-width="2" stroke-miterlimit="10" d="M201.849,548.461
			c6.359-2.919,29.223-9.37,35-9.465c8.54-1.233,4.577,3.037,3.929,5.536c-4.002,2.282-3.545,5.122-3.929,7.857l-5,5
			c-1.287,2.093-3.726,2.65-6.428,2.856c-2.738,0.119-5,1.19-6.786,3.215c-3.127,3.288-7.619,2.938-12.143,2.5
			c-5.215-1.026-7.985,2.84-11.429,5.357c-6.481,1.561-12.785,3.477-17.857,7.856c-5.105,5.319-12.438,7.296-15,16.429
			c-0.605,2.738-8.978,9.762-10.714,14.643c-0.489,1.998-1.779,3.835-4.643,5.357c-2.227,2.146-5.036,2.255-8.214,1.071
			l-5.357-12.679c10.36-11.113,17.35-18.297,25-26.25C170.492,565.102,190.168,554.493,201.849,548.461z"/>
		<path id="path4380" fill="none" stroke="#000000" stroke-width="2" stroke-miterlimit="10" d="M225.064,564.353
			c3.78,0.043,5.67-2.338,7.857-2.857c2.174-0.688,2.973-0.262,2.143,1.607C232.282,569.209,230.621,566.048,225.064,564.353z"/>
		<path id="path4382" fill="none" stroke="#000000" stroke-width="2" stroke-miterlimit="10" d="M309.437,537.031
			c5.849,2.882,11.064,5.235,14.9,6.439l-9.723,5.809c-0.997-1.562-0.783-3.469-3.915-4.42
			C315.473,543.604,312.162,540.241,309.437,537.031z"/>
		<path id="path4384" fill="none" stroke="#000000" stroke-width="2" stroke-miterlimit="10" d="M310.069,548.143
			c-6.827-1.538-13.817,5.121-20.456,9.976c3.241-0.169,6.209-0.405,10.733-0.253C302.273,553.31,306.623,551.179,310.069,548.143z"
			/>
		<path id="path4370" fill="none" stroke="#000000" stroke-width="2" stroke-miterlimit="10" d="M448.279,782.746l-4.286-4.821
			c4.312-3.607,2.141-5.595-1.071-7.321h-4.107c-0.086-2.923-1.655-2.879-2.857-3.571c0.707,1.213,1.879,2.271,1.25,3.929
			c-2.736-1.528-4.974-5.924-8.571-2.5c-3.205-4.884-6.557-5.942-10-4.643c3.113,1.961,4.501,4.707,5,7.856l-3.571-0.356
			c1.867,2.221,4.756,3.931,5.357,6.785c5.705,6.548,5.717,13.096,8.571,19.643L448.279,782.746z"/>
		<path id="path4372" fill="none" stroke="#000000" stroke-width="2" stroke-miterlimit="10" d="M420.779,773.996
			c-1.323-2.289-3.453-4.139-2.322-7.768c-3.021,2.269-5.281,5.679-6.875,10.09C414.561,775.112,417.565,774.03,420.779,773.996z"/>
		<path id="path4374" fill="none" stroke="#000000" stroke-width="2" stroke-miterlimit="10" d="M414.618,766.496l-3.214,3.215
			l3.214,0.089V766.496z"/>
	</g>
	<path id="path4415" fill="none" stroke="#000000" stroke-width="4.0939" stroke-linecap="round" stroke-linejoin="round" d="
		M175.302,484.059c38.916-19.637,127.105,81.912,196.852,226.672c14.668,30.444,27.358,60.387,37.892,88.876"/>
	<path id="path4417" fill="none" stroke="#000000" stroke-width="4" stroke-linecap="round" stroke-linejoin="round" d="
		M203.613,723.069c23.305-13.719,48.577-27.235,75.324-40.123c144.759-69.746,278.182-94.768,297.819-55.852"/>
	
		<path id="path3322" inkscape:connector-curvature="0" sodipodi:nodetypes="ccccccssccccccccccccccccccccccccccccccccccccccccccccccccccccccccccccccccccccccccccccccccccccc" d="
		M514.35,377.746l-11.071,12.144l-33.215,25.714l-1.071,5.357l0.357,4.643l-35.48-3.612c0,0-0.22,10.182-0.209,10.47
		c0.047,1.292-11.18,2.265-11.854,1.017c-0.462-0.856-0.188-4.275-0.188-4.275l-2.72,3.763l-0.621,7.996
		c-1.024,2.951-2.669,4.663-4.644,5.714l-0.356,6.071c4.533-2.146,8.398,3.744,12.5,6.786h3.214
		c0.302-1.983,1.639-1.379,2.857-1.071c4.15-1.919,6.657,0.68,8.929,3.929l-13.572,12.5c-1.161-3.252-3.495-3.376-6.071-2.857
		c-3.474,2.942-7.501,2.014-11.429,1.785c-0.728-2.167-2.259-2.328-3.928-2.143c-0.387-1.727-1.931-1.14-3.215-1.071
		c-3.015-4.495,0.631-6.567,2.5-9.286l-3.571,1.429l-31.071-13.929c-1.832,0.963-3.768,1.401-6.072,0l-4.643,3.929
		c-1.181,1.6-6.442-0.809-5.714-4.285l4.643-4.286l-18.214-6.785c-5.595-4.346,2.678-21.25,9.286-18.572l9.286,3.929l-1.071-28.571
		l20,4.643v21.429l20.714-17.143l0.357-11.786c-4.448-2.519-2.625-3.896,0.714-5c2.722-2.288,5.612-1.742,8.571,0
		c0.486-0.735,1.237,0.117,1.951,0.751l2.692,1.035c2.558-0.933,4.677-2.183,4.643-5c-4.664-0.59-5.539-6.098,1.161-6.25
		c4.142-0.169,6.333,4.395,0.625,5.893c0.811,4.673-0.966,6.359-3.215,7.5l-0.714,6.429l6.785-5.357
		c0.242-4.159,2.571-4.145,4.644-4.643l0.356-5.357l21.429-17.143c2.024-2.069,4.048-1.363,6.071,0.357l1.786-0.715l1.071-3.928
		l-38.214-15l18.372-13.81l32.392,13.292l11.308-11.091l6.837-2.677l-1.279-2.592l-30.099-14.129l11.104-9.935l30.94,15.038
		l3.381,1.501l3.173-2.408l5.662-6.077l13.946-8.749c14.739-1.853,13.571,15.826,10.971,16.16l-12.104,9.147l31.525,13.12
		l-10.964,9.232l-33.861-15.001l-7.376,5.762l-2.5-1.071c1.593,6.227-4.958,8.964-9.643,12.5l3.929,1.786l10.714-7.857l0.715,12.5
		l5.714,1.786l15,6.428L514.35,377.746z M444.171,388.996l10.535-8.214l0.894-2.5C458.608,388.361,451.388,388.678,444.171,388.996z
		 M468.279,377.211c3.153-3.036,6.116-6.264,10.178-8.393l-4.821-2.144l3.215-3.75l-2.5-1.071l-3.394,3.929l-3.393-0.893l-2.5,3.929
		C468.689,370.977,468.342,374.129,468.279,377.211L468.279,377.211z"/>
	<path id="path2265" d="M563.87,467.204l96.849-74.878l-37.376-16.162l-94.575,73.867L563.87,467.204z"/>
	<path id="path3238" fill="none" stroke="#000000" stroke-width="3" stroke-linejoin="round" d="M542.404,458.618l101.521-77.277"/>
	<path id="path3240" d="M522.084,449.079l96.848-74.878l-37.375-16.162l-94.576,73.867L522.084,449.079z"/>
	<path id="path3242" fill="none" stroke="#000000" stroke-width="3" stroke-linejoin="round" d="M500.618,440.493l101.52-77.277"/>
	<path id="path3244" d="M450.733,549.279l96.848-74.878l-37.375-16.162l-94.576,73.867L450.733,549.279z"/>
	<path id="path3246" fill="none" stroke="#000000" stroke-width="3" stroke-linejoin="round" d="M429.267,540.692l101.521-77.276"/>
	<path id="path3248" d="M408.947,531.154l96.849-74.878l-37.376-16.162l-94.575,73.867L408.947,531.154z"/>
	<path id="path3250" fill="none" stroke="#000000" stroke-width="3" stroke-linejoin="round" d="M387.481,522.567l101.521-77.276"/>
	<path id="path3292" d="M312.921,373.103v45.715l-10-4.286V367.39L312.921,373.103z"/>
	<path id="path3294" d="M269.349,407.032l-11.786-5.357l-2.857-52.143l13.214,0.357L269.349,407.032z"/>
	<path id="path3296" d="M534.706,452.39c3.923,6.246,6.833,18.464-10.714,13.571L259.707,351.318
		c-44.149-13.847,1.421-14.391,8.929-11.786L534.706,452.39z"/>
	<path id="path3298" d="M240.116,329.571l35.86,15.909l97.985-75.003l-37.88-16.163L240.116,329.571z"/>
	<path id="path3300" d="M284.057,346.996l31.82,14.142l98.742-74.246l-34.598-12.375L284.057,346.996z"/>
	<path id="path3302" d="M130.514,411.898l32.578,15.152l96.975-74.752l-32.325-14.395L130.514,411.898z"/>
	<path id="path3304" d="M170.668,429.828l36.113,15.91l100.51-76.014l-35.86-16.668L170.668,429.828z"/>
	<path id="path3306" fill="none" stroke="#000000" stroke-width="3" stroke-linejoin="round" d="M148.278,418.461l93.571-71.786"/>
	<path id="path3308" fill="none" stroke="#000000" stroke-width="3" stroke-linejoin="round" d="M189.349,436.318l96.072-74.286"/>
	<path id="path3310" fill="none" stroke="#000000" stroke-width="3" stroke-linejoin="round" d="M257.564,335.961l96.429-73.572"/>
	<path id="path3312" fill="none" stroke="#000000" stroke-width="3" stroke-linejoin="round" d="M395.064,279.889l-95,72.857"/>
	<path id="path3314" d="M532.807,482.103l1.516,30.81l-12.122-6.061l-1.01-19.698L532.807,482.103z"/>
	<path id="path3316" d="M489.37,465.436v16.162l-11.111,4.546v-16.162L489.37,465.436z"/>
	<path id="path3318" d="M534.706,465.782c5.479,1.123,12.714-4.046,18.394-6.429l-7.144-4.285c-3.422,2.142-7.02,5.331-10,4.821
		L534.706,465.782z"/>
	<path id="path3320" d="M346.181,361.138l0.253,36.871l10.102,4.04l5.556-2.02l1.01-3.536l13.132-11.616
		c3.298-4.406,7.042-7.294,10.354-8.334c4.176-1.183,5.663-3.948,7.829-5.809c2.588-2.799,5.05-5.726,9.597-6.565
		c4.617-1.307,6.598-4.215,8.586-6.819c2.912-3.47,6.266-5.616,9.85-7.07l-1.769-39.396c-3.36,2.364-6.602,4.847-10.606,6.566
		c-3.037,1.436-6.905,4.043-10.606,8.839c-2.839,4.507-6.954,6.464-11.111,8.334c-4.4,1.439-7.236,5.224-10.354,8.586
		c-2.387,2.974-6.155,5.256-9.849,7.576c-3.031,1.456-6.061,4.361-9.091,7.828l-4.041,3.536
		C351.827,360.579,348.711,359.389,346.181,361.138z"/>
	<path id="path4430" d="M596.149,570.427c-1.106,11.08-1.723,22.17-1.906,33.25c-2.938,0.66-5.278,2.835-6.219,5.656
		c-6.228,0.456-12.46,1.359-18.688,2.688c6.228,1.328,12.46,2.263,18.688,2.719c0.944,2.832,3.298,5.004,6.25,5.656
		c0.237,11.081,0.891,22.169,1.875,33.25c0.984-11.08,1.606-22.17,1.844-33.25c2.921-0.645,5.285-2.775,6.25-5.562
		c6.227-0.396,12.461-1.32,18.688-2.812c-6.227-1.492-12.461-2.385-18.688-2.781c-0.961-2.777-3.312-4.909-6.219-5.562
		C597.84,592.597,597.255,581.507,596.149,570.427z"/>
	<path id="path4447" d="M258.461,455.177c-0.706,7.065-1.071,14.122-1.188,21.188c-1.878,0.42-3.402,1.79-4,3.594
		c-3.963,0.291-7.912,0.873-11.875,1.719c3.963,0.846,7.912,1.428,11.875,1.719c0.598,1.804,2.122,3.174,4,3.594
		c0.151,7.065,0.56,14.122,1.188,21.188c0.628-7.065,1.037-14.122,1.188-21.188c1.854-0.415,3.356-1.76,3.969-3.531
		c3.968-0.253,7.938-0.83,11.906-1.781c-3.968-0.951-7.938-1.528-11.906-1.781c-0.613-1.771-2.114-3.116-3.969-3.531
		C259.532,469.299,259.167,462.242,258.461,455.177z"/>
	<path id="path4454" d="M601.305,306.895c-0.741,7.428-1.127,14.854-1.25,22.281c-1.979,0.44-3.591,1.879-4.219,3.781
		c-4.16,0.307-8.309,0.925-12.469,1.812c4.16,0.888,8.309,1.475,12.469,1.781c0.628,1.902,2.239,3.372,4.219,3.812
		c0.158,7.428,0.59,14.854,1.25,22.281c0.66-7.428,1.092-14.854,1.25-22.281c1.946-0.434,3.507-1.863,4.156-3.719
		c4.175-0.266,8.356-0.874,12.531-1.875c-4.175-1.001-8.356-1.609-12.531-1.875c-0.643-1.869-2.2-3.283-4.156-3.719
		C602.432,321.749,602.046,314.323,601.305,306.895z"/>
</g>
<g id="layer1" inkscape:label="Layer" inkscape:groupmode="layer">
</g>
<g id="layer3" inkscape:label="Layer#1" inkscape:groupmode="layer">
</g>
</svg>
